<svg version="1.0" xmlns="http://www.w3.org/2000/svg" width="202.667" height="202.667" viewBox="0 0 152 152"><path d="M0 76v76h38V93h17.5V76.2c.1-15.6.2-17.2 2.8-24.7 5.4-15.5 14.6-26.3 28.2-33 11-5.4 18.7-6.9 36-6.9 14.4-.1 19 .6 28 4 1.3.5 1.5-.6 1.5-7.5V0H0v76z"/><path d="M103.8 37.2c-7.9 2.7-14.7 9-18.4 17-2.8 6-2.9 6.9-2.9 20.8 0 16.5 1.6 22.2 8.1 29.8 7.8 9.1 17.9 12.5 33.5 11.1 10.3-.8 17.9-3.2 24-7.5l3.9-2.7V75.5c0-30 0-30.2-2.2-32.2-8.4-7.6-32.5-10.9-46-6.1zM79 141.4V152h38v-4.4c0-4.7 1.1-5.8 4.5-4.6 1.1.4 2.9.4 4 0s2.9-.4 4 0 2.9.4 4 0 2.9-.4 4 0 2.9.4 4 0 2.9-.4 4 0 3 .4 4.3-.1c1.9-.7 2.2-1.6 2.2-5.8v-5l-4.4 2.5c-15.5 8.7-44.9 8.6-61.8-.3-2.9-1.5-5.6-2.9-6-3.1-.5-.2-.8 4.4-.8 10.2z"/></svg>