<?xml version="1.0" standalone="no"?>
<!DOCTYPE svg PUBLIC "-//W3C//DTD SVG 20010904//EN"
 "http://www.w3.org/TR/2001/REC-SVG-20010904/DTD/svg10.dtd">
<svg version="1.0" xmlns="http://www.w3.org/2000/svg"
 width="152.000000pt" height="152.000000pt" viewBox="0 0 152.000000 152.000000"
 preserveAspectRatio="xMidYMid meet">
<metadata>
Created by potrace 1.11, written by Peter Selinger 2001-2013
</metadata>
<g transform="translate(0.000000,152.000000) scale(0.100000,-0.100000)"
fill="#000000" stroke="none">
<path d="M0 760 l0 -760 190 0 190 0 0 295 0 295 88 0 87 0 0 168 c1 156 2
172 28 247 54 155 146 263 282 330 110 54 187 69 360 69 144 1 190 -6 280 -40
13 -5 15 6 15 75 l0 81 -760 0 -760 0 0 -760z"/>
<path d="M1038 1148 c-79 -27 -147 -90 -184 -170 -28 -60 -29 -69 -29 -208 0
-165 16 -222 81 -298 78 -91 179 -125 335 -111 103 8 179 32 240 75 l39 27 0
302 c0 300 0 302 -22 322 -84 76 -325 109 -460 61z"/>
<path d="M790 106 l0 -106 190 0 190 0 0 44 c0 47 11 58 45 46 11 -4 29 -4 40
0 11 4 29 4 40 0 11 -4 29 -4 40 0 11 4 29 4 40 0 11 -4 29 -4 40 0 11 4 29 4
40 0 11 -4 30 -4 43 1 19 7 22 16 22 58 l0 50 -44 -25 c-155 -87 -449 -86
-618 3 -29 15 -56 29 -60 31 -5 2 -8 -44 -8 -102z"/>
</g>
</svg>
