<?xml version="1.0" encoding="UTF-8"?>
<svg width="160px" height="24px" viewBox="0 0 160 24" version="1.1" xmlns="http://www.w3.org/2000/svg" xmlns:xlink="http://www.w3.org/1999/xlink">
    <title>98E88BC2-2168-4C99-8995-703128863FB2</title>
    <defs>
        <path d="M18.74025,7.9205 C24.75225,7.9205 23.91025,14.36775 23.91025,14.36775 L23.91025,14.36775 L16.214,14.36775 C16.214,16.73325 18.1343061,16.9427908 18.682965,16.9543841 L18.7734328,16.9546436 C18.8085469,16.9540339 18.82775,16.95275 18.82775,16.95275 C21.0575887,16.95275 21.2021995,15.6492786 21.2093057,15.3969938 L21.20925,15.355 L23.82325,15.355 C23.82325,19.59575 18.7405,19.30525 18.7405,19.30525 C13.4686992,19.30525 13.0464071,15.0624668 13.0288121,13.9118816 L13.0283411,13.7912271 C13.0292012,13.6857236 13.03325,13.627 13.03325,13.627 L13.03325,13.627 L13.0334913,13.6056838 C13.0401802,13.2266716 13.2321842,7.9205 18.74025,7.9205 Z M7.729,4.141 C10.078,4.141 11.93225,5.43775 11.93225,8.09575 C11.93225,10.754 9.666,10.92225 9.666,10.92225 C12.65325,10.92225 12.4475,14.6105 12.44725,14.6105 C12.44725,18.96242 8.0989108,18.998948 7.75104366,18.9949072 L0,18.9945 L0,4.141 Z M7.75031748,12.3856463 L3.4055,12.3852427 L3.4055,16.355 L7.52975,16.355 C8.14975,16.33775 9.295,16.143 9.295,14.42525 C9.295,12.507319 7.93755172,12.3923781 7.75031748,12.3856463 Z M18.79825,10.09575 C16.50375,10.09575 16.1845,12.38525 16.1845,12.38525 L16.1845,12.38525 L21.0637592,12.38525 L21.0637592,12.38525 L21.0634924,12.3578877 C21.057859,12.0993301 20.9449516,10.0955161 18.79825,10.09575 Z M7.73457064,6.78136178 L3.4055,6.78125 L3.4055,10.09575 L7.46125,10.09575 C8.16175,10.09575 8.78,9.87175 8.78,8.3265 C8.78,6.78125 7.72925,6.78125 7.72925,6.78125 Z M21.6735,5.016 L21.6735,6.84525 L15.545,6.84525 L15.545,5.016 L21.6735,5.016 Z" id="path-1"></path>
        <path d="M17.2808471,3.33955086e-13 C20.9128941,3.33955086e-13 23.8675765,2.95482353 23.8675765,6.58658824 L23.8675765,6.58658824 L23.8675765,17.2809882 C23.8675765,20.9127529 20.9128941,23.8675765 17.2808471,23.8675765 L17.2808471,23.8675765 L6.58644706,23.8675765 C2.95468235,23.8675765 -7.10542736e-15,20.9128941 -7.10542736e-15,17.2809882 L-7.10542736e-15,17.2809882 L-7.10542736e-15,6.58658824 C-7.10542736e-15,2.95482353 2.95468235,3.33955086e-13 6.58644706,3.33955086e-13 L6.58644706,3.33955086e-13 Z M17.2808471,2.11764706 L6.58644706,2.11764706 C4.12235294,2.11764706 2.11764706,4.12249412 2.11764706,6.58658824 L2.11764706,6.58658824 L2.11764706,17.2809882 C2.11764706,19.7452235 4.12235294,21.7499294 6.58644706,21.7499294 L6.58644706,21.7499294 L17.2809882,21.7499294 C19.7452235,21.7499294 21.7500706,19.7452235 21.7500706,17.2809882 L21.7500706,17.2809882 L21.7500706,6.58658824 C21.7500706,4.12249412 19.7450824,2.11764706 17.2808471,2.11764706 L17.2808471,2.11764706 Z M11.9337882,5.784 C15.3249882,5.784 18.0838588,8.54287059 18.0838588,11.9340706 C18.0838588,15.3251294 15.3249882,18.0838588 11.9337882,18.0838588 C8.54258824,18.0838588 5.78371765,15.3251294 5.78371765,11.9340706 C5.78371765,8.54287059 8.54258824,5.784 11.9337882,5.784 Z M11.9337882,7.90150588 C9.71025882,7.90150588 7.90136471,9.7104 7.90136471,11.9339294 C7.90136471,14.1573176 9.7104,15.9660706 11.9337882,15.9660706 C14.1571765,15.9660706 15.9662118,14.1573176 15.9662118,11.9339294 C15.9662118,9.7104 14.1573176,7.90150588 11.9337882,7.90150588 Z M18.3417882,3.98837647 C18.7512,3.98837647 19.1521412,4.15355294 19.4401412,4.44296471 C19.7295529,4.73096471 19.8947294,5.13190588 19.8947294,5.54131765 C19.8947294,5.94931765 19.7295529,6.35025882 19.4401412,6.63967059 C19.1507294,6.92767059 18.7512,7.09425882 18.3417882,7.09425882 C17.9337882,7.09425882 17.5328471,6.92767059 17.2448471,6.63967059 C16.9554353,6.35025882 16.7888471,5.94945882 16.7888471,5.54131765 C16.7888471,5.13190588 16.9552941,4.73096471 17.2448471,4.44296471 C17.5329882,4.15355294 17.9337882,3.98837647 18.3417882,3.98837647 Z" id="path-3"></path>
        <path d="M12,0 C5.37528,0 0,5.37528 0,12 C0,18.62472 5.37528,24 12,24 C18.61176,24 24,18.62472 24,12 C24,5.37528 18.61176,0 12,0 Z M19.92624,5.53152 C21.35784,7.27536 22.21704,9.50112 22.24296,11.9088 C21.90456,11.84376 18.52056,11.154 15.11064,11.5836 C15.03264,11.4144 14.96736,11.232 14.88936,11.04984 C14.68104,10.5552 14.4468,10.04784 14.21256,9.56616 C17.98704,8.0304 19.70496,5.81784 19.92624,5.53152 Z M12,1.77 C14.60304,1.77 16.9848,2.74608 18.79392,4.34712 C18.61176,4.60728 17.0628,6.6768 13.41864,8.04336 C11.7396,4.95888 9.8784,2.43384 9.59208,2.04336 C10.36008,1.8612 11.16696,1.77 12,1.77 Z M7.63992,2.73312 C7.91328,3.09768 9.73536,5.63568 11.44032,8.65512 C6.65064,9.93048 2.42088,9.90459955 1.96536,9.90459955 C2.62896,6.72888 4.77648,4.08672 7.63992,2.73312 Z M1.74408,12.01296 C1.74408,11.9088 1.74408,11.80488 1.74408,11.70072 C2.18664,11.71368 7.15824,11.77872 12.27336,10.24296 C12.57264,10.8156 12.846,11.4012 13.1064,11.98704 C12.97608,12.02616 12.83304,12.06504 12.70272,12.10416 C7.41864,13.80912 4.60728,18.46848 4.37304,18.85896 C2.74632,17.04984 1.74408,14.64216 1.74408,12.01296 Z M12,22.25592 C9.6312,22.25592 7.4448,21.44904 5.71368,20.09544 C5.89584,19.71792 7.97832,15.70944 13.75704,13.692 C13.7832,13.67904 13.79616,13.67904 13.82208,13.66584 C15.26688,17.4012 15.85248,20.538 16.00872,21.43608 C14.77224,21.9696 13.41864,22.25592 12,22.25592 Z M17.71368,20.49888 C17.60952,19.87416 17.0628,16.88064 15.7224,13.19736 C18.9372,12.68976 21.74832,13.5228 22.09968,13.63992 C21.65736,16.49016 20.01744,18.95016 17.71368,20.49888 L17.71368,20.49888 Z" id="path-5"></path>
        <path d="M2,5.20707071 C2,4.56732727 2.22523166,4.03954949 2.67567568,3.62373737 C3.12611969,3.20790606 3.71171815,3 4.43243243,3 C5.14028958,3 5.71299228,3.20470101 6.15057915,3.61414141 C6.60102317,4.03636364 6.82625483,4.58651919 6.82625483,5.26464646 C6.82625483,5.87878788 6.60747104,6.3905596 6.16988417,6.8 C5.71944015,7.22222222 5.12741313,7.43333333 4.39382239,7.43333333 L4.37451737,7.43333333 C3.66666023,7.43333333 3.09395753,7.22222222 2.65637066,6.8 C2.21878378,6.37777778 2,5.84679495 2,5.20707071 Z M2.25096525,22 L2.25096525,9.17979798 L6.53667954,9.17979798 L6.53667954,22 L2.25096525,22 Z M8.91119691,22 L13.1969112,22 L13.1969112,14.8414141 C13.1969112,14.3935899 13.2483977,14.0481354 13.3513514,13.8050505 C13.5315251,13.3700273 13.8050193,13.0021758 14.1718147,12.7015152 C14.53861,12.4008354 14.9987066,12.2505051 15.5521236,12.2505051 C16.9935714,12.2505051 17.7142857,13.2164919 17.7142857,15.1484848 L17.7142857,22 L22,22 L22,14.6494949 C22,12.7558859 21.549556,11.319697 20.6486486,10.3409091 C19.7477413,9.36212121 18.557278,8.87272727 17.0772201,8.87272727 C15.4169884,8.87272727 14.1235521,9.58282828 13.1969112,11.0030303 L13.1969112,11.0414141 L13.1776062,11.0414141 L13.1969112,11.0030303 L13.1969112,9.17979798 L8.91119691,9.17979798 C8.9369305,9.58921919 8.94980695,10.8622768 8.94980695,12.9989899 C8.94980695,15.1356838 8.9369305,18.1360141 8.91119691,22 Z" id="path-7"></path>
        <path d="M21.890625,0 L2.109375,0 C0.94771875,0 0,0.9466875 0,2.109375 L0,16.171875 C0,17.330625 0.9435,18.28125 2.109375,18.28125 L21.890625,18.28125 C23.049375,18.28125 24,17.33775 24,16.171875 L24,2.109375 C24,0.950625 23.0565,0 21.890625,0 Z M21.5993437,1.40625 L12.0447187,10.9609219 L2.40745312,1.40625 L21.5993437,1.40625 Z M1.40625,15.8806875 L1.40625,2.39385937 L8.17870312,9.10823437 L1.40625,15.8806875 Z M2.40060938,16.875 L9.17732813,10.0982812 L11.551875,12.4524375 C11.82675,12.7249688 12.2703281,12.7240781 12.5440781,12.4502812 L14.859375,10.1349844 L21.5993906,16.875 L2.40060938,16.875 Z M22.59375,15.8806406 L15.8537344,9.140625 L22.59375,2.4005625 L22.59375,15.8806406 Z" id="path-9"></path>
    </defs>
    <g id="Playground" stroke="none" stroke-width="1" fill="none" fill-rule="evenodd">
        <g id="Icons" transform="translate(-183.000000, -213.000000)">
            <g id="Icons-Wrap" transform="translate(183.000000, 213.000000)">
                <g id="linkedin-icon-1" transform="translate(136.000000, 0.000000)">
                    <g id="C/Frame" fill="#FFFFFF" fill-opacity="0.01">
                        <rect id="Rectangle" x="0" y="0" width="24" height="24"></rect>
                    </g>
                    <mask id="mask-2" fill="white">
                        <use xlink:href="#path-1"></use>
                    </mask>
                    <use id="Mask" fill="#000000" fill-rule="nonzero" xlink:href="#path-1"></use>
                    <g id="C/White" mask="url(#mask-2)" fill="#FFFFFF">
                        <rect id="Rectangle" x="0" y="0" width="24" height="24"></rect>
                    </g>
                </g>
                <g id="linkedin-icon-1" transform="translate(68.000000, 0.000000)">
                    <g id="C/Frame" fill="#FFFFFF" fill-opacity="0.01">
                        <rect id="Rectangle" x="0" y="0" width="24" height="24"></rect>
                    </g>
                    <mask id="mask-4" fill="white">
                        <use xlink:href="#path-3"></use>
                    </mask>
                    <use id="Mask" fill="#000000" fill-rule="nonzero" xlink:href="#path-3"></use>
                    <g id="C/White" mask="url(#mask-4)" fill="#FFFFFF">
                        <rect id="Rectangle" x="0" y="0" width="24" height="24"></rect>
                    </g>
                </g>
                <g id="ic/footer/dribbble" transform="translate(102.000000, 0.000000)">
                    <g id="C/Frame" fill="#FFFFFF" fill-opacity="0.01">
                        <rect id="Rectangle" x="0" y="0" width="24" height="24"></rect>
                    </g>
                    <mask id="mask-6" fill="white">
                        <use xlink:href="#path-5"></use>
                    </mask>
                    <use id="dribbble-ball-mark" fill="#3D3E3C" xlink:href="#path-5"></use>
                    <g id="C/White" mask="url(#mask-6)" fill="#FFFFFF">
                        <rect id="Rectangle" x="0" y="0" width="24" height="24"></rect>
                    </g>
                </g>
                <g id="ic-linkedin" transform="translate(34.000000, 0.000000)">
                    <g id="C/Frame" fill="#FFFFFF" fill-opacity="0.01">
                        <rect id="Rectangle" x="0" y="0" width="24" height="24"></rect>
                    </g>
                    <mask id="mask-8" fill="white">
                        <use xlink:href="#path-7"></use>
                    </mask>
                    <use id="Mask" fill="#000000" fill-rule="nonzero" xlink:href="#path-7"></use>
                    <g id="C/White" mask="url(#mask-8)" fill="#FFFFFF">
                        <rect id="Rectangle" x="0" y="0" width="24" height="24"></rect>
                    </g>
                </g>
                <g id="mail">
                    <g id="C/Frame" fill="#FFFFFF" fill-opacity="0.01">
                        <rect id="Rectangle" x="0" y="0" width="24" height="24"></rect>
                    </g>
                    <g id="Group" transform="translate(0.000000, 3.000000)">
                        <mask id="mask-10" fill="white">
                            <use xlink:href="#path-9"></use>
                        </mask>
                        <use id="Mask" fill="#FFFFFF" fill-rule="nonzero" xlink:href="#path-9"></use>
                        <g id="C/White" mask="url(#mask-10)" fill="#FFFFFF">
                            <g transform="translate(0.000000, -3.000000)" id="Rectangle">
                                <rect x="0" y="0" width="24" height="24"></rect>
                            </g>
                        </g>
                    </g>
                </g>
            </g>
        </g>
    </g>
</svg>