<svg xmlns="http://www.w3.org/2000/svg" width="56" height="65" viewBox="0 0 56 65">
    <g fill="none" fill-rule="evenodd">
        <g>
            <g>
                <path fill="#2C59E8" stroke="#FFF" stroke-width="2" d="M12.49 19.037c-2.392-.229-7.806-.639-11.244 7.957-.721 1.86-1.14 4.297-1.227 7.474-.227 7.198 1.58 12.934 5.646 17.92-.658.77-1.005 1.757-.973 2.77.074 1.482.988 2.933 2.93 4.525 1.335 1.1 3.61 1.97 6.114 2.537 3.85.873 8.243 1.033 10.58.258 3.759-1.262 5.618-3.876 4.817-6.71 1.758-.996 3.463-2.08 5.109-3.251l.057-.039c2.375-1.621 4.823-3.292 6.104-3.169.402.041 9.561.91 12.409-2.46.403-.482.677-1.059.799-1.676.12-.617.084-1.255-.106-1.854-1.03-3.837-2.882-6.38-5.513-7.54-3.206-1.414-7.474-.786-13.075 1.913-.712-6.032 1.506-12.467 3.311-17.702l.063-.183c.657-1.917 1.279-3.728 1.673-5.302 1.234-4.935.097-9.603-3.05-12.43C34.884.243 32.38-.452 30.372.294c-1.662.61-2.741 2.103-3.026 4.203-.49 3.797-1.174 7.567-2.047 11.295l-.008.036c-5.891-2.164-10.611 0-12.8 3.207z" transform="translate(-295 -851) translate(296 852)"/>
                <path fill="#FFF" fill-rule="nonzero" d="M9.123 40.919c-.118-.034-.242-.043-.364-.029-.244.034-.466.162-.616.358-.15.196-.216.444-.185.689.064.532.1.997.137 1.493.16 2.336.578 4.647 1.247 6.891.044.164.133.313.255.431.123.118.276.2.442.237.149.033.303.03.45-.009.238-.068.438-.227.559-.443.12-.215.152-.47.086-.708-.955-3.48-1.074-4.97-1.199-6.524l-.002-.026c-.033-.495-.072-1.003-.14-1.567-.013-.122-.05-.24-.11-.348-.059-.108-.139-.203-.235-.279-.096-.076-.206-.133-.325-.166zM15.15 38.517c.122.009.242.041.351.096.11.055.208.131.288.224.08.093.141.2.18.317.038.116.054.239.045.361-.045.618-.096 1.21-.146 1.785v.001c-.027.299-.052.593-.076.885-.313 2.902-.44 5.821-.382 8.74.002.246-.094.484-.266.66-.172.177-.407.278-.654.282-.074.002-.148-.006-.22-.023-.205-.046-.388-.159-.52-.321s-.207-.364-.21-.573c-.057-2.986.072-5.973.388-8.942l.001-.011c.079-.835.16-1.7.214-2.627.01-.122.043-.241.1-.35.055-.11.132-.207.226-.286.094-.08.202-.14.319-.177.117-.037.24-.051.362-.04zM20.528 43.411c-.21.134-.357.345-.411.588l-.35 1.544c-.513 2.034-.889 4.1-1.127 6.184-.026.229.033.46.166.648s.33.32.555.371l.099.023c.246.029.494-.042.688-.195.195-.154.32-.379.35-.625.23-2.016.595-4.014 1.091-5.981l.358-1.58c.05-.241.003-.492-.13-.698-.134-.206-.343-.351-.583-.405-.243-.053-.497-.007-.706.126z" transform="translate(-295 -851) translate(296 852)"/>
                <path fill="#FFF" d="M12.49 19.037c-2.392-.229-7.806-.639-11.244 7.957-.721 1.86-1.14 4.297-1.227 7.474-.227 7.198 1.58 12.934 5.646 17.92-.658.77-1.005 1.757-.973 2.77.074 1.482.988 2.933 2.93 4.525 1.335 1.1 3.61 1.97 6.114 2.537 3.85.873 8.243 1.033 10.58.258 3.759-1.262 5.618-3.876 4.817-6.71 1.758-.996 3.463-2.08 5.109-3.251l.057-.039c2.375-1.621 4.823-3.292 6.104-3.169.402.041 9.561.91 12.409-2.46.403-.482.677-1.059.799-1.676.12-.617.084-1.255-.106-1.854-1.03-3.837-2.882-6.38-5.513-7.54-3.206-1.414-7.474-.786-13.075 1.913-.712-6.032 1.506-12.467 3.311-17.702l.063-.183c.657-1.917 1.279-3.728 1.673-5.302 1.234-4.935.097-9.603-3.05-12.43C34.884.243 32.38-.452 30.372.294c-1.662.61-2.741 2.103-3.026 4.203-.49 3.797-1.174 7.567-2.047 11.295l-.008.036c-5.891-2.164-10.611 0-12.8 3.207zM8.835 58.264c-1.472-1.243-2.214-2.287-2.26-3.199v-.004c-.01-.457.133-.906.405-1.274 1.714 1.41 4.515 2.428 7.41 3.085 3.328.754 6.797 1.027 8.843.904 1.451-.132 2.868-.513 4.19-1.127.306 1.981-1.642 3.397-3.69 4.084-3.293 1.087-12.016-.066-14.898-2.469zm-1.196-6.438c-4.145-4.77-5.977-10.267-5.763-17.302l.001-.004c.093-2.95.458-5.185 1.086-6.838 2.668-6.687 6.329-7.008 8.682-6.858-.245.573-.494 1.184-.738 1.783-.625 1.531-1.22 2.986-1.624 3.556 1.682-1.16 3.27-3.72 4.69-6.007l.036-.059c1.79-2.649 5.79-4.397 10.858-2.442-.876 3.589-2.337 8.07-3.845 10.319 3.418-2.837 4.778-6.209 5.825-10.657 1.002-4.147 1.777-8.345 2.322-12.575.19-1.4.82-2.332 1.816-2.697 1.343-.49 3.17.07 4.668 1.415 2.623 2.36 3.553 6.317 2.485 10.588-.39 1.546-1.02 3.383-1.692 5.327l-.036.107c-1.975 5.792-4.423 12.968-3.132 19.79.027.143.087.278.176.393.089.116.203.209.334.272.13.064.275.096.42.094.145-.001.289-.037.418-.104 4.887-2.53 8.645-3.462 11.43-2.83.408.09.806.22 1.19.388 2.114.932 3.575 2.998 4.463 6.312.114.308.144.642.088.966-.056.324-.196.628-.407.88-1.64 1.935-7.488 2.136-10.791 1.81-1.966-.19-4.355 1.448-7.379 3.523l-.025.017c-3.2 2.199-6.83 4.687-10.081 4.906-4.472.29-13.184-1.416-15.475-4.073z" transform="translate(-295 -851) translate(296 852)"/>
            </g>
        </g>
    </g>
</svg>
