<?xml version="1.0" encoding="utf-8"?>
<!-- Generator: Adobe Illustrator 15.0.0, SVG Export Plug-In . SVG Version: 6.00 Build 0)  -->
<!DOCTYPE svg PUBLIC "-//W3C//DTD SVG 1.1//EN" "http://www.w3.org/Graphics/SVG/1.1/DTD/svg11.dtd">
<svg version="1.1" xmlns="http://www.w3.org/2000/svg" xmlns:xlink="http://www.w3.org/1999/xlink" x="0px" y="0px" width="800px"
	 height="300px" viewBox="0 0 800 300" enable-background="new 0 0 800 300" xml:space="preserve">
<g id="Layer_2">
	<rect fill="#FFFFFF" width="800" height="300"/>
</g>
<g id="Layer_1">
	<g>
		<ellipse fill="#A57988" cx="306.344" cy="199.391" rx="44.25" ry="6.486"/>
		<path fill="#D694A7" d="M273.214,150.181c3.807,0.787,5.922,2.163,2.251,4.704c-3.012,2.085-6.995,1.552-10.41,1.719
			c-5.495,0.268-10.986,0.016-16.424-0.42c-6.122-0.491-14.408-1.212-19.224-4.85c-3.331-2.515-2.024-7.809,1.314-9.891
			c5.077-3.167,11.444-0.154,15.935,2.015c3.975,1.919,7.906,4.055,12.342,5.086C263.625,149.619,268.553,149.219,273.214,150.181z"
			/>
		<g>
			<circle fill="#F2638B" cx="339.281" cy="149.229" r="6.5"/>
			<path fill="#F7AABD" d="M264.064,126.679c-0.014,0.004-0.026,0.008-0.039,0.012c0.647-0.16,4.378,23.157,4.371,25.342
				c-0.046,15.095,11.878,30.782,27.907,31.47c7.057,0.303,13.979-1.49,20.7-3.436c6.046-1.753,12.23-3.446,17.67-6.688
				c6.644-3.959,10.714-10.774,7.417-18.307c-3.11-7.102-11.007-11.688-17.653-15.143c-4.926-2.562-11.009-4.766-14.17-9.557
				c-1.832-2.79-4.357-10.84-2.53-13.867c-4.756-1.377-11.807,2.511-16.491,3.61C282.211,122.235,272.958,124.039,264.064,126.679z"
				/>
		</g>
		<path fill="#F7AABD" d="M254.299,79.125c-0.002-0.005-15.041-48.238-3.751-55.556c0,0,14.864-14.608,15.733,52.129
			c0,0,21.595-4.938,27.59,1.515c0,0,1.761-60.919,16.944-52.372c0,0,9.762-0.145-4.83,54.854
			c3.529,11.887,9.658,27.855,5.31,39.533c0,0-5.845,15.557-32.199,12.293c-7.643-0.943-16.736-0.106-23.313-4.84
			c-10.704-7.696-6.713-27.393-3.44-37.946C253.213,85.931,255.132,82.12,254.299,79.125z"/>
		<path fill="#F2638B" d="M298.838,74.569c0,0-2.096-31.476,4.919-33.529C303.757,41.04,312.814,37.853,298.838,74.569z"/>
		<path fill="#F2638B" d="M259.448,75.583c0,0-13.009-28.741-7.155-33.123C252.292,42.46,259.651,36.298,259.448,75.583z"/>
		<path fill="#FEDDC3" d="M306.113,104.621c0.023,12.819-11.618,23.237-26.006,23.265c-14.383,0.024-26.064-10.348-26.087-23.17
			c-0.025-12.821,11.617-23.236,26.005-23.262C294.409,81.428,306.088,91.801,306.113,104.621z"/>
		<circle fill="#FFFFFF" cx="266.035" cy="96.801" r="6.114"/>
		<circle fill="#FFFFFF" cx="292.308" cy="96.752" r="6.115"/>
		<circle cx="266.034" cy="96.801" r="1.584"/>
		<circle cx="292.309" cy="96.753" r="1.585"/>
		<path d="M280.141,101.162c0.001,0.874-1.149,1.585-2.574,1.588c-1.422,0.003-2.577-0.706-2.577-1.581
			c-0.003-0.872,1.149-1.587,2.573-1.59C278.984,99.578,280.14,100.285,280.141,101.162z"/>
		<path d="M279.634,120.871c0.835-0.269,1.771,0.331,2.093,1.337c0.32,1.004-0.094,2.035-0.929,2.303
			c-0.83,0.267-1.769-0.332-2.092-1.337C278.385,122.169,278.799,121.138,279.634,120.871z"/>
		<path fill="none" stroke="#000000" stroke-width="0.5" stroke-miterlimit="10" d="M277.323,101.543c0,0-3.673,12.014,2.691,20.265
			"/>
		<circle fill="#F29CB6" cx="260.666" cy="110.002" r="4"/>
		<circle fill="#F29CB6" cx="296.154" cy="109.006" r="4"/>
		
			<ellipse transform="matrix(-0.98 0.1991 -0.1991 -0.98 672.0146 182.3458)" fill="#F2638B" cx="326.838" cy="124.964" rx="0.25" ry="0"/>
		<path fill="#F7AABD" d="M328.844,176.32c0,0,5.5-14.75,9-8c0,0,1.5,9.5,0.75,14.5s0,16.5-5.25,16.75
			S328.594,196.07,328.844,176.32z"/>
		<path fill="#F7AABD" d="M287.343,178.07c0,0,8-5,7.75,3c0,0-2.5,14.75-6.25,17.25s-8.5,5-8.75,1.5S282.593,184.07,287.343,178.07z
			"/>
		<g>
			<path fill="#806F61" d="M249.628,134.728c0,0,7.384,7.826,3.696,11.33c0,0-1.131,1.967-2.188-1.148
				c-0.951-2.802-1.478-6.348-3.174-6.754C246.267,137.75,249.628,134.728,249.628,134.728z"/>
			<path fill="#806F61" d="M243.764,140.775c0.083,0.289,1.705,2.421-0.367,6.422c0,0,1.226,4.454,3.439,0.019
				c0.738-1.479,2.539-7.515-0.291-8.393l-3.159,1.058"/>
			<path fill="#806F61" d="M225.29,151.26c0,0,0.937,3.043-1.245,5.743s2.465,3.407,3.273,1.386c0.808-2.021,2.113-5.4,0.135-8.558
				C225.475,146.674,225.29,151.26,225.29,151.26z"/>
			<path fill="#806F61" d="M228.304,151.443c0,0,2.895,2.437,2.863,4.174c-0.031,1.738,2.491,2.475,2.549-0.196
				c0.06-2.67-3.393-6.112-3.393-6.112L228.304,151.443z"/>
			<g>
				<path fill="#806F61" d="M246.025,113.801c0,0-1.813-4.907-1.59-6.732c0,0,0.399-2.857,2.383-0.505c0,0,0.941,1.21,0.968,6.227
					c0,0,3.664-4.402,7.304-4.519c2.789-0.088,4.711,0.949,6.116,3.548c1.402,2.592-0.447,5.078-2.194,6.667
					c-2.791,2.542-6.398,4.305-9.556,6.339c-0.097,0.063-2.203,1.437-2.201,1.439C247.252,126.263,241.928,117.117,246.025,113.801z
					"/>
				
					<ellipse transform="matrix(0.8344 -0.5511 0.5511 0.8344 -22.587 156.9712)" fill="#FFFFFF" cx="249.958" cy="116.078" rx="1.915" ry="2.045"/>
				<ellipse transform="matrix(0.8345 -0.551 0.551 0.8345 -22.5946 156.9222)" cx="249.958" cy="116.078" rx="0.603" ry="0.642"/>
				
					<ellipse transform="matrix(0.8346 -0.5509 0.5509 0.8346 -19.0446 160.3082)" cx="257.391" cy="111.863" rx="0.537" ry="0.573"/>
				<ellipse transform="matrix(0.834 -0.5518 0.5518 0.834 -17.9258 161.2866)" cx="259.091" cy="110.436" rx="0.536" ry="0.573"/>
				<polyline fill="none" stroke="#000000" stroke-miterlimit="10" points="258.682,111.545 259.681,113.059 259.735,113.14 
					259.027,114.179 				"/>
				<line fill="none" stroke="#000000" stroke-miterlimit="10" x1="259.685" y1="113.221" x2="260.921" y2="113.106"/>
				<path fill="#C1B2A5" d="M207.186,128.77c0,0-5.11-9.9,7.548-14.749c0,0,0.563-4.341,5.853-3.256c0,0,3.666-9.593,11.398-2.645
					c0,0,4.334-9.882,10.135,0.631c0,0,7.177,2.432,3.266,7.761c0,0,4.212,1.186,0.835,4.942c0,0,9.333-0.365,4.66,9.435
					c0,0,3.263,3.644-1.407,5.659c0,0,1.735,5.872-5.135,6.289c0,0-1.438,11.021-11.697,5.438c0,0-8.125,9.333-13.914-0.729
					c0,0-5.788,4.433-8.219-3.575c0,0-5.75-0.474-3.486-4.409C207.022,139.561,197.348,133.131,207.186,128.77z"/>
				<path fill="#806F61" d="M241.923,113.001c0,0-5.962,0.274-6.168,4.073C235.755,117.074,240.334,120.763,241.923,113.001z"/>
			</g>
		</g>
		<path fill="#D694A7" d="M292.747,137.105c0.294,0.122,0.575,0.26,0.84,0.414c3.473,2.019,0.563,6.614-2.203,8.355
			c-1.979,1.246-4.383,1.042-6.611,0.999c-8.191-0.158-15.681,0.472-23.638-2.021c-7.608-2.383-14.331-6.907-19.474-12.992
			c-2.577-3.051-4.7-6.409-6.513-9.959c-1.491-2.918-3.586-6.232-3.839-9.576c-0.376-4.972,5.149-6.511,8.082-2.998
			c2.856,3.421,2.932,8.64,5.314,12.37c4.141,6.481,10.6,11.151,17.796,13.726c7.834,2.803,14.698,1.222,22.713,0.8
			C287.495,136.104,290.5,136.169,292.747,137.105z"/>
		<g>
			<polyline fill="none" stroke="#3D3537" stroke-width="3" stroke-miterlimit="10" points="279.267,281.901 293.374,263.685 
				307.901,282.443 			"/>
			<g>
				<path fill="#3D3537" d="M317.755,265.421c0,0.721-0.358,1.305-0.8,1.305h-45.055c-0.441,0-0.8-0.584-0.8-1.305v-35.143
					c0-0.721,0.358-1.306,0.8-1.306h45.055c0.441,0,0.8,0.585,0.8,1.306V265.421z"/>
				<path fill="#685B5E" d="M309.591,261.949c0,0.578-0.275,1.048-0.615,1.048h-34.621c-0.339,0-0.615-0.47-0.615-1.048V233.75
					c0-0.579,0.276-1.048,0.615-1.048h34.621c0.34,0,0.615,0.469,0.615,1.048V261.949z"/>
			</g>
			<circle fill="#685B5E" cx="313.151" cy="247.896" r="2.762"/>
			
				<line fill="none" stroke="#3D3537" stroke-width="3" stroke-miterlimit="10" x1="293.374" y1="263.685" x2="293.374" y2="279.895"/>
		</g>
	</g>
	<g>
		<ellipse fill="#A57988" cx="444.1" cy="272.156" rx="44.25" ry="6.486"/>
		<path fill="none" stroke="#070607" stroke-miterlimit="10" d="M380.515,96.338c0,0,11.667,95,4.334,103.667"/>
		<path fill="#D694A7" d="M421.18,195.53c0.273,0.009,0.553,0.041,0.832,0.1c2.807,0.585,2.703,3.441,1.506,5.458
			c-1.824,3.073-4.498,5.833-7.766,7.35c-6.031,2.801-12.658,1.861-17.236-2.1c-2.773-2.401-6.191-4.156-8.32-7.237
			c-1.928-2.793-2.404-6.807-5.43-8.763c-1.301-0.841-2.004-1.278-2.567-2.913c-0.537-1.563,0.518-3.206,1.801-4.048
			c3.52-2.309,6.438,1.06,7.266,3.711c2.02,6.461,7.412,12.985,13.992,14.304c3.146,0.631,6.088-1.077,8.691-2.618
			C416.113,197.493,418.527,195.441,421.18,195.53z"/>
		<ellipse fill="#F2638B" cx="472.351" cy="230.938" rx="5.333" ry="5.561"/>
		<path fill="#F7AABD" d="M425.184,191.318c0,0-9.834-7.82-8.5,63.603c0,0-0.002,9.905-2.168,10.948
			c-2.166,1.042-5.834,4.864-4.5,6.081s14.168,2.434,16.668-0.347c2.5-2.781-4.334-26.239-2.168-27.109
			c2.168-0.869,34-1.391,37.5,2.954s1.834,21.373,0.5,22.765c-1.332,1.391-5.332,3.997-3.832,4.866
			c1.5,0.868,15.666-1.043,15.666-1.043s4.668-6.083-3.332-27.283c0,0,3.166-47.268-10.668-58.736
			C446.518,176.547,425.184,191.318,425.184,191.318z"/>
		<path fill="#F7AABD" d="M412.803,139.304c-0.002-0.005-13.182-48.778-1.619-55.658c0,0,15.414-14.028,13.725,52.693
			c0,0,21.768-4.107,27.512,2.571c0,0,4.094-60.808,18.938-51.686c0,0,9.762,0.23-6.928,54.63
			c3.072,12.014,8.584,28.205,3.791,39.708c0,0-6.436,15.321-32.646,11.05c-7.602-1.235-16.721-0.747-23.111-5.729
			c-10.402-8.102-5.656-27.631-1.982-38.051C411.457,146.063,413.521,142.329,412.803,139.304z"/>
		<path fill="#F2638B" d="M457.551,137.571c0,0,0.902-31.533,8.08-32.911C465.631,104.66,474.949,102.347,457.551,137.571z"/>
		<path fill="#F2638B" d="M418.242,134.841c0,0-10.223-29.847-3.979-33.653C414.264,101.188,422.174,95.752,418.242,134.841z"/>
		<path fill="#FEDDC3" d="M461.939,168.178c-1.193,12.764-13.771,22.029-28.096,20.69c-14.32-1.341-24.965-12.775-23.77-25.542
			c1.191-12.766,13.77-22.028,28.096-20.688C452.49,143.978,463.133,155.412,461.939,168.178z"/>
		<circle fill="#FFFFFF" cx="422.785" cy="156.588" r="6.114"/>
		<circle fill="#FFFFFF" cx="448.944" cy="159.034" r="6.115"/>
		<circle cx="422.785" cy="156.588" r="1.585"/>
		<circle cx="448.945" cy="159.035" r="1.585"/>
		<path d="M436.414,162.268c-0.082,0.871-1.295,1.47-2.713,1.337c-1.416-0.132-2.498-0.947-2.416-1.818
			c0.08-0.868,1.295-1.471,2.713-1.338C435.412,160.581,436.496,161.396,436.414,162.268z"/>
		<path d="M434.039,181.84c0.855-0.188,1.73,0.498,1.955,1.53c0.225,1.029-0.285,2.017-1.143,2.203
			c-0.852,0.187-1.729-0.498-1.955-1.528C432.672,183.014,433.182,182.026,434.039,181.84z"/>
		<path fill="none" stroke="#000000" stroke-width="0.5" stroke-miterlimit="10" d="M433.572,162.38c0,0-4.797,11.61,0.756,20.429"
			/>
		<circle fill="#F29CB6" cx="416.187" cy="169.22" r="4.001"/>
		<circle fill="#F29CB6" cx="451.61" cy="171.598" r="4.001"/>
		<path fill="#D694A7" d="M453.516,196.009c0,0,2.102-5.121,6.305-0.269c3.658,4.228,4.48,9.989,5.053,15.202
			c0.648,5.905,1.777,12.059,0.375,17.937c-0.471,1.966-3.176,7.129-5.705,7.209c-4.107,0.131-2.908-8.635-2.637-10.837
			c0.814-6.638,1.506-13.452,0.521-20.103C456.951,201.935,456.021,198.44,453.516,196.009z"/>
		<g>
			<polygon fill="#BC1944" points="380.189,91.632 382.525,94.606 384.863,97.582 380.509,97.808 376.158,98.034 378.173,94.833 			
				"/>
			
				<ellipse transform="matrix(0.9987 -0.0519 0.0519 0.9987 -2.5753 19.7385)" fill="#EC1847" cx="378.514" cy="59.423" rx="29.907" ry="34.75"/>
		</g>
	</g>
	<g>
		<ellipse fill="#A57988" cx="708.798" cy="264.955" rx="54.716" ry="5.943"/>
		<path fill="#F7AABD" d="M686.561,167.066c0.879,0.308-1.117,11.851-1.271,12.917c-1.072,7.438-3.92,14.07-5.518,21.312
			c-1.509,6.829-3.388,13.627-3.77,20.757c-0.377,7.037,1.219,14.071,2.91,20.702c0.869,3.411,2.477,6.655,2.434,10.354
			c-0.04,3.363-3.578,7.508-1.822,10.66c1.389,2.494,11.241,4.404,12.957,2.73c3.604-3.514-1.627-10.929,0.954-14.502
			c2.12-2.925,9.87-1.913,13.052-1.995c6.26-0.159,12.48,0.723,18.633,1.779c3.084,0.529,3.392,5.773,3.363,8.854
			c-0.022,2.433-1.195,5.686,0.701,7.328c1.844,1.599,5.594,0.701,7.719,0.634c2.748-0.089,2.87-4.397,2.697-7.2
			c-0.068-1.142-1.721-10.374-1.473-10.572c2.213-1.753,3.197-6.248,3.934-9.167c3.049-12.09,0.935-24.612-2.213-36.313
			c-3.369-12.521-7.844-24.533-12.189-36.532c-4.664,0.02-9.344-0.376-14.005-0.573c-7.357-0.313-14.715-0.636-22.072-0.954
			C689.906,167.212,688.232,167.135,686.561,167.066z"/>
		<path fill="#DDDDDD" d="M744.967,227.913c0,1.279-1.039,2.318-2.319,2.318h-58.425c-1.28,0-2.319-1.039-2.319-2.318l0,0
			c0-1.282,1.039-2.318,2.319-2.318h58.425C743.928,225.595,744.967,226.631,744.967,227.913L744.967,227.913z"/>
		<path fill="#F29CB6" d="M727.857,174.373c1.363-0.113,2.747-0.023,4.083,0.282c3.331,0.767,6.337,2.611,9.06,4.428
			c5.534,3.689,9.725,8.455,12.555,14.051c1.539,3.05,2.701,6.388,3.344,9.677c1.313,6.752-0.272,13.239-3.847,19.18
			c-1.671,2.775-6.028,10.713-10.831,9.184c-7.235-2.313,3.461-19.356,4.837-22.814c3.171-7.964-0.636-15.183-7.276-20.701
			c-3.22-2.676-7.063-4.697-11.001-6.412c-1.55-0.674-10.239-3.084-6.929-5.361C723.436,174.797,725.901,174.535,727.857,174.373z"
			/>
		<path fill="#F29CB6" d="M684.511,173.702c-1.253-0.046-2.331,0.028-2.888,0.212c-2.82,0.926-5.506,3.673-7.877,5.381
			c-8.572,6.173-15.674,15.389-14.346,26.296c1.18,9.665,8.504,21.431,17.942,25.437c3.048,1.295,8.28,1.257,9.588-2.282
			c1.958-5.293-5.142-9.042-8.472-11.381c-6.52-4.58-11.691-12.201-9.711-20.347c1.996-8.194,10.357-11.97,17.385-15.368
			c1.421-0.686,6.092-3.366,5.689-5.288C691.456,174.627,687.489,173.814,684.511,173.702z"/>
		<path fill-rule="evenodd" clip-rule="evenodd" fill="#0E7F40" d="M710.848,197.867c-0.223-1.322,0.029-2.626,0.423-3.579
			c0.405-0.985,0.993-1.81,1.646-2.527c1.139-1.254,2.548-2.32,4.575-2.729c0.144-0.029,0.298-0.058,0.45-0.077
			c0.163-0.02,0.354-0.072,0.497-0.066c0.066,0.001,0.037,0.019,0.047,0.086c0.044,0.258,0.039,0.596,0.039,0.881
			c0,2.365-0.893,4.051-2.019,5.303c-0.675,0.75-1.425,1.407-2.308,1.877C713.256,197.536,712.31,197.854,710.848,197.867z"/>
		<path fill-rule="evenodd" clip-rule="evenodd" fill="#EC1847" d="M726.979,215.806c-0.842,2.601-2.135,4.782-3.733,6.663
			c-0.776,0.913-1.638,1.833-2.68,2.508c-0.517,0.334-1.134,0.643-1.838,0.755c-0.778,0.127-1.544-0.046-2.239-0.248
			c-0.689-0.199-1.293-0.444-1.916-0.679c-0.628-0.236-1.248-0.472-2.048-0.546c-0.835-0.077-1.658-0.005-2.364,0.152
			c-0.707,0.158-1.352,0.372-1.963,0.623c-0.895,0.367-1.839,0.812-3.139,0.737c-1.187-0.068-2.059-0.536-2.796-1.093
			c-1.471-1.105-2.547-2.601-3.532-4.239c-1.308-2.173-2.395-4.527-3.035-7.343c-0.319-1.406-0.525-2.939-0.525-4.651
			c0-3.413,1.018-5.939,2.584-7.782c1.481-1.745,3.538-2.998,6.49-3.236c1.354-0.108,2.696,0.054,3.703,0.393
			c0.867,0.291,1.627,0.714,2.51,0.977c0.49,0.146,1.017,0.18,1.531,0.095c0.494-0.079,0.929-0.244,1.34-0.4
			c0.882-0.336,1.678-0.66,2.623-0.862c0.936-0.198,2.107-0.297,3.216-0.21c3.091,0.24,5.099,1.563,6.644,3.378
			C729.049,204.536,728.51,211.582,726.979,215.806z"/>
		<g>
			<path fill="#F7AABD" d="M676.976,117.241c-0.001-0.002-20.542-53.165-8.771-62.224c0,0,15.081-17.517,21.627,57.496
				c0,0,23.272-7.13,30.394-0.308c0,0-3.178-68.664,14.189-60.156c0,0,10.697-0.875-0.699,62.063
				c4.872,13.115,12.931,30.632,9.141,44.087c0,0-5.107,17.929-34.288,16.181c-8.464-0.507-18.366,1.1-25.978-3.743
				c-12.385-7.881-9.657-30.329-6.952-42.438C676.354,124.98,678.143,120.55,676.976,117.241z"/>
			<path fill="#F2638B" d="M725.661,110.109c0,0-3.026-37.692,4.646-40.212C730.308,69.897,740.193,65.998,725.661,110.109z"/>
			<path fill="#F2638B" d="M682.357,111.606c0,0-14.924-32.28-8.58-37.274C673.777,74.332,681.74,67.318,682.357,111.606z"/>
			<path fill="#FEDDC3" d="M737.084,144.342c0.305,14.451-12.277,26.3-28.1,26.459c-15.819,0.16-28.89-11.428-29.19-25.881
				c-0.304-14.454,12.28-26.3,28.103-26.46C723.716,118.299,736.783,129.888,737.084,144.342z"/>
			<path fill="#FFFFFF" d="M701.313,137.423c0.081,3.808-2.865,6.926-6.581,6.962c-3.714,0.037-6.79-3.018-6.87-6.825
				c-0.077-3.808,2.868-6.924,6.585-6.962C698.159,130.56,701.232,133.616,701.313,137.423z"/>
			<path fill="#FFFFFF" d="M730.206,137.132c0.08,3.806-2.864,6.925-6.579,6.962s-6.792-3.02-6.871-6.826
				c-0.078-3.808,2.869-6.924,6.584-6.962C727.055,130.268,730.127,133.324,730.206,137.132z"/>
			<path d="M696.332,137.473c0.019,0.988-0.743,1.794-1.707,1.805c-0.961,0.011-1.76-0.781-1.781-1.769s0.746-1.795,1.707-1.804
				C695.514,135.695,696.311,136.487,696.332,137.473z"/>
			<path d="M725.227,137.182c0.021,0.987-0.744,1.795-1.707,1.805c-0.961,0.01-1.759-0.784-1.781-1.769
				c-0.02-0.987,0.744-1.797,1.706-1.806C724.408,135.402,725.205,136.195,725.227,137.182z"/>
			<path d="M710.295,145.505c0.021,0.988-1.23,1.8-2.795,1.817c-1.565,0.015-2.852-0.773-2.871-1.76s1.232-1.799,2.797-1.815
				S710.275,144.519,710.295,145.505z"/>
			<path fill="none" stroke="#000000" stroke-width="0.5" stroke-miterlimit="10" d="M707.553,146.762
				c0,0,5.595,11.643-0.248,19.078"/>
			<g>
				
					<ellipse transform="matrix(0.9988 -0.0492 0.0492 0.9988 -6.6779 34.1716)" fill="#F29CB6" cx="690.232" cy="152.625" rx="4.324" ry="4.946"/>
				
					<ellipse transform="matrix(0.9988 -0.0495 0.0495 0.9988 -6.595 36.2287)" fill="#F29CB6" cx="728.589" cy="151.345" rx="4.323" ry="4.946"/>
			</g>
			<path d="M706.457,168.297c-0.807-0.355-1.088-1.782-0.626-3.188c0.465-1.402,1.496-2.252,2.306-1.893
				c0.806,0.358,1.086,1.786,0.624,3.189C708.299,167.81,707.266,168.656,706.457,168.297z"/>
			<g>
				<path fill="#F2638B" d="M752.25,101.354"/>
			</g>
		</g>
	</g>
	<g>
		<path fill="#A57988" d="M613.756,206.229c0,5.851-20.167,10.592-45.047,10.592c-24.879,0-45.048-4.741-45.048-10.592
			c0-5.847,20.169-10.588,45.048-10.588C593.589,195.641,613.756,200.382,613.756,206.229z"/>
		<path fill="#F7AABD" d="M546.694,145.904c0,0-28.017,50.021-3.538,63.321c24.478,13.3,48.957,1.155,52.79-4.915
			c3.833-6.072,2.947-43.371-8.259-58.117c-11.207-14.746-40.696-1.445-40.696-1.445"/>
		<path fill="#F7AABD" d="M534.511,197.677c0,0-21.038,8.145-24.432,11.877c0,0-7.127-14.931-13.235-11.198
			c0,0-7.126,7.126,14.252,25.791c0,0,12.217-22.736,26.81-19.683L534.511,197.677z"/>
		<path fill="#F7AABD" d="M587.449,208.196c0,0,22.736,4.412,35.293,22.736c0,0,10.52,11.198,19.002-15.271
			c0,0-7.464-7.124-13.233,5.77c0,0-25.789-12.218-31.56-19.682L587.449,208.196z"/>
		<g>
			<path fill="#F29CB6" d="M592.086,154.437c-1.159-2.188-3.897-3.231-4.319-0.048c-0.682,5.09,4.071,15.27-4.753,29.521
				c-2.37,3.828-5.18,8.933-5.222,13.564c-0.023,2.851,1.476,5.067,4.523,4.155c2.961-0.886,6.128-2.766,7.935-5.303
				c2.745-3.856,3.432-8.953,3.839-13.554c0.596-6.708,0.476-13.606-0.469-20.279C593.247,159.88,593.352,156.824,592.086,154.437z"
				/>
			<path fill="#F29CB6" d="M545.766,155.508c-0.1-0.695-0.515-1.185-1.53-1.204c-2.345-0.051-3.414,1.297-4.033,3.481
				c-0.853,3.018-1.038,6.399-1.091,9.519c-0.318,18.833,2.757,34.848,10.733,33.491c1.956-0.334,4.205-1.026,4.302-3.31
				c0.085-1.989-0.878-3.8-1.765-5.514c-0.911-1.758-1.685-3.569-2.415-5.411c-2.527-6.374-4.748-12.965-5.409-19.827
				c-0.186-1.915-0.234-3.863,0.063-5.77C544.896,159.202,546.02,157.299,545.766,155.508z"/>
		</g>
		<circle fill="#F29CB6" cx="560.58" cy="226.979" r="3.51"/>
		<ellipse fill="#F29CB6" cx="557.895" cy="232.759" rx="1.652" ry="1.446"/>
		<ellipse fill="#F29CB6" cx="562.438" cy="232.759" rx="1.756" ry="1.652"/>
		<ellipse fill="#F29CB6" cx="566.154" cy="229.25" rx="1.961" ry="2.064"/>
		<circle fill="#EC1847" cx="579.295" cy="222.28" r="4.326"/>
		
			<ellipse transform="matrix(0.4681 0.8837 -0.8837 0.4681 500.7441 -386.5256)" fill="#EC1847" cx="571.449" cy="222.693" rx="2.036" ry="1.782"/>
		
			<ellipse transform="matrix(0.4682 0.8836 -0.8836 0.4682 506.4253 -386.2007)" fill="#EC1847" cx="574.07" cy="227.641" rx="2.163" ry="2.035"/>
		
			<ellipse transform="matrix(0.4681 0.8837 -0.8837 0.4681 511.4747 -390.4088)" fill="#EC1847" cx="580.038" cy="229.662" rx="2.418" ry="2.544"/>
		<circle fill="#BE2026" cx="552.053" cy="238.412" r="2.741"/>
		
			<ellipse transform="matrix(0.776 0.6307 -0.6307 0.776 274.3706 -291.4639)" fill="#BE2026" cx="547.579" cy="240.594" rx="1.29" ry="1.129"/>
		
			<ellipse transform="matrix(0.7762 0.6305 -0.6305 0.7762 276.2744 -292.636)" fill="#BE2026" cx="550.333" cy="242.831" rx="1.371" ry="1.29"/>
		
			<ellipse transform="matrix(0.7762 0.6305 -0.6305 0.7762 276.9852 -295.2162)" fill="#BE2026" cx="554.314" cy="242.534" rx="1.532" ry="1.614"/>
		<circle fill="#F29CB6" cx="501.823" cy="187.555" r="3.511"/>
		
			<ellipse transform="matrix(0.7059 0.7083 -0.7083 0.7059 280.1979 -295.3961)" fill="#F29CB6" cx="495.832" cy="189.732" rx="1.652" ry="1.445"/>
		
			<ellipse transform="matrix(0.7054 0.7088 -0.7088 0.7054 283.7581 -296.8683)" fill="#F29CB6" cx="499.038" cy="192.952" rx="1.755" ry="1.652"/>
		
			<ellipse transform="matrix(0.7055 0.7087 -0.7087 0.7055 285.3379 -300.4274)" fill="#F29CB6" cx="504.147" cy="193.108" rx="1.962" ry="2.065"/>
		<circle fill="#D694A7" cx="518.842" cy="193.969" r="4.326"/>
		
			<ellipse transform="matrix(-0.2958 0.9553 -0.9553 -0.2958 845.0116 -245.5413)" fill="#D694A7" cx="513.012" cy="188.7" rx="2.035" ry="1.781"/>
		
			<ellipse transform="matrix(-0.2961 0.9552 -0.9552 -0.2961 848.0938 -236.9367)" fill="#D694A7" cx="511.356" cy="194.048" rx="2.164" ry="2.036"/>
		
			<ellipse transform="matrix(-0.2954 0.9554 -0.9554 -0.2954 856.8173 -232.481)" fill="#D694A7" cx="514.134" cy="199.705" rx="2.418" ry="2.545"/>
		<g>
			<circle fill="#6ABD45" cx="615.266" cy="232.799" r="2.741"/>
			
				<ellipse transform="matrix(0.1006 0.9949 -0.9949 0.1006 779.1168 -399.5581)" fill="#6ABD45" cx="610.563" cy="231.167" rx="1.291" ry="1.128"/>
			
				<ellipse transform="matrix(0.1008 0.9949 -0.9949 0.1008 782.8134 -396.7767)" fill="#6ABD45" cx="610.92" cy="234.697" rx="1.37" ry="1.291"/>
			
				<ellipse transform="matrix(0.1011 0.9949 -0.9949 0.1011 787.9737 -397.4753)" fill="#6ABD45" cx="613.94" cy="237.308" rx="1.531" ry="1.613"/>
		</g>
		<circle fill="#E5E516" cx="521.429" cy="224.961" r="3.51"/>
		
			<ellipse transform="matrix(0.8439 0.5366 -0.5366 0.8439 203.1319 -241.2392)" fill="#E5E516" cx="516.061" cy="228.399" rx="1.653" ry="1.445"/>
		
			<ellipse transform="matrix(0.8438 0.5367 -0.5367 0.8438 205.0889 -242.9485)" fill="#E5E516" cx="519.893" cy="230.837" rx="1.755" ry="1.652"/>
		
			<ellipse transform="matrix(0.8437 0.5368 -0.5368 0.8437 205.4488 -245.8571)" fill="#E5E516" cx="524.913" cy="229.871" rx="1.962" ry="2.065"/>
		<circle fill="#71CEE6" cx="539.742" cy="231.042" r="4.327"/>
		
			<ellipse transform="matrix(-0.0787 0.9969 -0.9969 -0.0787 801.2939 -286.1994)" fill="#71CEE6" cx="532.9" cy="227.18" rx="2.036" ry="1.782"/>
		
			<ellipse transform="matrix(-0.0794 0.9968 -0.9968 -0.0794 806.7802 -279.5214)" fill="#71CEE6" cx="532.456" cy="232.761" rx="2.164" ry="2.036"/>
		
			<ellipse transform="matrix(-0.079 0.9969 -0.9969 -0.079 815.7014 -278.2888)" fill="#71CEE6" cx="536.407" cy="237.67" rx="2.417" ry="2.546"/>
		<circle fill="#FCD4DF" cx="508.098" cy="230.034" r="2.74"/>
		
			<ellipse transform="matrix(0.3166 0.9486 -0.9486 0.3166 561.5414 -320.4459)" fill="#FCD4DF" cx="503.152" cy="229.473" rx="1.289" ry="1.128"/>
		
			<ellipse transform="matrix(0.3161 0.9487 -0.9487 0.3161 565.7617 -319.1815)" fill="#FCD4DF" cx="504.275" cy="232.839" rx="1.37" ry="1.29"/>
		
			<ellipse transform="matrix(0.316 0.9487 -0.9487 0.316 570.0054 -321.2239)" fill="#FCD4DF" cx="507.792" cy="234.724" rx="1.531" ry="1.614"/>
		<path fill="#4053A4" d="M542.798,225.231c1.931,0.178,3.352,1.885,3.174,3.816c-0.177,1.932-1.887,3.352-3.815,3.175
			c-1.934-0.179-3.352-1.888-3.175-3.818S540.865,225.053,542.798,225.231z"/>
		
			<ellipse transform="matrix(0.0916 -0.9958 0.9958 0.0916 266.8373 756.3672)" fill="#4053A4" cx="547.987" cy="231.929" rx="1.652" ry="1.446"/>
		
			<ellipse transform="matrix(0.0918 -0.9958 0.9958 0.0918 271.6212 752.621)" fill="#4053A4" cx="548.404" cy="227.405" rx="1.755" ry="1.651"/>
		
			<ellipse transform="matrix(0.0919 -0.9958 0.9958 0.0919 272.7246 745.8071)" fill="#4053A4" cx="545.25" cy="223.383" rx="1.961" ry="2.064"/>
		<circle fill="#70C9C2" cx="592.517" cy="233.771" r="4.327"/>
		
			<ellipse transform="matrix(0.9227 -0.3854 0.3854 0.9227 -47.3723 246.9374)" fill="#70C9C2" cx="592.209" cy="241.622" rx="2.036" ry="1.781"/>
		
			<ellipse transform="matrix(0.9227 -0.3855 0.3855 0.9227 -46.1411 248.806)" fill="#70C9C2" cx="597.376" cy="239.465" rx="2.163" ry="2.035"/>
		
			<ellipse transform="matrix(0.9229 -0.3851 0.3851 0.9229 -43.7302 249.0618)" fill="#70C9C2" cx="599.936" cy="233.707" rx="2.418" ry="2.545"/>
		<circle fill="#FCD4DF" cx="599.486" cy="222.618" r="2.74"/>
		
			<ellipse transform="matrix(0.6993 -0.7148 0.7148 0.6993 18.333 498.1285)" fill="#FCD4DF" cx="601.249" cy="227.273" rx="1.29" ry="1.129"/>
		
			<ellipse transform="matrix(0.699 -0.7151 0.7151 0.699 20.9912 499.3493)" fill="#FCD4DF" cx="603.729" cy="224.737" rx="1.37" ry="1.29"/>
		
			<ellipse transform="matrix(0.6989 -0.7152 0.7152 0.6989 23.9106 498.2907)" fill="#FCD4DF" cx="603.798" cy="220.746" rx="1.531" ry="1.614"/>
		<g>
			<g>
				<path fill="#F7AABD" d="M543.147,95.053c-0.002-0.004-13.314-49.686-1.529-56.666c0,0,15.724-14.248,13.859,53.673
					c0,0,22.168-4.135,28.002,2.676c0,0,4.299-61.895,19.391-52.577c0,0,9.938,0.256-7.171,55.6
					c3.104,12.237,8.678,28.732,3.776,40.432c0,0-6.586,15.583-33.261,11.181c-7.735-1.275-17.021-0.797-23.514-5.881
					c-10.573-8.271-5.7-28.143-1.938-38.742C541.763,101.932,543.873,98.135,543.147,95.053z"/>
				<path fill="#F2638B" d="M588.706,93.386c0,0,0.986-32.101,8.297-33.487C597.003,59.899,606.495,57.563,588.706,93.386z"/>
				<path fill="#F2638B" d="M548.693,90.521c0,0-10.341-30.406-3.978-34.269C544.716,56.253,552.781,50.736,548.693,90.521z"/>
				<path fill="#FEDDC3" d="M595.622,125.201c-1.242,12.992-14.067,22.397-28.646,21.004c-14.575-1.396-25.389-13.06-24.145-26.054
					c1.239-12.993,14.065-22.396,28.646-21C586.053,100.544,596.864,112.208,595.622,125.201z"/>
				<circle fill="#FFFFFF" cx="557.228" cy="114.927" r="6.225"/>
				<circle fill="#FFFFFF" cx="583.853" cy="117.473" r="6.226"/>
				<circle cx="557.227" cy="114.927" r="1.613"/>
				<path d="M585.46,117.628c-0.085,0.886-0.872,1.536-1.76,1.453c-0.888-0.086-1.537-0.875-1.452-1.76
					c0.084-0.888,0.872-1.538,1.755-1.454C584.894,115.954,585.544,116.742,585.46,117.628z"/>
				<ellipse transform="matrix(0.9954 0.0955 -0.0955 0.9954 14.3849 -53.7138)" cx="568.232" cy="123.393" rx="2.622" ry="1.612"/>
				<path d="M567.445,138.787c0.87-0.188,1.826,0.806,2.13,2.223c0.307,1.416-0.152,2.715-1.024,2.901
					c-0.868,0.188-1.823-0.805-2.13-2.22C566.114,140.275,566.573,138.975,567.445,138.787z"/>
				<path fill="none" stroke="#000000" stroke-width="0.5" stroke-miterlimit="10" d="M568.968,123.88c0,0-6.193,8.157-1.595,15.133
					"/>
			</g>
			<circle fill="#F29CB6" cx="550.482" cy="127.773" r="4.072"/>
			<circle fill="#F29CB6" cx="586.54" cy="130.27" r="4.072"/>
			<g>
				<path fill="#F2638B" d="M570.16,30.3"/>
			</g>
		</g>
	</g>
	<g>
		<ellipse fill="#3F3731" cx="112.75" cy="274.5" rx="72.75" ry="7.9"/>
		<g>
			<path fill="#806F61" d="M152.167,238.167c3.333-2.333,42.583,16.583,24.667,22.333c0,0-6.667,0.667-10-6
				c-3.691-7.381-16-5.666-17.667-12C147.609,236.582,152.167,238.167,152.167,238.167z"/>
			<path fill="#806F61" d="M161.834,228.167c0,0,18.666-0.667,18.666,7.333c0,0,1.334,5-6.666,5s-8.334-6-16.667-4.666
				C148.834,237.167,161.834,228.167,161.834,228.167z"/>
			<path fill="#806F61" d="M61.352,236.92c0,0-6.191,3.967-13.979,4.605c-7.788,0.639-13.613,2.12-11.076,6.742
				c2.539,4.623,13.834,3.896,18.922,2.132c5.087-1.767,13.346-7.138,13.346-7.138L61.352,236.92z"/>
			<path fill="#806F61" d="M58.92,226.901c0,0-11.879,2.81-16.533-3.076c0,0-2.989-1.853-5.295-1.567
				c-4.227,0.524-7.56,4.369,4.111,12.665c0,0,12.78,6.427,24.689-3.903L58.92,226.901z"/>
			<path fill="#806F61" d="M172.834,193.834c0,0,3.332-13.334,6.666-17c0,0,5.334-5.667,6.334,2.333c0,0,0.332,4-7.334,15
				c0,0,15.328-4.332,23.996,0.664c6.646,3.832,9.529,8.872,8.805,16.579c-0.723,7.682-8.867,10.442-15.389,11.395
				c-10.428,1.524-21.561,0.176-32.06,0.063c-0.321-0.003-7.353-0.039-7.353-0.033C156.5,222.829,158.168,195.167,172.834,193.834z"
				/>
			<circle fill="#FFFFFF" cx="178.5" cy="204.482" r="5.352"/>
			<circle cx="178.5" cy="204.482" r="1.685"/>
			<circle cx="202.334" cy="206" r="1.5"/>
			<circle cx="208.5" cy="205.334" r="1.5"/>
			<polyline fill="none" stroke="#000000" stroke-miterlimit="10" points="205.834,207.167 205.834,211.918 205.834,212.167 
				202.584,213.416 			"/>
			<line fill="none" stroke="#000000" stroke-miterlimit="10" x1="205.594" y1="212.275" x2="208.656" y2="213.809"/>
			<path fill="#C1B2A5" d="M59.167,170.5c0,0,3.333-29,40.333-21.333c0,0,8-8.667,18.667,1.333c0,0,23.333-15.666,30.667,10.667
				c0,0,25.332-15.333,22.666,16c0,0,13,15.667-4.333,21.667c0,0,7.999,8.666-5.667,12c0,0,22.334,12.666-3.666,27.333
				c0,0,2,12.666-12,10.333c0,0-5,15.334-21.667,6.334c0,0-20.334,22-35.667-5c0,0-33.333,8.666-31.333-21.667
				c0,0-20.334,1.333-13.667-19.667c0,0-12.685-9.333-1.342-14.666C42.158,193.834,29.5,165.833,59.167,170.5z"/>
			<path fill="#806F61" d="M164.5,186.167c0,0-14.333-8-20.666,0C143.834,186.167,148.833,200.834,164.5,186.167z"/>
		</g>
		<circle fill="#F2638B" cx="86.083" cy="141.25" r="5.167"/>
		<path fill="#F29CB6" d="M128.049,117.583c-0.178,0.628,4.834,1.829,5.273,1.94c2.548,0.646,5.429,1.021,7.891-0.146
			c1.359-0.646,2.588-2.298,3.553-3.403c0.728-0.833,2-2.895,3.266-2.962c2.658-0.14,1.793,4.656,1.32,6
			c-1.189,3.377-4.707,5.21-7.719,6.655c-3.146,1.51-7.33,3.24-10.318,0.458C126.796,121.915,127.981,117.801,128.049,117.583z"/>
		<path fill="#F7AABD" d="M126.555,108.3c8.289,2.051,8.87,11.069,8.611,17.869c-0.074,1.972-3.353,19.187-1.75,19.831
			c0,0-2.159,0.26-12.091,3.877c1.181,1.554,2.255,3.205,3.233,4.891c0.822,1.414,1.598,2.863,2.197,4.387
			c0.643,1.653,0.26,3.439,1.938,4.107c0.762,0.303,1.702,0.407,2.31,1.025c1.874,1.908-0.821,2.594-2.296,2.947
			c-1.874,0.449-4.955,1.736-6.773,0.52c-1.612-1.081-0.619-4.033-1.001-5.778c-3.401-15.505-30.521-0.272-32.881-14.536
			c-0.903-5.464,2.197-10.28,4.942-14.709c3.093-4.992,4.256-10.328,6.546-15.651C104.158,106.348,116.792,105.885,126.555,108.3z"
			/>
		<path fill="#F29CB6" d="M104.705,110.374c-2.311,1.977-4.205,4.437-5.711,7.074c-2.704,4.74-3.734,10.327,0.518,14.52
			c2.889,2.846,6.574,4.667,10.301,6.153c3.547,1.415,7.456,2.694,11.314,2.026c1.966-0.34,9.088-2.864,6.227-6.045
			c-1.428-1.583-3.727-1.653-5.703-1.675c-4.627-0.051-12.256-0.507-15.983-3.759c-3.571-3.116-5.872-7.026-4.534-11.322
			C101.768,115.312,103.041,111.797,104.705,110.374z"/>
		<g>
			<path fill="#F7AABD" d="M97.573,75.031c-0.001-0.001-14.788-34.113-7.101-40.353c0,0,9.731-11.854,15.6,36.908
				c0,0,15.413-5.306,20.307-1.054c0,0-3.488-44.713,8.289-39.65c0,0,7.132-0.871,0.768,40.515
				c3.517,8.421,9.251,19.624,6.986,28.51c0,0-3.057,11.841-22.596,11.52c-5.667-0.093-12.254,1.233-17.438-1.713
				c-8.436-4.793-7.059-19.517-5.492-27.496C97.313,80.098,98.419,77.158,97.573,75.031z"/>
			<path fill="#F2638B" d="M129.972,69.01c0,0-2.698-23.058,2.384-24.824C132.355,44.187,138.893,41.511,129.972,69.01z"/>
			<path fill="#F2638B" d="M101.059,71.204c0,0-10.617-20.644-6.478-24.081C94.581,47.123,99.764,42.323,101.059,71.204z"/>
			
				<ellipse transform="matrix(0.9987 -0.0518 0.0518 0.9987 -4.6082 6.2977)" fill="#FEDDC3" cx="119.148" cy="92.019" rx="19.166" ry="17.083"/>
			<circle fill="#FFFFFF" cx="109.748" cy="87.75" r="4.5"/>
			<circle fill="#FFFFFF" cx="129.055" cy="86.748" r="4.5"/>
			<circle cx="109.748" cy="87.75" r="1.167"/>
			<circle cx="129.056" cy="86.748" r="1.167"/>
			<ellipse transform="matrix(0.9987 -0.0518 0.0518 0.9987 -4.6373 6.2602)" cx="118.513" cy="92.636" rx="1.896" ry="1.167"/>
			<ellipse transform="matrix(0.0677 -0.9977 0.9977 0.0677 6.9944 215.7442)" cx="118.943" cy="104.129" rx="1.895" ry="1.166"/>
			<path fill="none" stroke="#000000" stroke-width="0.5" stroke-miterlimit="10" d="M118.514,92.636c0,0,4.156,6.126,0.569,10.985"
				/>
		</g>
		<g>
			<circle fill="#F29CB6" cx="107.63" cy="98.526" r="2.897"/>
			<circle fill="#F29CB6" cx="133.284" cy="96.836" r="2.897"/>
		</g>
	</g>
</g>
</svg>
