<?xml version="1.0" encoding="utf-8"?>
<!-- Generator: Adobe Illustrator 16.0.0, SVG Export Plug-In . SVG Version: 6.00 Build 0)  -->
<!DOCTYPE svg PUBLIC "-//W3C//DTD SVG 1.1//EN" "http://www.w3.org/Graphics/SVG/1.1/DTD/svg11.dtd">
<svg version="1.1" id="Layer_1" xmlns="http://www.w3.org/2000/svg" xmlns:xlink="http://www.w3.org/1999/xlink" x="0px" y="0px"
	 width="300px" height="220px" viewBox="0 0 300 220" enable-background="new 0 0 300 220" xml:space="preserve">
<path fill="#FFCF04" d="M44.988,146.128c0-56.763,46.179-102.942,102.941-102.942c56.759,0,102.939,46.178,102.939,102.942
	c0,0.547-0.031,1.087-0.041,1.63h38.541c0.088-0.548,0.142-1.091,0.142-1.63c0-5.022-3.955-10.449-8.141-16.198
	c-3.852-5.29-7.837-10.76-9.51-17.021c-1.74-6.513-1.028-13.41-0.339-20.08c0.715-6.916,1.389-13.447-0.957-17.504
	c-2.413-4.168-8.472-6.862-14.889-9.715c-6.073-2.701-12.355-5.495-17.045-10.186c-4.691-4.689-7.484-10.97-10.186-17.046
	c-2.852-6.414-5.546-12.475-9.717-14.888c-1.917-1.109-4.5-1.625-8.132-1.625c-2.9,0-6.042,0.325-9.371,0.668
	c-3.543,0.366-7.203,0.745-10.837,0.745c-3.492,0-6.515-0.355-9.244-1.084c-6.259-1.673-11.73-5.658-17.02-9.509
	c-5.744-4.185-11.17-8.137-16.188-8.141h-0.016c-5.019,0.004-10.445,3.957-16.19,8.141c-5.291,3.851-10.76,7.836-17.02,9.509
	c-2.729,0.729-5.753,1.084-9.243,1.084c-3.635,0-7.295-0.379-10.838-0.745c-3.326-0.343-6.469-0.668-9.37-0.668
	c-3.631,0-6.216,0.516-8.133,1.625c-4.169,2.413-6.863,8.474-9.716,14.888c-2.701,6.076-5.493,12.356-10.186,17.046
	c-4.689,4.691-10.971,7.485-17.044,10.186c-6.416,2.853-12.476,5.547-14.889,9.716c-2.345,4.056-1.67,10.587-0.957,17.503
	c0.689,6.67,1.402,13.566-0.338,20.081c-1.674,6.26-5.658,11.73-9.511,17.02c-4.186,5.749-8.141,11.176-8.141,16.198
	c0,0.539,0.054,1.083,0.142,1.63h38.543C45.022,147.215,44.988,146.675,44.988,146.128"/>
<path fill="#EA5F38" d="M147.928,56.49c-49.426,0-89.637,40.209-89.637,89.637c0,0.548,0.031,1.088,0.042,1.633h50.529
	c-0.023-0.543-0.041-1.086-0.041-1.633c0-21.564,17.542-39.108,39.106-39.108c21.565,0,39.106,17.544,39.106,39.108
	c0,0.548-0.02,1.09-0.041,1.633h50.53c0.01-0.546,0.041-1.086,0.041-1.633C237.565,96.7,197.355,56.49,147.928,56.49"/>
<path fill="#FFCF04" d="M147.928,107.02c-21.564,0-39.106,17.544-39.106,39.107c0,0.548,0.018,1.09,0.041,1.631h78.131
	c0.021-0.541,0.041-1.084,0.041-1.631C187.035,124.563,169.493,107.02,147.928,107.02"/>
<path fill="#4C301C" d="M292.986,208.245c-0.657,0.391-1.806,0.47-2.707,0.47c-3.694,0-4.35-3.058-4.35-6.353
	c0-1.646,0.166-3.293,0.166-4.705c0-7.45-5.006-10.432-10.997-10.432c-0.901,0-1.887,0.081-2.79,0.236l13.95-10.821h-8.123
	l-13.21,11.92v-21.802l-11.815,1.57v33.484l0,0c-0.329,3.923-2.627,6.901-5.825,6.901c-3.202,0-4.268-1.02-4.268-5.411v-36.545
	l-11.817,1.57v35.839c0,0.219,0.014,0.43,0.02,0.646c-0.969,2.337-2.795,3.901-5.105,3.901c-3.197,0-4.266-1.02-4.266-5.41V176.64
	h-11.816v3.764c-1.393-3.686-5.003-4.155-7.713-4.155c-11.404,0-15.672,12.311-15.672,21.879c0,2.497,0.257,4.684,0.713,6.601
	c-0.959,2.387-2.807,3.987-5.145,3.987c-3.2,0-4.267-1.02-4.267-5.412v-21.671h6.881v-3.139h-6.881v-10.759l-11.815,1.568v9.19
	h-2.625v3.139h2.625v20.184c-0.902,3.999-1.641,6.899-5.415,6.899c-3.365,0-4.268-2.275-4.268-6.744
	c0-2.665,0.326-8.471,0.326-11.214c0-10.979-5.251-14.432-11.485-14.432c-3.282,0-7.467,0.94-10.175,6.667
	c-2.215-5.254-5.826-6.744-9.929-6.744c-2.79,0-6.318,0.706-8.943,4.471v-4.079h-11.817v10.442
	c-2.146,0.939-4.309,1.556-5.906,1.556h-0.574c-1.313-8.627-5.907-12.39-13.375-12.39c-14.194,0-17.559,13.411-17.559,22.35
	c0,2.312,0.234,4.339,0.643,6.137c-0.765,2.41-1.895,3.98-4.663,3.98c-3.365,0-4.267-2.275-4.267-6.744
	c0-2.665,0.328-8.471,0.328-11.214c0-10.979-5.251-14.432-11.488-14.432c-3.281,0-7.466,0.94-10.175,6.667
	c-2.215-5.254-5.825-6.744-9.928-6.744c-2.79,0-6.317,0.706-8.944,4.471v-4.079H6.706v39.212h11.817v-25.174
	c0.328-3.922,1.887-7.293,4.841-7.293c2.789,0,3.609,2.903,3.609,5.413v27.055H38.79V190.68c0.328-3.844,1.722-7.216,4.841-7.216
	c2.625,0,4.267,2.432,4.267,8.706c0,1.961-0.164,7.605-0.164,9.489c0,8.862,3.61,14.667,11.815,14.667
	c3.631,0,7.557-1.139,10.101-6.479c2.833,4.675,7.621,6.475,12.71,6.475c11.816,0,16-9.644,16-21.722c0-0.707,0-1.412-0.082-2.119
	c2.067-0.388,4.193-1.001,6.152-1.807v25.177h11.817v-25.174c0.328-3.922,1.887-7.293,4.841-7.293c2.789,0,3.61,2.903,3.61,5.413
	v27.055h11.815V190.68c0.328-3.844,1.724-7.216,4.841-7.216c2.625,0,4.267,2.432,4.267,8.706c0,1.961-0.165,7.605-0.165,9.489
	c0,8.862,3.611,14.667,11.817,14.667c3.516,0,7.31-1.063,9.857-5.983c1.463,3.73,4.663,5.981,10.408,5.981
	c3.324,0,8.498-0.973,11.637-6.861c2.794,4.964,7.484,6.861,11.912,6.861c5.826,0,8.862-3.607,10.585-7.216
	c1.148,4.47,4.02,7.216,9.765,7.216c3.081,0,7.742-0.846,10.907-5.646c1.521,3.525,4.692,5.646,10.261,5.646
	c2.953,0,7.355-0.786,10.504-5.08v4.608h11.815v-17.486c0.82-2.588,2.543-4.705,5.907-4.705c3.529,0,4.103,2.901,4.103,6.509
	c0,1.726-0.165,3.687-0.165,5.569c0,6.038,3.939,10.585,10.832,10.585c5.908,0,7.467-3.528,7.467-6.823
	C293.068,208.713,292.986,208.713,292.986,208.245 M91.304,193.971c0,8.549-1.97,14.98-6.646,14.98c-2.462,0-5.58-1.728-5.58-11.137
	c0-7.294,1.887-16.861,6.729-16.861c1.23,0,3.2,0.706,4.348,4.233c-1.23,0.394-2.05,1.491-2.05,3.688c0,1.803,0.491,3.372,3.2,3.921
	V193.971z M210.032,201.813c0,4.548-2.954,6.901-5.333,6.901c-2.053,0-6.072-0.156-6.072-11.291c0-6.824,2.052-16.314,7.384-16.314
	c2.708,0,3.775,2.197,4.021,3.06V201.813L210.032,201.813z"/>
</svg>
