<?xml version="1.0" encoding="utf-8"?>
<!-- Generator: Adobe Illustrator 16.0.0, SVG Export Plug-In . SVG Version: 6.00 Build 0)  -->
<!DOCTYPE svg PUBLIC "-//W3C//DTD SVG 1.1//EN" "http://www.w3.org/Graphics/SVG/1.1/DTD/svg11.dtd">
<svg version="1.1" id="Layer_1" xmlns="http://www.w3.org/2000/svg" xmlns:xlink="http://www.w3.org/1999/xlink" x="0px" y="0px"
	 width="40px" height="40px" viewBox="0 0 40 40" enable-background="new 0 0 40 40" xml:space="preserve">
<path fill="#FFFFFF" d="M36.495,20.499c0,8.905-7.219,16.122-16.122,16.122c-8.904,0-16.122-7.217-16.122-16.122
	c0-8.903,7.218-16.122,16.122-16.122C29.276,4.377,36.495,11.596,36.495,20.499"/>
<path fill="#FFCF04" d="M37.596,18.065c-0.508-0.697-1.033-1.419-1.254-2.245c-0.095-0.359-0.143-0.758-0.143-1.219
	c0-0.48,0.049-0.962,0.099-1.43c0.044-0.438,0.086-0.853,0.086-1.235c0-0.479-0.066-0.82-0.213-1.072
	c-0.318-0.551-1.117-0.906-1.964-1.283c-0.801-0.355-1.63-0.724-2.247-1.343c-0.62-0.618-0.987-1.446-1.344-2.247
	c-0.377-0.847-0.731-1.645-1.283-1.963c-0.533-0.31-1.395-0.221-2.307-0.126c-0.881,0.091-1.789,0.185-2.648-0.045
	c-0.826-0.22-1.548-0.745-2.245-1.253c-0.658-0.479-1.284-0.935-1.869-1.047V1.547c-0.073-0.011-0.145-0.019-0.215-0.019
	c-0.008,0-0.018,0.002-0.026,0.002c-0.009,0-0.017-0.002-0.026-0.002c-0.07,0-0.143,0.007-0.214,0.019v0.009
	c-0.587,0.113-1.213,0.568-1.871,1.047c-0.697,0.508-1.418,1.033-2.244,1.253c-0.859,0.23-1.769,0.136-2.647,0.045
	c-0.912-0.095-1.774-0.183-2.309,0.126c-0.55,0.317-0.906,1.117-1.281,1.963C9.073,6.793,8.705,7.621,8.085,8.239
	c-0.618,0.62-1.446,0.987-2.248,1.343c-0.846,0.377-1.645,0.731-1.963,1.283c-0.146,0.251-0.215,0.593-0.215,1.072
	c0,0.382,0.044,0.797,0.089,1.235c0.048,0.468,0.098,0.95,0.098,1.43c0,0.46-0.048,0.859-0.144,1.219
	c-0.221,0.826-0.746,1.547-1.254,2.245c-0.552,0.757-1.073,1.474-1.074,2.134v0.003c0.001,0.661,0.522,1.377,1.074,2.135
	c0.508,0.696,1.033,1.419,1.254,2.244c0.096,0.36,0.144,0.759,0.144,1.218c0,0.482-0.05,0.964-0.098,1.431
	c-0.045,0.438-0.089,0.853-0.089,1.236c0,0.479,0.069,0.819,0.215,1.071c0.319,0.552,1.118,0.905,1.963,1.283
	c0.802,0.355,1.629,0.724,2.248,1.342c0.62,0.619,0.988,1.447,1.345,2.249c0.375,0.845,0.731,1.645,1.281,1.963
	c0.534,0.309,1.396,0.221,2.309,0.128c0.878-0.093,1.788-0.188,2.647,0.043c0.826,0.222,1.547,0.747,2.244,1.255
	c0.658,0.479,1.284,0.934,1.871,1.045v0.011c0.071,0.01,0.144,0.018,0.214,0.018c0.01,0,0.018-0.003,0.026-0.003
	c0.008,0,0.018,0.003,0.026,0.003c0.07,0,0.142-0.008,0.215-0.018v-0.011c0.585-0.111,1.211-0.566,1.869-1.045
	c0.697-0.508,1.419-1.033,2.245-1.255c0.859-0.23,1.768-0.136,2.648-0.043c0.912,0.093,1.773,0.181,2.309-0.128
	c0.55-0.318,0.904-1.118,1.281-1.963c0.356-0.802,0.724-1.63,1.344-2.249c0.617-0.618,1.446-0.986,2.247-1.342
	c0.847-0.378,1.646-0.731,1.964-1.283c0.146-0.252,0.213-0.593,0.213-1.071c0-0.384-0.042-0.798-0.086-1.236
	c-0.05-0.467-0.099-0.948-0.099-1.429c0-0.461,0.048-0.859,0.143-1.22c0.221-0.825,0.746-1.548,1.254-2.244
	c0.552-0.758,1.072-1.473,1.073-2.135v-0.002C38.668,19.539,38.147,18.824,37.596,18.065 M20.026,33.776
	C12.55,33.765,6.472,27.681,6.472,20.201c0-7.476,6.075-13.56,13.548-13.575c7.476,0.012,13.553,6.098,13.553,13.576
	C33.572,27.679,27.499,33.762,20.026,33.776"/>
<path fill="#EA5E37" d="M31.818,20.201c0-6.429-5.16-11.672-11.556-11.814V8.385c-0.071-0.001-0.142-0.005-0.214-0.005
	c-0.01,0-0.02,0-0.029,0c-0.008,0-0.015,0-0.022,0c-0.073,0-0.144,0.004-0.215,0.005v0C13.386,8.529,8.227,13.772,8.227,20.201
	s5.16,11.672,11.555,11.814v0.001c0.072,0.003,0.142,0.007,0.215,0.007c0.009,0,0.019-0.002,0.028-0.002
	c0.007,0,0.015,0.002,0.023,0.002c0.072,0,0.144-0.004,0.214-0.007v-0.001C26.658,31.873,31.818,26.63,31.818,20.201 M20.022,25.358
	c-2.832-0.015-5.132-2.321-5.132-5.157c0-2.834,2.3-5.142,5.132-5.155c2.831,0.013,5.132,2.321,5.132,5.155
	C25.154,23.037,22.854,25.344,20.022,25.358"/>
<path fill="#FFCF04" d="M25.154,20.202c0-2.754-2.173-5.005-4.892-5.144v-0.009c-0.072-0.002-0.142-0.005-0.214-0.005
	c-0.009,0-0.017,0.001-0.026,0.001c-0.008,0-0.016-0.001-0.025-0.001c-0.072,0-0.145,0.002-0.215,0.005v0.009
	c-2.72,0.139-4.892,2.39-4.892,5.144c0,2.755,2.172,5.004,4.892,5.144v0.008c0.071,0.002,0.144,0.007,0.215,0.007
	c0.008,0,0.017-0.002,0.025-0.002c0.009,0,0.018,0.002,0.026,0.002c0.072,0,0.143-0.005,0.214-0.007v-0.008
	C22.981,25.206,25.154,22.957,25.154,20.202"/>
</svg>
