<?xml version="1.0" encoding="utf-8"?>
<!-- Generator: Adobe Illustrator 16.0.0, SVG Export Plug-In . SVG Version: 6.00 Build 0)  -->
<!DOCTYPE svg PUBLIC "-//W3C//DTD SVG 1.1//EN" "http://www.w3.org/Graphics/SVG/1.1/DTD/svg11.dtd">
<svg version="1.1" id="Layer_1" xmlns="http://www.w3.org/2000/svg" xmlns:xlink="http://www.w3.org/1999/xlink" x="0px" y="0px"
	 width="400px" height="400px" viewBox="0 0 400 400" enable-background="new 0 0 400 400" xml:space="preserve">
<path fill="#FFFFFF" d="M330.046,202.14c0,70.042-56.781,126.809-126.808,126.809c-70.038,0-126.816-56.767-126.816-126.809
	c0-70.033,56.779-126.809,126.816-126.809C273.265,75.331,330.046,132.106,330.046,202.14"/>
<path fill="#FFCF04" d="M338.706,182.992c-3.996-5.484-8.131-11.16-9.872-17.655c-0.747-2.826-1.12-5.963-1.12-9.585
	c0-3.774,0.389-7.572,0.777-11.25c0.343-3.448,0.684-6.709,0.684-9.718c0-3.767-0.527-6.449-1.678-8.431
	c-2.505-4.33-8.793-7.125-15.448-10.087c-6.305-2.795-12.82-5.691-17.678-10.565c-4.876-4.863-7.768-11.374-10.565-17.679
	c-2.962-6.655-5.754-12.936-10.091-15.443c-4.198-2.438-10.978-1.738-18.145-0.996c-6.928,0.715-14.072,1.454-20.835-0.354
	c-6.499-1.733-12.175-5.866-17.655-9.862c-5.179-3.767-10.1-7.347-14.705-8.232v-0.07c-0.575-0.09-1.14-0.144-1.695-0.144
	c-0.066,0-0.136,0.015-0.203,0.015c-0.069,0-0.132-0.015-0.206-0.015c-0.556,0-1.123,0.054-1.687,0.144v0.07
	c-4.618,0.886-9.539,4.466-14.713,8.232c-5.485,3.996-11.16,8.128-17.655,9.862c-6.759,1.807-13.908,1.068-20.827,0.354
	c-7.171-0.742-13.955-1.442-18.157,0.996c-4.322,2.499-7.125,8.788-10.079,15.443c-2.803,6.305-5.699,12.816-10.573,17.679
	c-4.862,4.874-11.374,7.762-17.678,10.565c-6.655,2.962-12.937,5.757-15.444,10.087c-1.146,1.982-1.69,4.665-1.69,8.431
	c0,3.008,0.342,6.27,0.704,9.718c0.373,3.678,0.769,7.475,0.769,11.25c0,3.623-0.373,6.759-1.131,9.585
	c-1.734,6.495-5.866,12.171-9.862,17.655c-4.338,5.955-8.439,11.592-8.447,16.792v0.023c0.008,5.196,4.109,10.833,8.447,16.789
	c3.996,5.487,8.128,11.163,9.862,17.653c0.758,2.839,1.131,5.972,1.131,9.586c0,3.779-0.396,7.572-0.769,11.25
	c-0.362,3.443-0.704,6.71-0.704,9.725c0,3.764,0.543,6.438,1.69,8.428c2.507,4.331,8.789,7.12,15.444,10.084
	c6.305,2.806,12.816,5.697,17.678,10.563c4.875,4.867,7.771,11.382,10.573,17.679c2.954,6.655,5.757,12.945,10.079,15.448
	c4.202,2.433,10.985,1.733,18.157,0.995c6.918-0.716,14.067-1.462,20.827,0.35c6.496,1.733,12.17,5.87,17.655,9.866
	c5.174,3.762,10.095,7.347,14.713,8.224v0.078c0.564,0.086,1.131,0.141,1.687,0.141c0.074,0,0.136-0.016,0.206-0.016
	c0.066,0,0.137,0.016,0.203,0.016c0.555,0,1.12-0.055,1.695-0.141v-0.078c4.605-0.877,9.526-4.455,14.705-8.224
	c5.48-3.996,11.156-8.133,17.655-9.866c6.763-1.812,13.907-1.065,20.835-0.35c7.167,0.738,13.946,1.438,18.16-0.995
	c4.321-2.503,7.113-8.793,10.075-15.448c2.798-6.297,5.689-12.812,10.565-17.679c4.857-4.866,11.373-7.758,17.678-10.563
	c6.655-2.964,12.943-5.753,15.448-10.084c1.15-1.99,1.678-4.664,1.678-8.428c0-3.015-0.341-6.281-0.684-9.725
	c-0.389-3.678-0.777-7.471-0.777-11.241c0-3.623,0.373-6.756,1.12-9.595c1.741-6.49,5.876-12.166,9.872-17.653
	c4.339-5.956,8.436-11.584,8.442-16.789v-0.016C347.142,194.583,343.045,188.955,338.706,182.992 M200.505,306.574
	c-58.807-0.093-106.611-47.951-106.611-106.783c0-58.808,47.78-106.662,106.561-106.778c58.8,0.093,106.603,47.962,106.603,106.786
	C307.058,258.607,259.285,306.449,200.505,306.574"/>
<path fill="#EA5E37" d="M293.259,199.792c0-50.566-40.582-91.809-90.889-92.924v-0.016c-0.563-0.008-1.123-0.039-1.694-0.039
	c-0.074,0-0.152,0-0.226,0c-0.062,0-0.116,0-0.175,0c-0.571,0-1.126,0.031-1.694,0.039v0.008
	c-50.303,1.124-90.888,42.366-90.888,92.932c0,50.575,40.585,91.81,90.888,92.937v0.007c0.568,0.017,1.124,0.048,1.694,0.048
	c0.074,0,0.144-0.009,0.226-0.009c0.054,0,0.121,0.009,0.175,0.009c0.571,0,1.13-0.031,1.694-0.048v-0.007
	C252.677,291.602,293.259,250.366,293.259,199.792 M200.478,240.354c-22.276-0.109-40.371-18.254-40.371-40.562
	c0-22.296,18.095-40.448,40.371-40.55c22.27,0.102,40.368,18.254,40.368,40.55C240.846,222.1,222.747,240.244,200.478,240.354"/>
<path fill="#FFCF04" d="M240.846,199.796c0-21.663-17.088-39.364-38.476-40.464v-0.062c-0.566-0.023-1.123-0.043-1.694-0.043
	c-0.066,0-0.128,0.008-0.202,0.008c-0.062,0-0.125-0.008-0.199-0.008c-0.563,0-1.131,0.02-1.694,0.043v0.062
	c-21.391,1.1-38.475,18.801-38.475,40.464c0,21.666,17.084,39.36,38.475,40.464v0.055c0.563,0.023,1.131,0.055,1.694,0.055
	c0.067,0,0.136-0.016,0.199-0.016c0.074,0,0.136,0.016,0.202,0.016c0.571,0,1.127-0.031,1.694-0.055v-0.055
	C223.758,239.156,240.846,221.462,240.846,199.796"/>
</svg>
