<?xml version="1.0" encoding="utf-8"?>
<!-- Generator: Adobe Illustrator 19.2.0, SVG Export Plug-In . SVG Version: 6.00 Build 0)  -->
<svg version="1.1" id="Layer_1" xmlns="http://www.w3.org/2000/svg" xmlns:xlink="http://www.w3.org/1999/xlink" x="0px" y="0px"
	 viewBox="0 0 212.9 59.9" style="enable-background:new 0 0 212.9 59.9;" xml:space="preserve">
<g>
	<g>
		<path d="M37.5,37.9c-2.1,5.8-7.4,7-11.1,7c-4,0-8.7-2-8.7-10.2c0-8.7,2.8-20,13.3-20c3.7,0,6.9,1.5,6.9,5.4c0,2.1-0.8,3.7-2.8,3.7
			c-0.6,0-1.5-0.2-2.3-1c1-0.3,1.7-2.3,1.7-3.3c0-0.6-0.2-2.8-2.7-2.8c-4.9,0-8,10.2-8,17.3c0,5.2,1,7.5,5.2,7.5
			c3,0,5.9-1.3,7.4-3.8L37.5,37.9z"/>
		<path d="M51.8,30.1c0.2,0.2,0.6,0.4,1.1,0.4c1.9,0,2.7-1.4,4.2-2l0.2,0.8c-1.2,1.6-3.3,2.9-5.6,3.5c-0.8,8-5.1,12-9,12
			c-4.2,0-6.1-1.8-6.1-6.6c0-9.8,4.9-14.1,10.4-14.1C50.8,24.3,51.8,27.2,51.8,30.1z M48.8,33.3c-1.1,0-1.7-0.8-1.7-1.8
			c0-1.2,0.7-2.4,1.7-2.8c-0.1-1.3-0.6-2.1-1.7-2.1c-3.7,0-5.3,8.2-5.3,11.4c0,2.4,1.1,3,2.7,3C47,41,48.3,37.2,48.8,33.3z"/>
		<path d="M63.8,17.7l-4.6,20.6c-0.1,0.6-0.2,1-0.2,1.3c0,0.9,0.4,1.5,2,1.5c1.6,0,3.6-2.2,5.2-3.5h1.3c-1.8,1.8-6.3,7.2-9.4,7.2
			c-3,0-4.9-1.4-4.9-4.4c0-0.6,0.1-1.3,0.2-2l4.4-20.8L63.8,17.7z"/>
		<path d="M79.8,30.1c0.2,0.2,0.6,0.4,1.1,0.4c1.9,0,2.7-1.4,4.2-2l0.2,0.8c-1.2,1.6-3.3,2.9-5.6,3.5c-0.8,8-5.1,12-9,12
			c-4.2,0-6.1-1.8-6.1-6.6c0-9.8,4.9-14.1,10.4-14.1C78.8,24.3,79.7,27.2,79.8,30.1z M76.7,33.3c-1.1,0-1.7-0.8-1.7-1.8
			c0-1.2,0.7-2.4,1.7-2.8c-0.1-1.3-0.6-2.1-1.7-2.1c-3.7,0-5.3,8.2-5.3,11.4c0,2.4,1.1,3,2.7,3C74.9,41,76.3,37.2,76.7,33.3z"/>
		<path d="M90.1,24.7l-0.4,2c1.4-1.1,3-2,4.7-2c1.8,0,2.9,1,2.9,2.6c0,1.4-1,3.1-3,3.1c-2.2,0-1.1-2.6-2.3-2.6
			c-1.2,0-1.8,0.4-2.7,1.3l-3.3,15.7h-5.7l4.2-20H90.1z"/>
		<path d="M104.8,17.7l-1.9,8.1c0.9-0.7,2.1-1.2,3.4-1.2c3.8,0,5,2.7,5,5.1c0,6.3-3.4,15.1-10.5,15.1c-3.9,0-6.5-1.1-6.5-4.6
			c0-0.6,0.1-1.2,0.2-2L99,17.5L104.8,17.7z M104.7,27c-0.4,0-1.8,0.3-2.1,0.6l-2.3,10.7c-0.2,1-0.3,1.7-0.3,2.2
			c0,1.2,0.6,1.5,1.7,1.5c3.2,0,5.2-9.1,5.2-12C106.9,27.5,105.7,27,104.7,27z"/>
		<path d="M120,24.7l-0.4,2c1.4-1.1,3-2,4.7-2c1.8,0,2.9,1,2.9,2.6c0,1.4-1,3.1-3,3.1c-2.2,0-1.1-2.6-2.3-2.6
			c-1.2,0-1.8,0.4-2.7,1.3l-3.3,15.7h-5.7l4.2-20H120z"/>
		<path d="M133.1,24.7l-2.9,13.6c-0.1,0.4-0.2,0.9-0.2,1.2c0,0.9,0.4,1.5,2,1.5c1.6,0,3.6-2.2,5.2-3.5h1.3c-1.8,1.8-6.3,7.2-9.4,7.2
			c-3,0-5-1.4-5-4.4c0-0.6,0.1-1.3,0.2-2l2.9-13.6H133.1z M131.3,16.2c1.7,0,3.2,1.4,3.2,3.2s-1.4,3.2-3.2,3.2s-3.1-1.4-3.1-3.2
			S129.5,16.2,131.3,16.2z"/>
		<path d="M155.8,17.7l-4.5,20.6c-0.1,0.4-0.2,0.9-0.2,1.3c0,0.9,0.4,1.5,2,1.5c1.6,0,3.6-2.2,5.2-3.5h1.3c-1.8,1.8-6.3,7.2-9.4,7.2
			c-2.6,0-4.3-1-4.8-3c-1.2,1.6-3,3.3-5.4,3.3c-3.8,0-4.9-2.7-4.9-5.1c0-6.9,2.5-15.1,10.4-15.1c1,0,1.9,0.4,2.7,1l1.7-8.2
			L155.8,17.7z M140.5,38.7c0,2.4,1.3,2.8,2.3,2.8c0.9,0,1.8-0.9,2.5-2c0-0.4,0.1-0.8,0.2-1.3l2.2-10.6c-0.6-0.6-1.4-0.7-1.9-0.7
			C142.9,26.9,140.5,33.3,140.5,38.7z"/>
		<path d="M175,24.7l-3.7,17.7c2.5-1.3,4.8-3.1,6.1-6.1l-0.2,3.2c-0.5,2.6-3.3,4.1-6.4,5.2l-0.7,3.2c-1.2,5.7-4.5,6.8-7.1,6.8
			c-2.4,0-4.4-1.3-4.4-3.9c0-3.3,2.9-4.6,6.5-5.9l0.4-1.8c-1.2,1.1-2.7,1.9-4.6,1.9c-3.8,0-4.9-3.2-4.9-5.6c0-5.5,2.1-14.7,9.8-14.7
			c1.4,0,2.6,0.8,3.1,1.9l0.4-1.9H175z M162.1,51.5c0.8,0,1.8-1.2,2.3-3.6l0.2-1.2c-2.3,0.9-3.9,1.9-3.9,3.4
			C160.7,50.8,161.2,51.5,162.1,51.5z M160.8,38.6c0,1.9,1.1,2.5,2.9,2.5c0.8,0,1.6-0.6,2.4-1.4l2.3-11.1c-0.6-1.2-1.6-1.7-2.3-1.7
			C162.3,26.9,160.8,35.2,160.8,38.6z"/>
	</g>
	<path d="M189.7,40c-0.4,0.3-0.9,0.7-1.3,1c-0.9,0.5-1.8,0.9-2.9,0.9c-1.5,0-2.9-0.8-2.9-3.4c0-0.5,0-1.1,0.1-1.7
		c3.8-0.5,8.9-3.3,8.9-8.2c0-2.8-1.8-4.2-5.1-4.2c-7.2,0-9.3,8.9-9.3,14c0,3.4,2.1,6.4,5.9,6.4c1,0,2-0.1,3-0.3
		c1.3-0.3,2.4-0.8,3.3-1.7c0.7-0.7,1.4-1.5,2.2-2c0.6-0.4,1.5-0.7,1.8,0.2c0.1,0.2,0.1,0.5,0.2,0.8c0.2,0.8,0.6,1.4,1.5,1.4
		c1.9,0,3-1.7,3-3.1c0-1.5-1.1-2.6-2.9-2.6c-1.1,0-2.2,0.4-3.1,0.9c-0.3,0.2-0.5,0.3-0.8,0.5c-0.2,0.1-0.3,0.2-0.5,0.4 M187.9,26.4
		c1.2,0,1.4,1.4,1.4,2.2c0,2.8-2.6,6-6.3,6C183.9,30.9,185.7,26.4,187.9,26.4z"/>
</g>
</svg>
