<svg width="163" height="17" xmlns="http://www.w3.org/2000/svg"><path d="M8.39 0c1.462 0 2.708.254 3.739.762v3.586l-.024.023c-.437-.672-1.359-1.117-2.765-1.336-.414-.07-.938-.105-1.57-.105-.633 0-1.254.119-1.864.357-.61.238-1.11.576-1.5 1.014-.758.851-1.136 2.066-1.136 3.644 0 1.836.48 3.203 1.44 4.102.798.75 1.852 1.125 3.165 1.125 1.484 0 2.687-.317 3.61-.95.335-.226.62-.507.855-.843l.035.023v3.282c-1.195.992-2.805 1.488-4.828 1.488-2.383 0-4.25-.758-5.602-2.274C.648 12.453 0 10.54 0 8.156c0-2.523.71-4.511 2.133-5.965C3.57.731 5.656 0 8.39 0zm9.215 14.027a7.38 7.38 0 01-1.681-2.449c-.41-.953-.615-1.998-.615-3.135a9.07 9.07 0 01.574-3.228 8.193 8.193 0 011.64-2.684A7.87 7.87 0 0120.102.686C21.109.229 22.238 0 23.488 0c2.157 0 3.973.68 5.45 2.04 1.578 1.452 2.367 3.413 2.367 5.882 0 2.39-.813 4.379-2.438 5.965a7.942 7.942 0 01-3.574 2.015c-.68.18-1.475.27-2.385.27-.91 0-1.844-.188-2.8-.563a7.58 7.58 0 01-2.503-1.582zm.961-5.742c0 .727.121 1.395.364 2.004.242.61.578 1.133 1.008 1.57.914.922 2.09 1.383 3.527 1.383 1.367 0 2.465-.441 3.293-1.324.844-.914 1.265-2.16 1.265-3.738 0-1.485-.402-2.723-1.207-3.715-.867-1.063-2.054-1.594-3.562-1.594-1.461 0-2.621.54-3.48 1.617-.805 1.008-1.208 2.274-1.208 3.797zm19.036 7.594c-1.149 0-1.91.023-2.286.07V.223c.188.047.577.07 1.166.07.59 0 1.276-.016 2.057-.047v12.82h2.426c.703 0 1.265-.023 1.687-.07a524.88 524.88 0 00-.082 2.848v.117c-.765-.055-2.05-.082-3.855-.082h-1.113zm10.011-1.852a7.38 7.38 0 01-1.681-2.449c-.41-.953-.616-1.998-.616-3.135a9.07 9.07 0 01.575-3.228 8.193 8.193 0 011.64-2.684A7.87 7.87 0 0150.11.686C51.117.229 52.246 0 53.496 0c2.156 0 3.973.68 5.45 2.04 1.577 1.452 2.367 3.413 2.367 5.882 0 2.39-.813 4.379-2.438 5.965a7.942 7.942 0 01-3.574 2.015c-.68.18-1.475.27-2.385.27-.91 0-1.844-.188-2.8-.563a7.58 7.58 0 01-2.503-1.582zm.961-5.742c0 .727.121 1.395.364 2.004a4.67 4.67 0 001.007 1.57c.914.922 2.09 1.383 3.528 1.383 1.367 0 2.464-.441 3.293-1.324.843-.914 1.265-2.16 1.265-3.738 0-1.485-.402-2.723-1.207-3.715-.867-1.063-2.054-1.594-3.562-1.594-1.461 0-2.621.54-3.48 1.617-.805 1.008-1.208 2.274-1.208 3.797zm21.79 1.535c-.235.016-.485.024-.75.024-.266 0-.66-.02-1.184-.059v6.094h-3.106V.21C66.418.07 67.762 0 69.355 0c2.172 0 3.791.4 4.858 1.201 1.066.801 1.6 2.037 1.6 3.71 0 1.296-.489 2.405-1.465 3.327a5.15 5.15 0 01-1.102.774l2.39 5.039c.47 1.039.829 1.656 1.079 1.851l-.059.059c-.758-.125-1.949-.121-3.574.012L70.363 9.82zm-.786-7.054c-.398 0-.781.02-1.148.058v4.477a9.66 9.66 0 001.347.082c.516 0 .95-.045 1.301-.135.352-.09.656-.228.914-.416.555-.414.832-1.035.832-1.863 0-.828-.289-1.41-.867-1.746-.539-.305-1.332-.457-2.379-.457zm20.57 11.976c-.57.453-1.312.805-2.226 1.055-.914.25-2.037.375-3.37.375-1.331 0-2.747-.121-4.247-.363V.363C81.82.121 83.135 0 84.248 0s2.027.105 2.742.316c.715.211 1.3.496 1.752.856.89.695 1.336 1.596 1.336 2.701 0 1.106-.402 2.022-1.207 2.748.953.297 1.691.86 2.215 1.688.477.742.715 1.564.715 2.466 0 .903-.131 1.674-.393 2.315a4.058 4.058 0 01-1.26 1.652zM83.41 6.187a7.68 7.68 0 001.23.083c.493 0 .897-.065 1.214-.194.316-.129.56-.29.732-.486.281-.32.422-.766.422-1.336 0-1.195-.703-1.793-2.11-1.793-.593 0-1.09.023-1.488.07v3.656zm1.735 2.508c-.657 0-1.235.043-1.735.13v4.605c.547.14 1.121.21 1.723.21.601 0 1.13-.072 1.588-.216a3.533 3.533 0 001.154-.592c.633-.516.95-1.172.95-1.969 0-1.445-1.227-2.168-3.68-2.168zM100.37 9.82c-.234.016-.484.024-.75.024s-.66-.02-1.183-.059v6.094h-3.106V.21C96.426.07 97.77 0 99.363 0c2.172 0 3.791.4 4.858 1.201 1.066.801 1.6 2.037 1.6 3.71 0 1.296-.489 2.405-1.466 3.327-.32.297-.687.555-1.101.774l2.39 5.039c.47 1.039.829 1.656 1.079 1.851l-.059.059c-.758-.125-1.95-.121-3.574.012l-2.72-6.153zm-.785-7.054c-.399 0-.781.02-1.148.058v4.477a9.66 9.66 0 001.347.082c.516 0 .95-.045 1.3-.135.353-.09.657-.228.915-.416.555-.414.832-1.035.832-1.863 0-.828-.289-1.41-.867-1.746-.54-.305-1.332-.457-2.38-.457zm11.09-2.52c.781.031 1.254.047 1.418.047h.844c.414 0 .746-.031.996-.094l-.012 15.68h-3.246V.246zm12.449 15.926a19.98 19.98 0 01-3.574-.305V.187C120.582.063 121.779 0 123.143 0c1.363 0 2.597.186 3.703.557 1.105.37 2.029.9 2.771 1.588 1.5 1.375 2.25 3.3 2.25 5.777 0 2.773-.836 4.879-2.508 6.316-1.5 1.29-3.578 1.934-6.234 1.934zm-.527-2.86c.507.094 1.015.141 1.523.141s1.055-.1 1.64-.299a3.97 3.97 0 001.524-.931c.922-.891 1.383-2.188 1.383-3.891 0-2.797-1.02-4.516-3.059-5.156-.672-.211-1.449-.317-2.332-.317h-.316c-.117 0-.238.004-.363.012v10.441zm26.558-6.832c-.148.266-.222.903-.222 1.91v3.633c0 1.102-.57 2.059-1.711 2.872-1.18.851-2.625 1.277-4.336 1.277-2.375 0-4.27-.746-5.684-2.238-1.367-1.422-2.05-3.235-2.05-5.438 0-2.344.695-4.297 2.085-5.86C138.793.88 140.934 0 143.66 0c1.82 0 3.262.352 4.324 1.055l-.187 3.457-.094.023c-.273-.476-.812-.867-1.617-1.172a6.761 6.761 0 00-2.408-.433c-.84 0-1.574.132-2.203.398a4.398 4.398 0 00-1.6 1.137c-.922 1.008-1.383 2.34-1.383 3.996 0 1.445.406 2.605 1.219 3.48.812.868 1.86 1.301 3.14 1.301 1.415 0 2.368-.367 2.86-1.101.156-.235.234-.5.234-.797V9.398h-1.511c-.813 0-1.254.07-1.325.211l-.035-.011-.105-3.059c.219.063 1.105.094 2.66.094h1.383c.86 0 1.562-.059 2.11-.176l.034.023zm11.98 6.586c.485 0 .821-.046 1.009-.14l.046.011-.117 2.942h-8.777V.21c.21.016.445.027.703.035l.82.024c.547.015 1.14.023 1.782.023 1.789 0 3.558-.031 5.308-.094-.086.688-.129 1.606-.129 2.754 0 .125.008.219.024.281l-.024.036c-.406-.118-.984-.176-1.734-.176h-3.692v2.988h2.778c.86 0 1.375-.023 1.547-.07l.035 2.894a14.56 14.56 0 00-1.453-.058h-2.907v4.218h4.782z" fill="#FFF" fill-rule="evenodd"/></svg>