<?xml version="1.0" encoding="utf-8"?>
<!-- Generator: Adobe Illustrator 15.0.0, SVG Export Plug-In . SVG Version: 6.00 Build 0)  -->
<!DOCTYPE svg PUBLIC "-//W3C//DTD SVG 1.1//EN" "http://www.w3.org/Graphics/SVG/1.1/DTD/svg11.dtd">
<svg version="1.1" xmlns="http://www.w3.org/2000/svg" xmlns:xlink="http://www.w3.org/1999/xlink" x="0px" y="0px" width="1500px"
	 height="291px" viewBox="0 0 1500 291" enable-background="new 0 0 1500 291" xml:space="preserve">
<g id="Layer_2" display="none">
	
		<rect x="-356.819" y="-115.207" display="inline" fill="#A01F1F" stroke="#000000" stroke-miterlimit="10" width="2028.203" height="558.056"/>
	<rect id="_x3C_Slice_x3E_" x="20.5" y="194" display="inline" fill="none" width="3" height="14"/>
</g>
<g id="Layer_1">
	<g>
		<path fill="#F7A9BD" d="M1477.96,180.04c-7.09-8.61-16.86-15.8-28.22-17.06c-0.61-1.41-1.2-2.82-1.78-4.23
			c8.011-2.689,16.21-6.38,21.39-13.35c4.5-5.76,4.78-13.47,4.34-20.45c-1.08-13.18-6.27-25.53-10.879-37.78
			c-2.101-4.99,0.41-10.19,1.5-15.1c3.729-15.11,7.02-30.41,8.219-45.95c0.291-6.4,0.691-13.06-1.459-19.2
			c-1.7-5.52-9.51-7.16-13.78-3.62c-3.681,2.96-5.71,7.4-7.351,11.71c-3.239,9.01-4.799,18.51-6.039,27.97
			c-1.43,12.11-2.371,24.3-2.4,36.51c-3.641-1.73-7.4-3.39-11.46-3.75c-11.31-1.15-22.67,0.51-33.771,2.6
			c-0.68-11.12-1.27-22.26-2.729-33.31c-1.67-12.14-3.55-24.55-8.91-35.7c-1.78-3.95-5.04-6.92-8.55-9.33h-4.12
			c-3.47,1.6-6.89,3.98-8.229,7.72c-2.86,7.6-2.03,15.94-1.051,23.81c2.051,14.41,5.961,28.48,10.53,42.27
			c1.91,5.78,5.25,11.93,2.78,18.09c-4.311,11.87-7.49,24.4-7.051,37.12c0.36,8.05,2.66,16.63,8.881,22.16
			c3.58,3.29,8.25,4.91,12.699,6.63c-0.16,1.57-0.319,3.14-0.5,4.7c-3.76,0.221-7.89-0.02-11.06,2.359
			c-9.55,7.051-19.649,14.851-23.771,26.451c-4.33,11.539-0.239,24.33,6.42,34.109c3.551,5.5,8.611,9.811,14.131,13.27
			c1.279,5.83,2.42,11.701,4.31,17.381c1.11,3.57,2.58,7.13,2.671,10.93c0.029,3.59-1.811,6.79-3.021,10.061
			c0.12,2.149-0.15,4.979,2.229,6.02c4.75,2.51,10.521,3.72,15.82,2.57c3.65-1.82,2.21-6.66,1.859-9.851
			c-0.359-2.55-0.979-5.13-0.659-7.72c0.3-1.98,2.21-3,4.03-3.15c13.6-1.709,27.52-1.6,40.939,1.271
			c4.43,0.829,4.58,6.17,4.78,9.739c0,3.211-0.56,6.451,0,9.641c0.78,2.609,4.05,2.75,6.31,2.891c2.65-0.08,5.68,0.069,7.92-1.541
			c2-2.84,1.521-6.59,1.33-9.869c-0.55-4.631-2.98-9.711-0.31-14.101c4.17-7.399,5.29-15.92,6.11-24.229
			c8.149-4.15,12.709-12.61,15.969-20.76C1490.8,205.04,1486.109,190.52,1477.96,180.04z M1383.721,189.721
			c-3.191,9.619-5.25,19.559-7.551,29.42c-4.12-4.141-8.16-8.711-9.82-14.451c-2.039-6.34-0.77-13.66,3.51-18.789
			c4.771-5.801,11.73-9.09,18.351-12.28C1387.07,179.08,1385.52,184.439,1383.721,189.721z M1468.24,219.971
			c-3.051-15.761-8.76-30.801-14.17-45.861c9.47,4.761,19.27,12.051,21.5,23.051C1477.25,205.609,1471.641,212.779,1468.24,219.971z
			"/>
		<path fill="#A77E8B" d="M1399.609,275.8c16.361-0.54,32.73-0.38,49.091,0.14c0,3.211-0.56,6.451,0,9.641
			c0.78,2.609,4.05,2.75,6.31,2.891c2.65-0.08,5.68,0.069,7.92-1.541c2-2.84,1.521-6.59,1.33-9.869
			c6.95,0.529,13.91,1.229,20.76,2.619c3.211,0.551,6.141,2.051,8.82,3.84c-3.779,1.92-7.83,3.311-12.029,3.92
			c-15.15,2.371-30.511,3.061-45.82,3.391c-22.07,0.279-44.2,0.21-66.17-2.17c-6.721-0.85-13.66-1.49-19.82-4.52v-2.131
			c9.52-3.41,19.67-4.369,29.7-4.949c0.12,2.149-0.15,4.979,2.229,6.02c4.75,2.51,10.521,3.72,15.82,2.57
			C1401.4,283.83,1399.96,278.99,1399.609,275.8z"/>
	</g>
	<g>
		<path fill="#F7A9BD" d="M1327.96,180.04c-7.09-8.61-16.86-15.8-28.22-17.06c-0.61-1.41-1.2-2.82-1.78-4.23
			c8.011-2.689,16.21-6.38,21.39-13.35c4.5-5.76,4.78-13.47,4.34-20.45c-1.08-13.18-6.27-25.53-10.879-37.78
			c-2.101-4.99,0.41-10.19,1.5-15.1c3.729-15.11,7.02-30.41,8.219-45.95c0.291-6.4,0.691-13.06-1.459-19.2
			c-1.7-5.52-9.51-7.16-13.78-3.62c-3.681,2.96-5.71,7.4-7.351,11.71c-3.239,9.01-4.799,18.51-6.039,27.97
			c-1.43,12.11-2.371,24.3-2.4,36.51c-3.641-1.73-7.4-3.39-11.46-3.75c-11.31-1.15-22.67,0.51-33.771,2.6
			c-0.68-11.12-1.27-22.26-2.729-33.31c-1.67-12.14-3.55-24.55-8.91-35.7c-1.78-3.95-5.04-6.92-8.55-9.33h-4.12
			c-3.47,1.6-6.89,3.98-8.229,7.72c-2.86,7.6-2.03,15.94-1.051,23.81c2.051,14.41,5.961,28.48,10.53,42.27
			c1.91,5.78,5.25,11.93,2.78,18.09c-4.311,11.87-7.49,24.4-7.051,37.12c0.36,8.05,2.66,16.63,8.881,22.16
			c3.58,3.29,8.25,4.91,12.699,6.63c-0.16,1.57-0.319,3.14-0.5,4.7c-3.76,0.221-7.89-0.02-11.06,2.359
			c-9.55,7.051-19.649,14.851-23.771,26.451c-4.33,11.539-0.239,24.33,6.42,34.109c3.551,5.5,8.611,9.811,14.131,13.27
			c1.279,5.83,2.42,11.701,4.31,17.381c1.11,3.57,2.58,7.13,2.671,10.93c0.029,3.59-1.811,6.79-3.021,10.061
			c0.12,2.149-0.15,4.979,2.229,6.02c4.75,2.51,10.521,3.72,15.82,2.57c3.65-1.82,2.21-6.66,1.859-9.851
			c-0.359-2.55-0.979-5.13-0.659-7.72c0.3-1.98,2.21-3,4.03-3.15c13.6-1.709,27.52-1.6,40.939,1.271
			c4.43,0.829,4.58,6.17,4.78,9.739c0,3.211-0.56,6.451,0,9.641c0.78,2.609,4.05,2.75,6.31,2.891c2.65-0.08,5.68,0.069,7.92-1.541
			c2-2.84,1.521-6.59,1.33-9.869c-0.55-4.631-2.98-9.711-0.31-14.101c4.17-7.399,5.29-15.92,6.11-24.229
			c8.149-4.15,12.709-12.61,15.969-20.76C1340.8,205.04,1336.109,190.52,1327.96,180.04z M1233.721,189.721
			c-3.191,9.619-5.25,19.559-7.551,29.42c-4.12-4.141-8.16-8.711-9.82-14.451c-2.039-6.34-0.77-13.66,3.51-18.789
			c4.771-5.801,11.73-9.09,18.351-12.28C1237.07,179.08,1235.52,184.439,1233.721,189.721z M1318.24,219.971
			c-3.051-15.761-8.76-30.801-14.17-45.861c9.47,4.761,19.27,12.051,21.5,23.051C1327.25,205.609,1321.641,212.779,1318.24,219.971z
			"/>
		<path fill="#A77E8B" d="M1249.609,275.8c16.361-0.54,32.73-0.38,49.091,0.14c0,3.211-0.56,6.451,0,9.641
			c0.78,2.609,4.05,2.75,6.31,2.891c2.65-0.08,5.68,0.069,7.92-1.541c2-2.84,1.521-6.59,1.33-9.869
			c6.95,0.529,13.91,1.229,20.76,2.619c3.211,0.551,6.141,2.051,8.82,3.84c-3.779,1.92-7.83,3.311-12.029,3.92
			c-15.15,2.371-30.511,3.061-45.82,3.391c-22.07,0.279-44.2,0.21-66.17-2.17c-6.721-0.85-13.66-1.49-19.82-4.52v-2.131
			c9.52-3.41,19.67-4.369,29.7-4.949c0.12,2.149-0.15,4.979,2.229,6.02c4.75,2.51,10.521,3.72,15.82,2.57
			C1251.4,283.83,1249.96,278.99,1249.609,275.8z"/>
	</g>
	<g>
		<path fill="#F7A9BD" d="M1177.96,180.04c-7.09-8.61-16.86-15.8-28.22-17.06c-0.61-1.41-1.2-2.82-1.78-4.23
			c8.011-2.689,16.21-6.38,21.39-13.35c4.5-5.76,4.78-13.47,4.34-20.45c-1.08-13.18-6.27-25.53-10.879-37.78
			c-2.101-4.99,0.41-10.19,1.5-15.1c3.729-15.11,7.02-30.41,8.219-45.95c0.291-6.4,0.691-13.06-1.459-19.2
			c-1.7-5.52-9.51-7.16-13.78-3.62c-3.681,2.96-5.71,7.4-7.351,11.71c-3.239,9.01-4.799,18.51-6.039,27.97
			c-1.43,12.11-2.371,24.3-2.4,36.51c-3.641-1.73-7.4-3.39-11.46-3.75c-11.31-1.15-22.67,0.51-33.771,2.6
			c-0.68-11.12-1.27-22.26-2.729-33.31c-1.67-12.14-3.55-24.55-8.91-35.7c-1.78-3.95-5.04-6.92-8.55-9.33h-4.12
			c-3.47,1.6-6.89,3.98-8.229,7.72c-2.86,7.6-2.03,15.94-1.051,23.81c2.051,14.41,5.961,28.48,10.53,42.27
			c1.91,5.78,5.25,11.93,2.78,18.09c-4.311,11.87-7.49,24.4-7.051,37.12c0.36,8.05,2.66,16.63,8.881,22.16
			c3.58,3.29,8.25,4.91,12.699,6.63c-0.16,1.57-0.319,3.14-0.5,4.7c-3.76,0.221-7.89-0.02-11.06,2.359
			c-9.55,7.051-19.649,14.851-23.771,26.451c-4.33,11.539-0.239,24.33,6.42,34.109c3.551,5.5,8.611,9.811,14.131,13.27
			c1.279,5.83,2.42,11.701,4.31,17.381c1.11,3.57,2.58,7.13,2.671,10.93c0.029,3.59-1.811,6.79-3.021,10.061
			c0.12,2.149-0.15,4.979,2.229,6.02c4.75,2.51,10.521,3.72,15.82,2.57c3.65-1.82,2.21-6.66,1.859-9.851
			c-0.359-2.55-0.979-5.13-0.659-7.72c0.3-1.98,2.21-3,4.03-3.15c13.6-1.709,27.52-1.6,40.939,1.271
			c4.43,0.829,4.58,6.17,4.78,9.739c0,3.211-0.56,6.451,0,9.641c0.78,2.609,4.05,2.75,6.31,2.891c2.65-0.08,5.68,0.069,7.92-1.541
			c2-2.84,1.521-6.59,1.33-9.869c-0.55-4.631-2.98-9.711-0.31-14.101c4.17-7.399,5.29-15.92,6.11-24.229
			c8.149-4.15,12.709-12.61,15.969-20.76C1190.8,205.04,1186.109,190.52,1177.96,180.04z M1083.721,189.721
			c-3.191,9.619-5.25,19.559-7.551,29.42c-4.12-4.141-8.16-8.711-9.82-14.451c-2.039-6.34-0.77-13.66,3.51-18.789
			c4.771-5.801,11.73-9.09,18.351-12.28C1087.07,179.08,1085.52,184.439,1083.721,189.721z M1168.24,219.971
			c-3.051-15.761-8.76-30.801-14.17-45.861c9.47,4.761,19.27,12.051,21.5,23.051C1177.25,205.609,1171.641,212.779,1168.24,219.971z
			"/>
		<path fill="#A77E8B" d="M1099.609,275.8c16.361-0.54,32.73-0.38,49.091,0.14c0,3.211-0.56,6.451,0,9.641
			c0.78,2.609,4.05,2.75,6.31,2.891c2.65-0.08,5.68,0.069,7.92-1.541c2-2.84,1.521-6.59,1.33-9.869
			c6.95,0.529,13.91,1.229,20.76,2.619c3.211,0.551,6.141,2.051,8.82,3.84c-3.779,1.92-7.83,3.311-12.029,3.92
			c-15.15,2.371-30.511,3.061-45.82,3.391c-22.07,0.279-44.2,0.21-66.17-2.17c-6.721-0.85-13.66-1.49-19.82-4.52v-2.131
			c9.52-3.41,19.67-4.369,29.7-4.949c0.12,2.149-0.15,4.979,2.229,6.02c4.75,2.51,10.521,3.72,15.82,2.57
			C1101.4,283.83,1099.96,278.99,1099.609,275.8z"/>
	</g>
	<g>
		<path fill="#F7A9BD" d="M1027.96,180.04c-7.09-8.61-16.86-15.8-28.22-17.06c-0.61-1.41-1.2-2.82-1.78-4.23
			c8.011-2.689,16.21-6.38,21.39-13.35c4.5-5.76,4.78-13.47,4.34-20.45c-1.08-13.18-6.27-25.53-10.879-37.78
			c-2.101-4.99,0.41-10.19,1.5-15.1c3.729-15.11,7.02-30.41,8.219-45.95c0.291-6.4,0.691-13.06-1.459-19.2
			c-1.7-5.52-9.51-7.16-13.78-3.62c-3.681,2.96-5.71,7.4-7.351,11.71c-3.239,9.01-4.799,18.51-6.039,27.97
			c-1.43,12.11-2.371,24.3-2.4,36.51c-3.641-1.73-7.4-3.39-11.46-3.75c-11.31-1.15-22.67,0.51-33.771,2.6
			c-0.68-11.12-1.27-22.26-2.729-33.31c-1.67-12.14-3.55-24.55-8.91-35.7c-1.78-3.95-5.04-6.92-8.55-9.33h-4.12
			c-3.47,1.6-6.89,3.98-8.229,7.72c-2.86,7.6-2.03,15.94-1.051,23.81c2.051,14.41,5.961,28.48,10.53,42.27
			c1.91,5.78,5.25,11.93,2.78,18.09c-4.311,11.87-7.49,24.4-7.051,37.12c0.36,8.05,2.66,16.63,8.881,22.16
			c3.58,3.29,8.25,4.91,12.699,6.63c-0.16,1.57-0.319,3.14-0.5,4.7c-3.76,0.221-7.89-0.02-11.06,2.359
			c-9.55,7.051-19.649,14.851-23.771,26.451c-4.33,11.539-0.239,24.33,6.42,34.109c3.551,5.5,8.611,9.811,14.131,13.27
			c1.279,5.83,2.42,11.701,4.31,17.381c1.11,3.57,2.58,7.13,2.671,10.93c0.029,3.59-1.811,6.79-3.021,10.061
			c0.12,2.149-0.15,4.979,2.229,6.02c4.75,2.51,10.521,3.72,15.82,2.57c3.65-1.82,2.21-6.66,1.859-9.851
			c-0.359-2.55-0.979-5.13-0.659-7.72c0.3-1.98,2.21-3,4.03-3.15c13.6-1.709,27.52-1.6,40.939,1.271
			c4.43,0.829,4.58,6.17,4.78,9.739c0,3.211-0.56,6.451,0,9.641c0.78,2.609,4.05,2.75,6.31,2.891c2.65-0.08,5.68,0.069,7.92-1.541
			c2-2.84,1.521-6.59,1.33-9.869c-0.55-4.631-2.98-9.711-0.31-14.101c4.17-7.399,5.29-15.92,6.11-24.229
			c8.149-4.15,12.709-12.61,15.969-20.76C1040.8,205.04,1036.109,190.52,1027.96,180.04z M933.721,189.721
			c-3.191,9.619-5.25,19.559-7.551,29.42c-4.12-4.141-8.16-8.711-9.82-14.451c-2.039-6.34-0.77-13.66,3.51-18.789
			c4.771-5.801,11.73-9.09,18.351-12.28C937.07,179.08,935.52,184.439,933.721,189.721z M1018.24,219.971
			c-3.051-15.761-8.76-30.801-14.17-45.861c9.47,4.761,19.27,12.051,21.5,23.051C1027.25,205.609,1021.641,212.779,1018.24,219.971z
			"/>
		<path fill="#A77E8B" d="M949.609,275.8c16.361-0.54,32.73-0.38,49.091,0.14c0,3.211-0.56,6.451,0,9.641
			c0.78,2.609,4.05,2.75,6.31,2.891c2.65-0.08,5.68,0.069,7.92-1.541c2-2.84,1.521-6.59,1.33-9.869
			c6.95,0.529,13.91,1.229,20.76,2.619c3.211,0.551,6.141,2.051,8.82,3.84c-3.779,1.92-7.83,3.311-12.029,3.92
			c-15.15,2.371-30.511,3.061-45.82,3.391c-22.07,0.279-44.2,0.21-66.17-2.17c-6.721-0.85-13.66-1.49-19.82-4.52v-2.131
			c9.52-3.41,19.67-4.369,29.7-4.949c0.12,2.149-0.15,4.979,2.229,6.02c4.75,2.51,10.521,3.72,15.82,2.57
			C951.4,283.83,949.96,278.99,949.609,275.8z"/>
	</g>
	<g>
		<path fill="#F7A9BD" d="M877.96,180.04c-7.09-8.61-16.86-15.8-28.22-17.06c-0.61-1.41-1.2-2.82-1.78-4.23
			c8.011-2.689,16.21-6.38,21.39-13.35c4.5-5.76,4.78-13.47,4.34-20.45c-1.08-13.18-6.27-25.53-10.879-37.78
			c-2.101-4.99,0.41-10.19,1.5-15.1c3.729-15.11,7.02-30.41,8.219-45.95c0.291-6.4,0.691-13.06-1.459-19.2
			c-1.7-5.52-9.51-7.16-13.78-3.62c-3.681,2.96-5.71,7.4-7.351,11.71c-3.239,9.01-4.799,18.51-6.039,27.97
			c-1.43,12.11-2.371,24.3-2.4,36.51c-3.641-1.73-7.4-3.39-11.46-3.75c-11.31-1.15-22.67,0.51-33.771,2.6
			c-0.68-11.12-1.27-22.26-2.729-33.31c-1.67-12.14-3.55-24.55-8.91-35.7c-1.78-3.95-5.04-6.92-8.55-9.33h-4.12
			c-3.47,1.6-6.89,3.98-8.229,7.72c-2.86,7.6-2.03,15.94-1.051,23.81c2.051,14.41,5.961,28.48,10.53,42.27
			c1.91,5.78,5.25,11.93,2.78,18.09c-4.311,11.87-7.49,24.4-7.051,37.12c0.36,8.05,2.66,16.63,8.881,22.16
			c3.58,3.29,8.25,4.91,12.699,6.63c-0.16,1.57-0.319,3.14-0.5,4.7c-3.76,0.221-7.89-0.02-11.06,2.359
			c-9.55,7.051-19.649,14.851-23.771,26.451c-4.33,11.539-0.239,24.33,6.42,34.109c3.551,5.5,8.611,9.811,14.131,13.27
			c1.279,5.83,2.42,11.701,4.31,17.381c1.11,3.57,2.58,7.13,2.671,10.93c0.029,3.59-1.811,6.79-3.021,10.061
			c0.12,2.149-0.15,4.979,2.229,6.02c4.75,2.51,10.521,3.72,15.82,2.57c3.65-1.82,2.21-6.66,1.859-9.851
			c-0.359-2.55-0.979-5.13-0.659-7.72c0.3-1.98,2.21-3,4.03-3.15c13.6-1.709,27.52-1.6,40.939,1.271
			c4.43,0.829,4.58,6.17,4.78,9.739c0,3.211-0.56,6.451,0,9.641c0.78,2.609,4.05,2.75,6.31,2.891c2.65-0.08,5.68,0.069,7.92-1.541
			c2-2.84,1.521-6.59,1.33-9.869c-0.55-4.631-2.98-9.711-0.31-14.101c4.17-7.399,5.29-15.92,6.11-24.229
			c8.149-4.15,12.709-12.61,15.969-20.76C890.8,205.04,886.109,190.52,877.96,180.04z M783.721,189.721
			c-3.191,9.619-5.25,19.559-7.551,29.42c-4.12-4.141-8.16-8.711-9.82-14.451c-2.039-6.34-0.77-13.66,3.51-18.789
			c4.771-5.801,11.73-9.09,18.351-12.28C787.07,179.08,785.52,184.439,783.721,189.721z M868.24,219.971
			c-3.051-15.761-8.76-30.801-14.17-45.861c9.47,4.761,19.27,12.051,21.5,23.051C877.25,205.609,871.641,212.779,868.24,219.971z"/>
		<path fill="#A77E8B" d="M799.609,275.8c16.361-0.54,32.73-0.38,49.091,0.14c0,3.211-0.56,6.451,0,9.641
			c0.78,2.609,4.05,2.75,6.31,2.891c2.65-0.08,5.68,0.069,7.92-1.541c2-2.84,1.521-6.59,1.33-9.869
			c6.95,0.529,13.91,1.229,20.76,2.619c3.211,0.551,6.141,2.051,8.82,3.84c-3.779,1.92-7.83,3.311-12.029,3.92
			c-15.15,2.371-30.511,3.061-45.82,3.391c-22.07,0.279-44.2,0.21-66.17-2.17c-6.721-0.85-13.66-1.49-19.82-4.52v-2.131
			c9.52-3.41,19.67-4.369,29.7-4.949c0.12,2.149-0.15,4.979,2.229,6.02c4.75,2.51,10.521,3.72,15.82,2.57
			C801.4,283.83,799.96,278.99,799.609,275.8z"/>
	</g>
	<g>
		<path fill="#F7A9BD" d="M727.96,180.04c-7.09-8.61-16.86-15.8-28.22-17.06c-0.61-1.41-1.2-2.82-1.78-4.23
			c8.01-2.689,16.21-6.38,21.39-13.35c4.5-5.76,4.78-13.47,4.34-20.45c-1.08-13.18-6.27-25.53-10.88-37.78
			c-2.1-4.99,0.41-10.19,1.5-15.1c3.73-15.11,7.02-30.41,8.22-45.95c0.29-6.4,0.69-13.06-1.46-19.2c-1.7-5.52-9.51-7.16-13.78-3.62
			c-3.68,2.96-5.71,7.4-7.35,11.71c-3.24,9.01-4.8,18.51-6.04,27.97c-1.43,12.11-2.37,24.3-2.4,36.51
			c-3.64-1.73-7.4-3.39-11.46-3.75c-11.31-1.15-22.67,0.51-33.77,2.6c-0.68-11.12-1.27-22.26-2.73-33.31
			c-1.67-12.14-3.55-24.55-8.91-35.7c-1.78-3.95-5.04-6.92-8.55-9.33h-4.12c-3.47,1.6-6.89,3.98-8.23,7.72
			c-2.86,7.6-2.03,15.94-1.05,23.81c2.05,14.41,5.96,28.48,10.53,42.27c1.91,5.78,5.25,11.93,2.78,18.09
			c-4.31,11.87-7.49,24.4-7.05,37.12c0.36,8.05,2.66,16.63,8.88,22.16c3.58,3.29,8.25,4.91,12.7,6.63c-0.16,1.57-0.32,3.14-0.5,4.7
			c-3.76,0.221-7.89-0.02-11.06,2.359c-9.55,7.051-19.65,14.851-23.77,26.451c-4.33,11.539-0.24,24.33,6.42,34.109
			c3.55,5.5,8.61,9.811,14.13,13.27c1.28,5.83,2.42,11.701,4.31,17.381c1.11,3.57,2.58,7.13,2.67,10.93
			c0.03,3.59-1.81,6.79-3.02,10.061c0.12,2.149-0.15,4.979,2.23,6.02c4.75,2.51,10.52,3.72,15.82,2.57
			c3.65-1.82,2.21-6.66,1.86-9.851c-0.36-2.55-0.98-5.13-0.66-7.72c0.3-1.98,2.21-3,4.03-3.15c13.6-1.709,27.52-1.6,40.94,1.271
			c4.43,0.829,4.58,6.17,4.78,9.739c0,3.211-0.56,6.451,0,9.641c0.78,2.609,4.05,2.75,6.31,2.891c2.65-0.08,5.68,0.069,7.92-1.541
			c2-2.84,1.52-6.59,1.33-9.869c-0.55-4.631-2.98-9.711-0.31-14.101c4.17-7.399,5.29-15.92,6.11-24.229
			c8.15-4.15,12.71-12.61,15.97-20.76C740.8,205.04,736.11,190.52,727.96,180.04z M633.72,189.721
			c-3.19,9.619-5.25,19.559-7.55,29.42c-4.12-4.141-8.16-8.711-9.82-14.451c-2.04-6.34-0.77-13.66,3.51-18.789
			c4.77-5.801,11.73-9.09,18.35-12.28C637.07,179.08,635.52,184.439,633.72,189.721z M718.24,219.971
			c-3.05-15.761-8.76-30.801-14.17-45.861c9.47,4.761,19.27,12.051,21.5,23.051C727.25,205.609,721.64,212.779,718.24,219.971z"/>
		<path fill="#A77E8B" d="M649.61,275.8c16.36-0.54,32.73-0.38,49.09,0.14c0,3.211-0.56,6.451,0,9.641
			c0.78,2.609,4.05,2.75,6.31,2.891c2.65-0.08,5.68,0.069,7.92-1.541c2-2.84,1.52-6.59,1.33-9.869
			c6.95,0.529,13.91,1.229,20.76,2.619c3.21,0.551,6.14,2.051,8.82,3.84c-3.78,1.92-7.83,3.311-12.03,3.92
			c-15.15,2.371-30.51,3.061-45.82,3.391c-22.07,0.279-44.2,0.21-66.17-2.17c-6.72-0.85-13.66-1.49-19.82-4.52v-2.131
			c9.52-3.41,19.67-4.369,29.7-4.949c0.12,2.149-0.15,4.979,2.23,6.02c4.75,2.51,10.52,3.72,15.82,2.57
			C651.4,283.83,649.96,278.99,649.61,275.8z"/>
	</g>
	<g>
		<path fill="#F7A9BD" d="M577.96,180.04c-7.09-8.61-16.86-15.8-28.22-17.06c-0.61-1.41-1.2-2.82-1.78-4.23
			c8.01-2.689,16.21-6.38,21.39-13.35c4.5-5.76,4.78-13.47,4.34-20.45c-1.08-13.18-6.27-25.53-10.88-37.78
			c-2.1-4.99,0.41-10.19,1.5-15.1c3.73-15.11,7.02-30.41,8.22-45.95c0.29-6.4,0.69-13.06-1.46-19.2c-1.7-5.52-9.51-7.16-13.78-3.62
			c-3.68,2.96-5.71,7.4-7.35,11.71c-3.24,9.01-4.8,18.51-6.04,27.97c-1.43,12.11-2.37,24.3-2.4,36.51
			c-3.64-1.73-7.4-3.39-11.46-3.75c-11.31-1.15-22.67,0.51-33.77,2.6c-0.68-11.12-1.27-22.26-2.73-33.31
			c-1.67-12.14-3.55-24.55-8.91-35.7c-1.78-3.95-5.04-6.92-8.55-9.33h-4.12c-3.47,1.6-6.89,3.98-8.23,7.72
			c-2.86,7.6-2.03,15.94-1.05,23.81c2.05,14.41,5.96,28.48,10.53,42.27c1.91,5.78,5.25,11.93,2.78,18.09
			c-4.31,11.87-7.49,24.4-7.05,37.12c0.36,8.05,2.66,16.63,8.88,22.16c3.58,3.29,8.25,4.91,12.7,6.63c-0.16,1.57-0.32,3.14-0.5,4.7
			c-3.76,0.221-7.89-0.02-11.06,2.359c-9.55,7.051-19.65,14.851-23.77,26.451c-4.33,11.539-0.24,24.33,6.42,34.109
			c3.55,5.5,8.61,9.811,14.13,13.27c1.28,5.83,2.42,11.701,4.31,17.381c1.11,3.57,2.58,7.13,2.67,10.93
			c0.03,3.59-1.81,6.79-3.02,10.061c0.12,2.149-0.15,4.979,2.23,6.02c4.75,2.51,10.52,3.72,15.82,2.57
			c3.65-1.82,2.21-6.66,1.86-9.851c-0.36-2.55-0.98-5.13-0.66-7.72c0.3-1.98,2.21-3,4.03-3.15c13.6-1.709,27.52-1.6,40.94,1.271
			c4.43,0.829,4.58,6.17,4.78,9.739c0,3.211-0.56,6.451,0,9.641c0.78,2.609,4.05,2.75,6.31,2.891c2.65-0.08,5.68,0.069,7.92-1.541
			c2-2.84,1.52-6.59,1.33-9.869c-0.55-4.631-2.98-9.711-0.31-14.101c4.17-7.399,5.29-15.92,6.11-24.229
			c8.15-4.15,12.71-12.61,15.97-20.76C590.8,205.04,586.11,190.52,577.96,180.04z M483.72,189.721
			c-3.19,9.619-5.25,19.559-7.55,29.42c-4.12-4.141-8.16-8.711-9.82-14.451c-2.04-6.34-0.77-13.66,3.51-18.789
			c4.77-5.801,11.73-9.09,18.35-12.28C487.07,179.08,485.52,184.439,483.72,189.721z M568.24,219.971
			c-3.05-15.761-8.76-30.801-14.17-45.861c9.47,4.761,19.27,12.051,21.5,23.051C577.25,205.609,571.64,212.779,568.24,219.971z"/>
		<path fill="#A77E8B" d="M499.61,275.8c16.36-0.54,32.73-0.38,49.09,0.14c0,3.211-0.56,6.451,0,9.641
			c0.78,2.609,4.05,2.75,6.31,2.891c2.65-0.08,5.68,0.069,7.92-1.541c2-2.84,1.52-6.59,1.33-9.869
			c6.95,0.529,13.91,1.229,20.76,2.619c3.21,0.551,6.14,2.051,8.82,3.84c-3.78,1.92-7.83,3.311-12.03,3.92
			c-15.15,2.371-30.51,3.061-45.82,3.391c-22.07,0.279-44.2,0.21-66.17-2.17c-6.72-0.85-13.66-1.49-19.82-4.52v-2.131
			c9.52-3.41,19.67-4.369,29.7-4.949c0.12,2.149-0.15,4.979,2.23,6.02c4.75,2.51,10.52,3.72,15.82,2.57
			C501.4,283.83,499.96,278.99,499.61,275.8z"/>
	</g>
	<g>
		<path fill="#F7A9BD" d="M427.96,180.04c-7.09-8.61-16.86-15.8-28.22-17.06c-0.61-1.41-1.2-2.82-1.78-4.23
			c8.01-2.689,16.21-6.38,21.39-13.35c4.5-5.76,4.78-13.47,4.34-20.45c-1.08-13.18-6.27-25.53-10.88-37.78
			c-2.1-4.99,0.41-10.19,1.5-15.1c3.73-15.11,7.02-30.41,8.22-45.95c0.29-6.4,0.69-13.06-1.46-19.2c-1.7-5.52-9.51-7.16-13.78-3.62
			c-3.68,2.96-5.71,7.4-7.35,11.71c-3.24,9.01-4.8,18.51-6.04,27.97c-1.43,12.11-2.37,24.3-2.4,36.51
			c-3.64-1.73-7.4-3.39-11.46-3.75c-11.31-1.15-22.67,0.51-33.77,2.6c-0.68-11.12-1.27-22.26-2.73-33.31
			c-1.67-12.14-3.55-24.55-8.91-35.7c-1.78-3.95-5.04-6.92-8.55-9.33h-4.12c-3.47,1.6-6.89,3.98-8.23,7.72
			c-2.86,7.6-2.03,15.94-1.05,23.81c2.05,14.41,5.96,28.48,10.53,42.27c1.91,5.78,5.25,11.93,2.78,18.09
			c-4.31,11.87-7.49,24.4-7.05,37.12c0.36,8.05,2.66,16.63,8.88,22.16c3.58,3.29,8.25,4.91,12.7,6.63c-0.16,1.57-0.32,3.14-0.5,4.7
			c-3.76,0.221-7.89-0.02-11.06,2.359c-9.55,7.051-19.65,14.851-23.77,26.451c-4.33,11.539-0.24,24.33,6.42,34.109
			c3.55,5.5,8.61,9.811,14.13,13.27c1.28,5.83,2.42,11.701,4.31,17.381c1.11,3.57,2.58,7.13,2.67,10.93
			c0.03,3.59-1.81,6.79-3.02,10.061c0.12,2.149-0.15,4.979,2.23,6.02c4.75,2.51,10.52,3.72,15.82,2.57
			c3.65-1.82,2.21-6.66,1.86-9.851c-0.36-2.55-0.98-5.13-0.66-7.72c0.3-1.98,2.21-3,4.03-3.15c13.6-1.709,27.52-1.6,40.94,1.271
			c4.43,0.829,4.58,6.17,4.78,9.739c0,3.211-0.56,6.451,0,9.641c0.78,2.609,4.05,2.75,6.31,2.891c2.65-0.08,5.68,0.069,7.92-1.541
			c2-2.84,1.52-6.59,1.33-9.869c-0.55-4.631-2.98-9.711-0.31-14.101c4.17-7.399,5.29-15.92,6.11-24.229
			c8.15-4.15,12.71-12.61,15.97-20.76C440.8,205.04,436.11,190.52,427.96,180.04z M333.72,189.721
			c-3.19,9.619-5.25,19.559-7.55,29.42c-4.12-4.141-8.16-8.711-9.82-14.451c-2.04-6.34-0.77-13.66,3.51-18.789
			c4.77-5.801,11.73-9.09,18.35-12.28C337.07,179.08,335.52,184.439,333.72,189.721z M418.24,219.971
			c-3.05-15.761-8.76-30.801-14.17-45.861c9.47,4.761,19.27,12.051,21.5,23.051C427.25,205.609,421.64,212.779,418.24,219.971z"/>
		<path fill="#A77E8B" d="M349.61,275.8c16.36-0.54,32.73-0.38,49.09,0.14c0,3.211-0.56,6.451,0,9.641
			c0.78,2.609,4.05,2.75,6.31,2.891c2.65-0.08,5.68,0.069,7.92-1.541c2-2.84,1.52-6.59,1.33-9.869
			c6.95,0.529,13.91,1.229,20.76,2.619c3.21,0.551,6.14,2.051,8.82,3.84c-3.78,1.92-7.83,3.311-12.03,3.92
			c-15.15,2.371-30.51,3.061-45.82,3.391c-22.07,0.279-44.2,0.21-66.17-2.17c-6.72-0.85-13.66-1.49-19.82-4.52v-2.131
			c9.52-3.41,19.67-4.369,29.7-4.949c0.12,2.149-0.15,4.979,2.23,6.02c4.75,2.51,10.52,3.72,15.82,2.57
			C351.4,283.83,349.96,278.99,349.61,275.8z"/>
	</g>
	<g>
		<path fill="#F7A9BD" d="M277.96,180.04c-7.09-8.61-16.86-15.8-28.22-17.06c-0.61-1.41-1.2-2.82-1.78-4.23
			c8.01-2.689,16.21-6.38,21.39-13.35c4.5-5.76,4.78-13.47,4.34-20.45c-1.08-13.18-6.27-25.53-10.88-37.78
			c-2.1-4.99,0.41-10.19,1.5-15.1c3.73-15.11,7.02-30.41,8.22-45.95c0.29-6.4,0.69-13.06-1.46-19.2c-1.7-5.52-9.51-7.16-13.78-3.62
			c-3.68,2.96-5.71,7.4-7.35,11.71c-3.24,9.01-4.8,18.51-6.04,27.97c-1.43,12.11-2.37,24.3-2.4,36.51
			c-3.64-1.73-7.4-3.39-11.46-3.75c-11.31-1.15-22.67,0.51-33.77,2.6c-0.68-11.12-1.27-22.26-2.73-33.31
			c-1.67-12.14-3.55-24.55-8.91-35.7c-1.78-3.95-5.04-6.92-8.55-9.33h-4.12c-3.47,1.6-6.89,3.98-8.23,7.72
			c-2.86,7.6-2.03,15.94-1.05,23.81c2.05,14.41,5.96,28.48,10.53,42.27c1.91,5.78,5.25,11.93,2.78,18.09
			c-4.31,11.87-7.49,24.4-7.05,37.12c0.36,8.05,2.66,16.63,8.88,22.16c3.58,3.29,8.25,4.91,12.7,6.63c-0.16,1.57-0.32,3.14-0.5,4.7
			c-3.76,0.221-7.89-0.02-11.06,2.359c-9.55,7.051-19.65,14.851-23.77,26.451c-4.33,11.539-0.24,24.33,6.42,34.109
			c3.55,5.5,8.61,9.811,14.13,13.27c1.28,5.83,2.42,11.701,4.31,17.381c1.11,3.57,2.58,7.13,2.67,10.93
			c0.03,3.59-1.81,6.79-3.02,10.061c0.12,2.149-0.15,4.979,2.23,6.02c4.75,2.51,10.52,3.72,15.82,2.57
			c3.65-1.82,2.21-6.66,1.86-9.851c-0.36-2.55-0.98-5.13-0.66-7.72c0.3-1.98,2.21-3,4.03-3.15c13.6-1.709,27.52-1.6,40.94,1.271
			c4.43,0.829,4.58,6.17,4.78,9.739c0,3.211-0.56,6.451,0,9.641c0.78,2.609,4.05,2.75,6.31,2.891c2.65-0.08,5.68,0.069,7.92-1.541
			c2-2.84,1.52-6.59,1.33-9.869c-0.55-4.631-2.98-9.711-0.31-14.101c4.17-7.399,5.29-15.92,6.11-24.229
			c8.15-4.15,12.71-12.61,15.97-20.76C290.8,205.04,286.11,190.52,277.96,180.04z M183.72,189.721
			c-3.19,9.619-5.25,19.559-7.55,29.42c-4.12-4.141-8.16-8.711-9.82-14.451c-2.04-6.34-0.77-13.66,3.51-18.789
			c4.77-5.801,11.73-9.09,18.35-12.28C187.07,179.08,185.52,184.439,183.72,189.721z M268.24,219.971
			c-3.05-15.761-8.76-30.801-14.17-45.861c9.47,4.761,19.27,12.051,21.5,23.051C277.25,205.609,271.64,212.779,268.24,219.971z"/>
		<path fill="#A77E8B" d="M199.61,275.8c16.36-0.54,32.73-0.38,49.09,0.14c0,3.211-0.56,6.451,0,9.641
			c0.78,2.609,4.05,2.75,6.31,2.891c2.65-0.08,5.68,0.069,7.92-1.541c2-2.84,1.52-6.59,1.33-9.869
			c6.95,0.529,13.91,1.229,20.76,2.619c3.21,0.551,6.14,2.051,8.82,3.84c-3.78,1.92-7.83,3.311-12.03,3.92
			c-15.15,2.371-30.51,3.061-45.82,3.391c-22.07,0.279-44.2,0.21-66.17-2.17c-6.72-0.85-13.66-1.49-19.82-4.52v-2.131
			c9.52-3.41,19.67-4.369,29.7-4.949c0.12,2.149-0.15,4.979,2.23,6.02c4.75,2.51,10.52,3.72,15.82,2.57
			C201.4,283.83,199.96,278.99,199.61,275.8z"/>
	</g>
	<g>
		<path fill="#F7A9BD" d="M127.96,180.04c-7.09-8.61-16.86-15.8-28.22-17.06c-0.61-1.41-1.2-2.82-1.78-4.23
			c8.01-2.689,16.21-6.38,21.39-13.35c4.5-5.76,4.78-13.47,4.34-20.45c-1.08-13.18-6.27-25.53-10.88-37.78
			c-2.1-4.99,0.41-10.19,1.5-15.1c3.73-15.11,7.02-30.41,8.22-45.95c0.29-6.4,0.69-13.06-1.46-19.2c-1.7-5.52-9.51-7.16-13.78-3.62
			c-3.68,2.96-5.71,7.4-7.35,11.71c-3.24,9.01-4.8,18.51-6.04,27.97c-1.43,12.11-2.37,24.3-2.4,36.51
			c-3.64-1.73-7.4-3.39-11.46-3.75c-11.31-1.15-22.67,0.51-33.77,2.6C45.59,67.22,45,56.08,43.54,45.03
			c-1.67-12.14-3.55-24.55-8.91-35.7C32.85,5.38,29.59,2.41,26.08,0h-4.12c-3.47,1.6-6.89,3.98-8.23,7.72
			c-2.86,7.6-2.03,15.94-1.05,23.81c2.05,14.41,5.96,28.48,10.53,42.27c1.91,5.78,5.25,11.93,2.78,18.09
			c-4.31,11.87-7.49,24.4-7.05,37.12c0.36,8.05,2.66,16.63,8.88,22.16c3.58,3.29,8.25,4.91,12.7,6.63c-0.16,1.57-0.32,3.14-0.5,4.7
			c-3.76,0.221-7.89-0.02-11.06,2.359c-9.55,7.051-19.65,14.851-23.77,26.451c-4.33,11.539-0.24,24.33,6.42,34.109
			c3.55,5.5,8.61,9.811,14.13,13.27c1.28,5.83,2.42,11.701,4.31,17.381c1.11,3.57,2.58,7.13,2.67,10.93
			c0.03,3.59-1.81,6.79-3.02,10.061c0.12,2.149-0.15,4.979,2.23,6.02c4.75,2.51,10.52,3.72,15.82,2.57
			c3.65-1.82,2.21-6.66,1.86-9.851c-0.36-2.55-0.98-5.13-0.66-7.72c0.3-1.98,2.21-3,4.03-3.15c13.6-1.709,27.52-1.6,40.94,1.271
			c4.43,0.829,4.58,6.17,4.78,9.739c0,3.211-0.56,6.451,0,9.641c0.78,2.609,4.05,2.75,6.31,2.891c2.65-0.08,5.68,0.069,7.92-1.541
			c2-2.84,1.52-6.59,1.33-9.869c-0.55-4.631-2.98-9.711-0.31-14.101c4.17-7.399,5.29-15.92,6.11-24.229
			c8.15-4.15,12.71-12.61,15.97-20.76C140.8,205.04,136.11,190.52,127.96,180.04z M33.72,189.721
			c-3.19,9.619-5.25,19.559-7.55,29.42c-4.12-4.141-8.16-8.711-9.82-14.451c-2.04-6.34-0.77-13.66,3.51-18.789
			c4.77-5.801,11.73-9.09,18.35-12.28C37.07,179.08,35.52,184.439,33.72,189.721z M118.24,219.971
			c-3.05-15.761-8.76-30.801-14.17-45.861c9.47,4.761,19.27,12.051,21.5,23.051C127.25,205.609,121.64,212.779,118.24,219.971z"/>
		<path fill="#A77E8B" d="M49.61,275.8c16.36-0.54,32.73-0.38,49.09,0.14c0,3.211-0.56,6.451,0,9.641
			c0.78,2.609,4.05,2.75,6.31,2.891c2.65-0.08,5.68,0.069,7.92-1.541c2-2.84,1.52-6.59,1.33-9.869
			c6.95,0.529,13.91,1.229,20.76,2.619c3.21,0.551,6.14,2.051,8.82,3.84c-3.78,1.92-7.83,3.311-12.03,3.92
			c-15.15,2.371-30.51,3.061-45.82,3.391c-22.07,0.279-44.2,0.21-66.17-2.17c-6.72-0.85-13.66-1.49-19.82-4.52v-2.131
			c9.52-3.41,19.67-4.369,29.7-4.949c0.12,2.149-0.15,4.979,2.23,6.02c4.75,2.51,10.52,3.72,15.82,2.57
			C51.4,283.83,49.96,278.99,49.61,275.8z"/>
	</g>
	<path fill="#F16A8F" d="M110.24,25.34c2.77,0.06,3.86,3.3,3.9,5.63c0.24,6.9-1.93,13.59-3.93,20.12
		c-3.02,8.82-6.19,17.63-10.42,25.96c-0.48-9.54-0.1-19.11,0.84-28.61c0.73-6.05,1.52-12.24,4.04-17.86
		C105.77,28.27,107.47,25.65,110.24,25.34z"/>
	<path fill="#F16A8F" d="M255.34,29.3c1.11-1.96,2.99-4.16,5.47-3.92c2.84,0.73,3.37,4.16,3.37,6.64c-0.13,7.63-2.64,14.96-5,22.14
		c-2.81,7.71-5.55,15.5-9.38,22.78c-0.51-10-0.08-20.04,1-29.99C251.61,40.94,252.42,34.71,255.34,29.3z"/>
	<path fill="#F16A8F" d="M410.26,25.34c2.78,0.08,3.84,3.35,3.88,5.68c0.23,6.89-1.94,13.57-3.94,20.08
		c-3.02,8.79-6.15,17.61-10.41,25.89c-0.48-9.51-0.09-19.06,0.84-28.53c0.73-6.06,1.51-12.25,4.03-17.86
		C405.76,28.28,407.47,25.64,410.26,25.34z"/>
	<path fill="#F16A8F" d="M558.92,25.67c2.73-1.37,5.07,1.79,5.11,4.28c0.63,7.25-1.76,14.31-3.83,21.15
		c-3.03,8.78-6.12,17.58-10.41,25.83c-0.49-13.24-0.09-26.65,2.65-39.65C553.6,33.06,554.76,27.94,558.92,25.67z"/>
	<path fill="#F16A8F" d="M708.18,26.07c2.311-1.93,5.4,0.3,5.67,2.91c1.07,6.48-1.01,12.94-2.71,19.13
		c-3.14,9.9-6.77,19.68-11.33,29.02c-0.539-12.72-0.09-25.57,2.24-38.11C703.16,34.42,704.19,29.11,708.18,26.07z"/>
	<path fill="#F16A8F" d="M858.22,26.04c2.32-1.88,5.38,0.36,5.641,2.97c1.09,7.05-1.301,14.02-3.221,20.72
		c-3.109,9.23-6.33,18.5-10.84,27.15c-0.51-12.63-0.07-25.38,2.25-37.83C853.15,34.43,854.2,29.08,858.22,26.04z"/>
	<path fill="#F16A8F" d="M1008.229,26.04c2.33-1.9,5.391,0.4,5.641,3.02c1.07,7-1.3,13.93-3.2,20.59
		c-3.12,9.25-6.33,18.54-10.87,27.21c-0.52-12.64-0.07-25.41,2.26-37.86C1003.16,34.39,1004.21,29.05,1008.229,26.04z"/>
	<path fill="#F16A8F" d="M1159.65,25.43c3.02-0.62,4.52,3.06,4.489,5.53c0.221,7.71-2.369,15.14-4.689,22.39
		c-2.87,7.95-5.641,16-9.63,23.47c-0.53-13.42-0.12-27.03,2.779-40.18C1153.81,32.46,1155.08,27.09,1159.65,25.43z"/>
	<path fill="#F16A8F" d="M1308.21,26.05c2.36-1.93,5.43,0.42,5.67,3.05c1.03,6.72-1.18,13.39-2.979,19.79
		c-3.13,9.58-6.551,19.12-11.11,28.12c-0.5-12.67-0.07-25.47,2.26-37.96C1303.15,34.42,1304.19,29.08,1308.21,26.05z"/>
	<path fill="#F16A8F" d="M1458.16,26.09c2-1.72,4.95-0.19,5.49,2.18c1.489,6.41-0.671,12.93-2.29,19.11
		c-3.19,10.09-6.771,20.14-11.57,29.59c-0.5-12.34-0.061-24.78,2.07-36.96C1452.97,35.09,1453.94,29.37,1458.16,26.09z"/>
	<path fill="#F16A8F" d="M25.45,27.38c1.94-0.95,3.95,0.62,4.97,2.18c2.9,4.53,3.49,10.06,4.21,15.27
		c1.01,10.43,1.11,20.96,0.42,31.42c-3.5-6.68-5.98-13.84-8.45-20.94c-2.09-6.61-4.21-13.36-4.31-20.35
		C22.28,32.22,22.72,28.77,25.45,27.38z"/>
	<path fill="#F16A8F" d="M173.04,30.12c0.75-2.45,3.9-4.12,5.99-2.1c3.71,3.62,4.38,9.14,5.24,14.01
		c1.47,11.35,1.47,22.87,0.78,34.29c-5.05-10.4-9.03-21.37-11.69-32.62C172.51,39.28,171.57,34.51,173.04,30.12z"/>
	<path fill="#F16A8F" d="M322.5,32.05c0.27-2.49,2.32-5.7,5.22-4.78c3.84,1.89,4.79,6.63,5.78,10.4c2.4,12.71,2.25,25.77,1.54,38.63
		c-3.88-7.68-6.76-15.83-9.41-24.01C323.74,45.74,321.69,38.95,322.5,32.05z"/>
	<path fill="#F16A8F" d="M475.4,27.41c2.239-1.13,4.43,0.98,5.439,2.82c2.61,4.65,3.2,10.08,3.87,15.28
		c0.92,10.22,1.03,20.52,0.34,30.75c-3.59-6.91-6.16-14.29-8.68-21.64c-2.08-6.71-4.24-13.59-4.05-20.69
		C472.39,31.51,473.04,28.61,475.4,27.41z"/>
	<path fill="#F16A8F" d="M623.4,29.39c1.02-2.44,4.439-3.08,6.12-0.92c3.64,4.29,4.18,10.21,5.02,15.56
		c1.12,10.69,1.22,21.5,0.5,32.23c-4.98-10.14-8.82-20.87-11.53-31.84C622.59,39.55,621.26,34.12,623.4,29.39z"/>
	<path fill="#F16A8F" d="M772.81,30.76c0.511-2.73,3.961-5.01,6.271-2.68c3.67,3.63,4.33,9.12,5.19,13.97
		c1.459,11.34,1.489,22.85,0.76,34.26c-4.311-8.7-7.58-17.88-10.32-27.17C773.19,43.19,771.4,36.9,772.81,30.76z"/>
	<path fill="#F16A8F" d="M922.64,31.37c0.36-2.57,3.17-5.52,5.82-3.73c3.561,2.6,4.38,7.34,5.311,11.37
		c2.069,12.29,1.97,24.85,1.279,37.25c-4.02-7.85-6.93-16.22-9.609-24.61C923.6,45.09,921.51,38.24,922.64,31.37z"/>
	<path fill="#F16A8F" d="M1072.64,31.35c0.391-2.55,3.12-5.46,5.79-3.74c3.591,2.61,4.42,7.4,5.351,11.46
		c2.04,12.27,1.99,24.81,1.25,37.19c-3.98-7.87-6.92-16.23-9.59-24.62C1073.59,45.08,1071.5,38.22,1072.64,31.35z"/>
	<path fill="#F16A8F" d="M1222.64,31.36c0.37-2.53,3.08-5.44,5.73-3.78c3.63,2.58,4.47,7.37,5.4,11.44
		c2.069,12.3,1.979,24.88,1.27,37.31c-4.061-8.16-7.14-16.78-9.84-25.48C1223.47,44.55,1221.521,37.95,1222.64,31.36z"/>
	<path fill="#F16A8F" d="M1372.81,30.73c0.53-2.68,3.9-4.95,6.221-2.7c3.71,3.61,4.37,9.13,5.24,14
		c1.459,11.35,1.479,22.87,0.77,34.28c-4.32-8.69-7.58-17.88-10.33-27.17C1373.18,43.19,1371.4,36.88,1372.81,30.73z"/>
	<path fill="#FCD9C9" d="M66.3,87.4c12.65-1.04,25.92,2.31,35.79,10.49c6.68,5.46,11.59,13.45,12.16,22.17
		c0.68,8.83-3.28,17.58-9.68,23.56c-15.59,14.55-41.05,15.7-58.92,4.71c-7.85-4.82-14.32-12.46-16.29-21.61
		c-1.97-8.68,0.78-18.05,6.55-24.73C43.42,93.14,54.88,88.33,66.3,87.4z"/>
	<path fill="#FCD9C9" d="M216.3,87.4c12.86-1.06,26.4,2.43,36.31,10.93c6.9,5.83,11.79,14.48,11.71,23.67
		c0.05,8.67-4.3,16.95-10.78,22.56c-16.1,13.95-41.56,14.57-59.12,2.99c-7.49-4.97-13.55-12.61-15.21-21.59
		c-1.74-8.72,1.28-17.96,7.17-24.5C193.89,92.92,205.11,88.34,216.3,87.4z"/>
	<path fill="#FCD9C9" d="M366.31,87.4c12.64-1.04,25.92,2.32,35.78,10.49c6.63,5.44,11.57,13.38,12.16,22.06
		c0.71,8.85-3.24,17.66-9.66,23.65c-15.61,14.57-41.09,15.72-58.98,4.71c-7.85-4.84-14.31-12.491-16.26-21.661
		c-1.95-8.67,0.8-18.01,6.57-24.66C343.44,93.13,354.89,88.34,366.31,87.4z"/>
	<path fill="#FCD9C9" d="M516.37,87.39c12.63-1.02,25.87,2.35,35.729,10.5c6.921,5.65,11.96,14.06,12.21,23.14
		c0.36,9-4.05,17.74-10.8,23.56c-16.09,13.92-41.51,14.52-59.069,2.971c-7.771-5.13-13.98-13.17-15.391-22.541
		c-1.38-8.44,1.65-17.23,7.3-23.54C493.88,92.92,505.15,88.32,516.37,87.39z"/>
	<path fill="#FCD9C9" d="M666.31,87.39c12.641-1.02,25.91,2.32,35.771,10.5c6.649,5.44,11.59,13.4,12.17,22.1
		c0.7,8.84-3.26,17.63-9.67,23.61c-15.03,14.05-39.26,15.589-56.98,5.88c-8.31-4.561-15.399-12.05-17.89-21.36
		c-2.51-8.82-0.04-18.62,5.77-25.62C642.979,93.33,654.67,88.35,666.31,87.39z"/>
	<path fill="#FCD9C9" d="M816.31,87.4c12.41-1.02,25.41,2.19,35.23,10.03c6.92,5.48,12.11,13.6,12.71,22.55
		c0.7,8.84-3.25,17.64-9.66,23.62c-15.61,14.57-41.09,15.72-58.97,4.71c-8.05-4.951-14.66-12.891-16.41-22.34
		c-1.689-8.49,1.11-17.49,6.71-23.98C793.42,93.12,804.89,88.34,816.31,87.4z"/>
	<path fill="#FCD9C9" d="M966.35,87.39c12.87-1.04,26.4,2.47,36.301,10.98c6.63,5.62,11.409,13.84,11.659,22.66
		c0.36,9-4.05,17.72-10.779,23.54c-16.09,13.94-41.521,14.55-59.09,2.991c-7.521-4.971-13.601-12.65-15.24-21.661
		c-1.66-8.46,1.12-17.43,6.71-23.9C943.41,93.11,954.91,88.34,966.35,87.39z"/>
	<path fill="#FCD9C9" d="M1114.1,87.64c14.25-1.79,29.63,2.13,40.16,12.19c7.271,6.8,11.57,17.16,9.601,27.13
		c-2.21,12.22-12.45,21.55-23.84,25.5c-0.301-1.729-0.58-3.47-0.841-5.2c-2.43-0.35-5.439-1.64-7.319,0.66
		c-2.21,1.689-2.471,4.6-2.181,7.16c-13.069,1.88-27.01-1.09-37.569-9.2c-6.65-5.07-11.811-12.46-13.051-20.84
		c-1.35-8.22,1.48-16.79,6.851-23.05C1092.93,93.7,1103.45,88.95,1114.1,87.64z"/>
	<path fill="#FCD9C9" d="M1238.34,99.39c14.12-13.4,36.601-15.47,53.98-7.6c8.7,3.98,16.46,10.82,20.02,19.87
		c3.34,8.19,2.351,17.86-2.35,25.31c-4.561,7.1-11.61,12.85-19.8,15.139c-1.011-2.35-1.92-5.879-5.2-5.619
		c-3.79,0.83-5.94,4.84-5.15,8.529c-13.35,2.051-27.67-1.14-38.319-9.6c-6.91-5.45-12.051-13.54-12.711-22.43
		C1228.06,114.17,1232,105.41,1238.34,99.39z"/>
	<path fill="#FCD9C9" d="M1385.03,103.08c8.91-11.37,23.96-16.46,38.069-15.81c12.511,0.49,25.2,5.48,33.53,15.05
		c5.82,6.62,8.95,15.8,7.25,24.57c-1.93,10.8-10.24,19.56-20.05,23.93c-2.93,1.09-5.07,3.35-6.51,6.05
		c-1.71,0.25-3.471,0.61-5.08-0.181c-5.141-2.239-10.811-0.609-16.17-1.399c-14.141-1.55-28.54-9.32-34.721-22.61
		C1376.75,123.15,1378.44,111.26,1385.03,103.08z"/>
	<path fill="#FFFEFE" d="M49.31,102.41c6.49-1.64,14.19,4.71,11.74,11.51c-2.65,8.06-15.39,8.41-18.86,0.82
		C39.42,109.52,43.76,103.08,49.31,102.41z"/>
	<path fill="#FFFEFE" d="M199.31,102.41c6.49-1.65,14.19,4.73,11.73,11.52c-2.65,8.05-15.39,8.4-18.84,0.81
		C189.41,109.53,193.76,103.08,199.31,102.41z"/>
	<path fill="#FFFEFE" d="M349.35,102.41c6.48-1.63,14.16,4.76,11.68,11.53c-2.65,8.03-15.36,8.38-18.83,0.81
		C339.4,109.53,343.77,103.06,349.35,102.41z"/>
	<path fill="#FFFEFE" d="M499.36,102.41c6.479-1.62,14.13,4.75,11.68,11.52c-2.65,8.05-15.37,8.4-18.84,0.82
		C489.39,109.52,493.78,103.05,499.36,102.41z"/>
	<path fill="#CEAEAA" d="M646.83,102.96c2.93-0.98,6.26-0.96,9.19,0.02c3.02,1.1,4.369,4.2,5.949,6.74h-0.35
		c-2.36,0.02-4.71,0.03-7.061,0.04c-2.33-0.78-5.21-1.42-5.989,1.64c-0.23-0.39-0.69-1.18-0.92-1.57
		c-2.301-0.03-4.601-0.06-6.9-0.07C642.4,107.23,643.771,104.06,646.83,102.96z"/>
	<path fill="#CEAEAA" d="M796.79,103.01c4.91-1.91,10.64-0.49,13.86,3.74c-6.271,0.18-12.54,0.16-18.811,0.09
		C793.43,105.5,794.93,103.99,796.79,103.01z"/>
	<path fill="#CEAEAA" d="M946.84,102.96c2.73-0.96,5.79-0.89,8.59-0.19c3.351,0.92,4.92,4.26,6.591,6.98h-0.36
		c-2.38,0-4.73-0.03-7.09-0.05c-1.45-0.31-2.891-0.67-4.36-0.71c-0.6,0.78-1.15,1.58-1.65,2.41c-0.229-0.39-0.68-1.18-0.909-1.57
		c-2.311-0.03-4.601-0.06-6.891-0.07C942.4,107.23,943.771,104.06,946.84,102.96z"/>
	<path fill="#CEAEAA" d="M1097.39,102.76c2.78-0.7,5.84-0.74,8.59,0.2c3.07,1.12,4.45,4.27,6.041,6.86l-0.37-0.01
		c-2.391-0.03-4.761-0.01-7.12-0.17c-1.65-0.28-3.311-0.6-4.94-0.88c-0.28,1.02-0.52,2.05-0.729,3.09
		c-0.28-0.51-0.851-1.52-1.141-2.02c-2.33-0.04-4.649-0.05-6.96-0.07C1092.45,107.05,1094.021,103.68,1097.39,102.76z"/>
	<path fill="#CEAEAA" d="M1246.79,102.98c2.77-0.99,5.87-0.91,8.71-0.19c3.32,0.93,4.86,4.25,6.51,6.96h-0.37
		c-2.38,0-4.729-0.04-7.08-0.06c-2.38-0.72-5.18-1.32-5.989,1.73c-0.23-0.4-0.69-1.19-0.92-1.59c-2.311-0.02-4.61-0.06-6.9-0.07
		C1242.37,107.23,1243.75,104.09,1246.79,102.98z"/>
	<path fill="#CEAEAA" d="M1397.38,102.76c2.8-0.7,5.87-0.73,8.641,0.21c3.05,1.13,4.42,4.26,6.02,6.84h-0.39
		c-2.391-0.03-4.761-0.01-7.12-0.17c-1.66-0.28-3.311-0.6-4.95-0.88c-0.271,1.03-0.51,2.07-0.71,3.11
		c-0.29-0.51-0.86-1.53-1.15-2.04c-2.34-0.03-4.67-0.05-6.979-0.07C1392.46,107.07,1394.01,103.68,1397.38,102.76z"/>
	<path fill="#CEAEAA" d="M835.88,106.76c2.54-1.48,5.18-3.2,8.25-3.2c3.17-0.21,5.92,1.62,8.51,3.21
		C847.05,106.94,841.46,106.93,835.88,106.76z"/>
	<path fill="#FFFEFE" d="M90.37,104.46c6.39-3,15.49,2.47,14.04,9.87c-1.6,8.43-14.34,9.93-18.61,2.85
		C82.56,112.7,85.39,106.17,90.37,104.46z"/>
	<path fill="#FFFEFE" d="M240.34,104.47c6.38-3.02,15.5,2.43,14.07,9.84c-1.58,8.44-14.32,9.96-18.6,2.89
		C232.56,112.72,235.38,106.2,240.34,104.47z"/>
	<path fill="#FFFEFE" d="M390.38,104.45c6.36-2.97,15.41,2.43,14.04,9.8c-1.52,8.47-14.27,10.04-18.58,2.98
		C382.54,112.75,385.38,106.17,390.38,104.45z"/>
	<path fill="#FFFEFE" d="M540.4,104.45c6.38-2.98,15.449,2.49,14,9.88c-1.591,8.43-14.32,9.93-18.591,2.86
		C532.55,112.7,535.4,106.15,540.4,104.45z"/>
	<path fill="#CEAEAA" d="M684.22,109.63c2.34-3.71,6.25-6.55,10.851-6.02c4.18-0.11,7.109,3.05,9.55,5.99
		c-3.03,0.2-6.07,0.39-9.1,0.49c-0.53,0-1.58,0-2.11,0c-2.97-0.09-5.91-0.28-8.86-0.44L684.22,109.63z"/>
	<path fill="#CEAEAA" d="M984.17,109.63c2.5-4,6.96-6.8,11.82-5.94c3.83,0.18,6.31,3.28,8.649,5.91c-3.04,0.2-6.069,0.38-9.1,0.49
		c-0.53,0-1.6,0-2.13,0c-2.97-0.08-5.92-0.28-8.87-0.44L984.17,109.63z"/>
	<path fill="#CEAEAA" d="M1134.17,109.63c2.5-4,6.95-6.84,11.83-5.92c3.82,0.19,6.33,3.23,8.64,5.89c-3.05,0.2-6.09,0.38-9.119,0.49
		c-0.521,0-1.58,0-2.101,0c-2.979-0.08-5.94-0.28-8.89-0.44L1134.17,109.63z"/>
	<path fill="#CEAEAA" d="M1284.21,109.63c2.47-4,6.9-6.85,11.75-5.92c3.83,0.18,6.36,3.22,8.66,5.89c-3.04,0.21-6.07,0.38-9.09,0.49
		c-0.53,0-1.58,0-2.11,0c-2.97-0.08-5.92-0.28-8.86-0.44L1284.21,109.63z"/>
	<path fill="#CEAEAA" d="M1434.19,109.63c2.38-3.66,6.229-6.54,10.83-6.03c4.209-0.13,7.14,3.06,9.619,6.01
		c-3.05,0.18-6.09,0.38-9.119,0.48c-0.53,0-1.57,0-2.091,0c-2.979-0.09-5.93-0.27-8.88-0.44L1434.19,109.63z"/>
	<path fill="#FFFEFE" d="M791.84,106.84c6.271,0.07,12.54,0.09,18.811-0.09c0.5,2.84,1.52,6.02-0.28,8.66
		c-3.47,6.22-13.42,6.43-17.4,0.63C790.8,113.43,791.61,109.91,791.84,106.84z"/>
	<path fill="#FFFEFE" d="M835.88,106.76c5.58,0.17,11.17,0.18,16.76,0.01c1.051,2.88,2.83,6.06,1.29,9.13
		c-2.96,7.47-14.85,7.73-18.47,0.69C833.47,113.51,835.05,109.92,835.88,106.76z"/>
	<path fill="#233E2A" d="M49.78,113.2c-2.11-1.11-0.94-4.46,1.27-4.41c1.63-0.35,2.57,1.47,3.79,2.19
		C53.73,112.53,51.84,114.87,49.78,113.2z"/>
	<path fill="#233E2A" d="M199.81,113.22c-2.14-1.07-1-4.46,1.21-4.42c1.63-0.4,2.6,1.47,3.82,2.18
		C203.73,112.52,201.88,114.84,199.81,113.22z"/>
	<path fill="#233E2A" d="M349.76,113.19c-2.11-1.14-0.88-4.5,1.35-4.42c1.61-0.27,2.5,1.5,3.73,2.2
		C353.74,112.54,351.82,114.87,349.76,113.19z"/>
	<path fill="#233E2A" d="M499.76,113.18c-2.1-1.13-0.899-4.45,1.3-4.4c1.62-0.32,2.57,1.48,3.78,2.21
		C503.72,112.54,501.81,114.87,499.76,113.18z"/>
	<path fill="#233E2A" d="M648.57,111.4c0.779-3.06,3.659-2.42,5.989-1.64c-0.13,2.38-2.27,5.22-4.8,3.46
		C649.46,112.77,648.87,111.85,648.57,111.4z"/>
	<path fill="#233E2A" d="M799.771,113.2c-2.07-1.08-0.971-4.39,1.199-4.38c1.63-0.48,2.641,1.44,3.87,2.17
		C803.72,112.53,801.83,114.86,799.771,113.2z"/>
	<path fill="#233E2A" d="M948.56,111.4c0.5-0.83,1.051-1.63,1.65-2.41c1.47,0.04,2.91,0.4,4.36,0.71c-0.221,2.45-2.15,5.26-4.8,3.53
		C949.47,112.78,948.86,111.86,948.56,111.4z"/>
	<path fill="#233E2A" d="M1098.86,111.85c0.21-1.04,0.449-2.07,0.729-3.09c1.63,0.28,3.29,0.6,4.94,0.88
		C1104.89,113.04,1100.41,115.59,1098.86,111.85z"/>
	<path fill="#233E2A" d="M1248.57,111.42c0.81-3.05,3.609-2.45,5.989-1.73c-0.199,2.46-2.149,5.29-4.789,3.54
		C1249.47,112.77,1248.87,111.87,1248.57,111.42z"/>
	<path fill="#233E2A" d="M1398.87,111.87c0.2-1.04,0.439-2.08,0.71-3.11c1.64,0.28,3.29,0.6,4.95,0.88
		C1404.88,113.02,1400.44,115.59,1398.87,111.87z"/>
	<path fill="#233E2A" d="M93.5,110.41c2.8-1.32,5.44,3.28,2.26,4.57C92.68,116.75,89.82,111.53,93.5,110.41z"/>
	<path fill="#233E2A" d="M243.44,110.44c2.8-1.43,5.53,3.24,2.33,4.55C242.71,116.72,239.85,111.62,243.44,110.44z"/>
	<path fill="#233E2A" d="M393.42,110.45c2.79-1.46,5.54,3.19,2.36,4.54C392.73,116.72,389.85,111.67,393.42,110.45z"/>
	<path fill="#233E2A" d="M543.37,110.47c2.79-1.53,5.65,3.19,2.39,4.51C542.771,116.71,539.86,111.73,543.37,110.47z"/>
	<path fill="#FFFEFE" d="M640.75,109.76c2.3,0.01,4.6,0.04,6.9,0.07c0.229,0.39,0.689,1.18,0.92,1.57c0.3,0.45,0.89,1.37,1.189,1.82
		c2.53,1.76,4.67-1.08,4.8-3.46c2.351-0.01,4.7-0.02,7.061-0.04c-0.37,2.35-0.38,4.98-2.05,6.86c-3.591,4.51-10.95,4.89-15.16,1.05
		C642.04,115.7,641.64,112.49,640.75,109.76z"/>
	<path fill="#FFFEFE" d="M684.55,109.65c2.95,0.16,5.891,0.35,8.86,0.44c-2.57,1.5-1.82,5.64,1.46,5.11c3.1-0.24,2.6-3.67,0.65-5.11
		c3.029-0.1,6.069-0.29,9.1-0.49c-0.22,2.98,0.05,6.43-2.2,8.75c-4.11,4.74-12.47,4.43-16.22-0.6
		C684.25,115.51,684.58,112.4,684.55,109.65z"/>
	<path fill="#233E2A" d="M693.41,110.09c0.53,0,1.58,0,2.11,0c1.949,1.44,2.449,4.87-0.65,5.11
		C691.59,115.73,690.84,111.59,693.41,110.09z"/>
	<path fill="#233E2A" d="M843.42,110.45c2.79-1.46,5.57,3.22,2.34,4.53C842.74,116.72,839.84,111.66,843.42,110.45z"/>
	<path fill="#FFFEFE" d="M940.76,109.76c2.29,0.01,4.58,0.04,6.891,0.07c0.229,0.39,0.68,1.18,0.909,1.57
		c0.301,0.46,0.91,1.38,1.211,1.83c2.649,1.73,4.579-1.08,4.8-3.53c2.359,0.02,4.71,0.05,7.09,0.05c-0.431,2.56-0.54,5.48-2.57,7.37
		c-3.729,4-10.6,4.17-14.64,0.55C942.06,115.74,941.64,112.51,940.76,109.76z"/>
	<path fill="#FFFEFE" d="M984.54,109.65c2.95,0.16,5.9,0.36,8.87,0.44c-2.58,1.51-1.82,5.63,1.47,5.11c3.08-0.26,2.6-3.66,0.66-5.11
		c3.03-0.11,6.06-0.29,9.1-0.49c-0.25,2.96,0.03,6.4-2.189,8.72c-4.11,4.76-12.49,4.47-16.24-0.57
		C984.26,115.51,984.57,112.4,984.54,109.65z"/>
	<path fill="#233E2A" d="M993.41,110.09c0.53,0,1.6,0,2.13,0c1.939,1.45,2.42,4.85-0.66,5.11
		C991.59,115.72,990.83,111.6,993.41,110.09z"/>
	<path fill="#FFFEFE" d="M1090.76,109.76c2.311,0.02,4.63,0.03,6.96,0.07c0.29,0.5,0.86,1.51,1.141,2.02
		c1.55,3.74,6.029,1.19,5.67-2.21c2.359,0.16,4.729,0.14,7.12,0.17c-0.391,2.33-0.46,4.92-2.091,6.79
		c-3.59,4.47-10.909,4.86-15.119,1.06C1092.05,115.73,1091.64,112.5,1090.76,109.76z"/>
	<path fill="#FFFEFE" d="M1134.53,109.65c2.949,0.16,5.91,0.36,8.89,0.44c-0.76,1.07-2.36,2.37-1.36,3.79
		c1.061,2,3.95,1.57,5.141-0.1c0.24-1.5-0.84-2.61-1.68-3.69c3.029-0.11,6.069-0.29,9.119-0.49c-0.239,2.97,0.03,6.43-2.229,8.75
		c-4.101,4.73-12.431,4.42-16.19-0.57C1134.271,115.52,1134.57,112.41,1134.53,109.65z"/>
	<path fill="#233E2A" d="M1143.42,110.09c0.521,0,1.58,0,2.101,0c0.84,1.08,1.92,2.19,1.68,3.69c-1.19,1.67-4.08,2.1-5.141,0.1
		C1141.06,112.46,1142.66,111.16,1143.42,110.09z"/>
	<path fill="#FFFEFE" d="M1240.75,109.76c2.29,0.01,4.59,0.05,6.9,0.07c0.229,0.4,0.689,1.19,0.92,1.59
		c0.3,0.45,0.899,1.35,1.2,1.81c2.64,1.75,4.59-1.08,4.789-3.54c2.351,0.02,4.7,0.06,7.08,0.06c-0.38,2.34-0.43,4.96-2.069,6.83
		c-3.591,4.49-10.92,4.89-15.13,1.08C1242.05,115.73,1241.64,112.5,1240.75,109.76z"/>
	<path fill="#FFFEFE" d="M1284.56,109.65c2.94,0.16,5.891,0.36,8.86,0.44c-0.76,1.07-2.35,2.36-1.37,3.79
		c1.13,2.49,6.021,1.24,5.03-1.6c-0.38-0.55-1.16-1.64-1.55-2.19c3.02-0.11,6.05-0.28,9.09-0.49c-0.23,3,0.05,6.48-2.25,8.8
		c-4.13,4.69-12.47,4.36-16.18-0.68C1284.24,115.49,1284.57,112.38,1284.56,109.65z"/>
	<path fill="#233E2A" d="M1293.42,110.09c0.53,0,1.58,0,2.11,0c0.39,0.55,1.17,1.64,1.55,2.19c0.99,2.84-3.9,4.09-5.03,1.6
		C1291.07,112.45,1292.66,111.16,1293.42,110.09z"/>
	<path fill="#FFFEFE" d="M1390.74,109.76c2.31,0.02,4.64,0.04,6.979,0.07c0.29,0.51,0.86,1.53,1.15,2.04
		c1.57,3.72,6.01,1.15,5.66-2.23c2.359,0.16,4.729,0.14,7.12,0.17c-0.41,2.53-0.54,5.4-2.521,7.28c-3.76,4.05-10.72,4.21-14.76,0.5
		C1392.03,115.66,1391.64,112.46,1390.74,109.76z"/>
	<path fill="#FFFEFE" d="M1434.55,109.65c2.95,0.17,5.9,0.35,8.88,0.44c-2.63,1.5-1.819,5.69,1.5,5.11
		c3.07-0.33,2.49-3.67,0.591-5.11c3.029-0.1,6.069-0.3,9.119-0.48c-0.239,3,0.021,6.48-2.279,8.8c-4.271,4.86-13.03,4.28-16.53-1.18
		C1434.229,115.03,1434.61,112.2,1434.55,109.65z"/>
	<path fill="#233E2A" d="M1443.43,110.09c0.521,0,1.561,0,2.091,0c1.899,1.44,2.479,4.78-0.591,5.11
		C1441.61,115.78,1440.8,111.59,1443.43,110.09z"/>
	<path fill="#233E2A" d="M65.43,122c2.27-2.76,6.71-2.45,9.1-0.01c-0.18,1.93-2.11,2.56-3.47,3.54c1.34,4.7,3,9.62,1.89,14.55
		c-0.75,3.21-1.72,6.359-2.46,9.57c-0.37,1.869-2.66,3.58-4.43,2.27c-1.83-3.5,1.35-7.2,5.03-6.77c2.37-6.41,1.65-13.32-0.66-19.62
		C68.59,124.66,65.86,124.43,65.43,122z"/>
	<path fill="#233E2A" d="M215.53,121.94c2.23-2.76,6.67-2.34,9.01,0.07c-0.21,1.91-2.13,2.55-3.48,3.53
		c2.35,6.56,3.31,13.93,0.17,20.42c0.36-3.34,1.56-6.58,1.39-9.97c-0.02-3.6-1.23-7.04-2.19-10.46
		C218.72,124.63,215.61,124.47,215.53,121.94z"/>
	<path fill="#233E2A" d="M365.68,121.94c1.98-2.79,6.47-2.32,8.71-0.05c0.24,2.06-2.06,2.63-3.33,3.64
		c2.48,6.86,3.4,14.72-0.4,21.31c-0.78,2.439-3.74,1.721-5.64,1.53c1.11-2.33,3.27-3.59,5.91-3.31c2.75-6.28,1.71-13.26-0.5-19.53
		C368.88,124.61,365.25,124.42,365.68,121.94z"/>
	<path fill="#233E2A" d="M515.45,121.98c2.27-2.73,6.66-2.42,9.05-0.03c-0.11,1.97-2.08,2.6-3.44,3.58
		c2.351,6.77,3.69,14.76-0.649,21.06c-1.71,0.131-3.44,0.221-5.14,0.24c1.319-1.96,3.739-1.84,5.81-2.25
		c2.64-6.15,1.45-12.95-0.65-19.05C518.61,124.65,515.79,124.45,515.45,121.98z"/>
	<path fill="#233E2A" d="M665.47,121.98c2.24-2.75,6.66-2.41,9.04-0.02c-0.13,1.97-2.1,2.59-3.45,3.57
		c2.19,6.13,3.101,12.81,0.851,19.07c0.979,0.39,2.93,1.16,3.899,1.541c-3.35,0.299-6.75,0.119-9.909-1.101
		c1.81-0.23,3.63-0.35,5.47-0.47c2.04-6.28,1.28-12.94-0.94-19.04C668.64,124.64,665.76,124.46,665.47,121.98z"/>
	<path fill="#233E2A" d="M815.46,121.98c2.26-2.75,6.68-2.42,9.061,0c-0.16,1.95-2.11,2.57-3.461,3.55
		c2.17,6.13,3.12,12.81,0.851,19.07c1.28,0.5,2.58,1.01,3.88,1.541c-3.44,0.319-6.93,0.049-10.18-1.141
		c1.899-0.2,3.81-0.31,5.739-0.4c2.061-6.29,1.311-12.96-0.92-19.07C818.61,124.66,815.78,124.45,815.46,121.98z"/>
	<path fill="#233E2A" d="M965.46,121.99c2.21-2.73,6.61-2.45,8.99-0.07c0.029,2.03-2.05,2.62-3.391,3.61
		c2.181,6.13,3.11,12.81,0.851,19.07c0.97,0.38,2.91,1.15,3.88,1.541c-3.41,0.319-6.87,0.069-10.09-1.131
		c1.88-0.21,3.75-0.32,5.66-0.42c2.05-6.28,1.3-12.95-0.931-19.06C968.61,124.65,965.79,124.45,965.46,121.99z"/>
	<path fill="#233E2A" d="M1115.479,121.98c2.24-2.77,6.671-2.4,9.051,0c-0.19,1.94-2.12,2.57-3.471,3.55
		c1.79,5.34,2.87,11.01,1.79,16.62c0.851,1.54,2.29,2.96,2.24,4.85c0.12,3.42-3.899,6.12-7.01,4.65c-3-1.11-4.271-5.351-2.12-7.811
		c1.43-2.13,4.26-1.83,6.49-2.2c0.55-5.47-0.18-10.94-2.021-16.11C1118.64,124.65,1115.75,124.46,1115.479,121.98z"/>
	<path fill="#233E2A" d="M1265.521,121.94c2.25-2.75,6.67-2.34,9.029,0.07c-0.24,1.91-2.149,2.55-3.49,3.53
		c1.801,5.27,2.75,10.84,1.94,16.41c0.9,1.45,2.88,2.91,1.729,4.81c-2.22,3.301-8.289,3.1-9.72-0.76c-0.689-4.09,4.73-4.14,7.5-4.32
		c0.44-5.48-0.21-10.97-2.08-16.16C1268.68,124.64,1265.62,124.46,1265.521,121.94z"/>
	<path fill="#233E2A" d="M1415.72,121.95c1.96-2.9,6.561-2.25,8.811,0.04c-0.2,1.93-2.13,2.56-3.471,3.54
		c1.211,4.3,2.761,8.73,2.03,13.26c-0.439,2.57-0.63,5.16-0.78,7.75c-1.51,1.81-5.109,1.03-5.189-1.47c0.88-1.68,3.01-1.4,4.58-1.93
		c1.79-5.85,0.66-11.97-1.271-17.62C1418.9,124.63,1415.17,124.39,1415.72,121.95z"/>
	<path fill="#F7A9BD" d="M42.24,124.24c4.45-1.31,9.15,3.24,8,7.75c-0.69,5.17-8.05,7.06-11.28,3.07
		C35.51,131.66,37.58,125.24,42.24,124.24z"/>
	<path fill="#F7A9BD" d="M192.24,124.22c4.85-1.4,9.7,4.02,7.75,8.7c-1.43,4.87-8.72,5.8-11.46,1.6
		C185.61,130.99,187.88,125.21,192.24,124.22z"/>
	<path fill="#F7A9BD" d="M342.25,124.23c4.45-1.3,9.15,3.28,7.98,7.78c-0.68,5.15-8.01,7.03-11.25,3.07
		C335.49,131.67,337.57,125.24,342.25,124.23z"/>
	<path fill="#F7A9BD" d="M492.23,124.24c4.859-1.44,9.72,4.03,7.75,8.71c-1.461,4.88-8.771,5.75-11.49,1.53
		C485.63,130.94,487.9,125.21,492.23,124.24z"/>
	<path fill="#F7A9BD" d="M642.16,124.26c4.46-1.38,9.26,3.2,8.069,7.75c-0.689,5.16-8.039,7.02-11.27,3.05
		C635.521,131.68,637.56,125.33,642.16,124.26z"/>
	<path fill="#F7A9BD" d="M792.271,124.23c4.459-1.28,9.159,3.3,7.959,7.82c-0.729,5.14-8.069,6.98-11.279,3
		C785.479,131.63,787.61,125.23,792.271,124.23z"/>
	<path fill="#F7A9BD" d="M942.21,124.25c4.84-1.46,9.7,3.95,7.79,8.63c-1.41,4.94-8.81,5.86-11.53,1.57
		C935.64,130.93,937.9,125.23,942.21,124.25z"/>
	<path fill="#F7A9BD" d="M1092.25,124.23c4.83-1.42,9.66,4.01,7.75,8.67c-1.43,4.91-8.76,5.82-11.5,1.6
		C1085.61,130.97,1087.9,125.21,1092.25,124.23z"/>
	<path fill="#F7A9BD" d="M1242.229,124.24c4.44-1.3,9.15,3.22,8.011,7.73c-0.67,5.19-8.05,7.07-11.28,3.09
		C1235.49,131.65,1237.58,125.27,1242.229,124.24z"/>
	<path fill="#F7A9BD" d="M1392.24,124.23c4.85-1.43,9.689,4.01,7.76,8.7c-1.45,4.89-8.79,5.78-11.51,1.55
		C1385.62,130.95,1387.9,125.2,1392.24,124.23z"/>
	<path fill="#F7A9BD" d="M98.34,125.44c4.49-2.25,10.1,2.03,9.23,6.91c-0.43,4.76-6.56,7.41-10.32,4.51
		C93.13,134.21,93.83,127.28,98.34,125.44z"/>
	<path fill="#F7A9BD" d="M248.36,125.44c4.49-2.27,10.09,2.07,9.22,6.94c-0.48,4.74-6.59,7.39-10.35,4.47
		C243.17,134.17,243.81,127.25,248.36,125.44z"/>
	<path fill="#F7A9BD" d="M398.37,125.43c4.51-2.25,10.11,2.1,9.19,6.99c-0.47,4.71-6.57,7.34-10.3,4.44
		C393.11,134.23,393.83,127.24,398.37,125.43z"/>
	<path fill="#F7A9BD" d="M548.39,125.43c4.48-2.23,10.061,2.07,9.181,6.94c-0.45,4.72-6.521,7.38-10.28,4.51
		C543.12,134.26,543.81,127.23,548.39,125.43z"/>
	<path fill="#F7A9BD" d="M698.35,125.43c4.46-2.21,10.04,2,9.23,6.86c-0.39,4.78-6.55,7.5-10.33,4.57
		C693.16,134.2,693.82,127.26,698.35,125.43z"/>
	<path fill="#F7A9BD" d="M848.32,125.45c4.489-2.29,10.159,2.05,9.25,6.95c-0.46,4.74-6.61,7.37-10.351,4.44
		C843.14,134.19,843.84,127.29,848.32,125.45z"/>
	<path fill="#F7A9BD" d="M998.31,125.45c4.5-2.29,10.15,2.02,9.261,6.93c-0.45,4.74-6.58,7.39-10.33,4.47
		C993.14,134.22,993.83,127.3,998.31,125.45z"/>
	<path fill="#F7A9BD" d="M1148.36,125.44c4.47-2.26,10.05,2.03,9.21,6.89c-0.41,4.77-6.58,7.45-10.341,4.51
		C1143.12,134.19,1143.83,127.24,1148.36,125.44z"/>
	<path fill="#F7A9BD" d="M1298.4,125.42c4.47-2.21,10.05,2.09,9.17,6.95c-0.45,4.73-6.561,7.39-10.311,4.49
		C1293.14,134.19,1293.82,127.22,1298.4,125.42z"/>
	<path fill="#F7A9BD" d="M1448.32,125.46c4.47-2.3,10.1,1.99,9.25,6.87c-0.42,4.73-6.5,7.42-10.261,4.57
		C1443.18,134.27,1443.771,127.31,1448.32,125.46z"/>
	<path fill="#233E2A" d="M215.25,149.891c0.52-3,2.65-4.891,5.73-4.721c0.2,2.53-0.9,4.67-2.83,6.25
		C217.43,151.029,215.98,150.27,215.25,149.891z"/>
	<path fill="#FFFEFE" d="M1131.86,147.92c1.88-2.3,4.89-1.01,7.319-0.66c0.261,1.73,0.54,3.471,0.841,5.2
		c-1.221,1.94-1.95,4.87-4.69,5.011c-2.271,0.75-4.21-0.861-5.65-2.391C1129.39,152.52,1129.65,149.609,1131.86,147.92z"/>
	<path fill="#FFFEFE" d="M1279.84,155.02c-0.79-3.689,1.36-7.699,5.15-8.529c3.28-0.26,4.189,3.27,5.2,5.619
		c-0.851,1.42-1.66,2.861-2.41,4.32C1284.96,157.5,1281.74,157.859,1279.84,155.02z"/>
	<path fill="#FFFEFE" d="M1429.84,155.02c-0.79-3.689,1.36-7.699,5.15-8.529c3.28-0.26,4.189,3.27,5.2,5.619
		c-0.851,1.42-1.66,2.861-2.41,4.32C1434.96,157.5,1431.74,157.859,1429.84,155.02z"/>
	<path fill="#659971" d="M73.33,197.779c-0.36-6.25,4.6-11.359,10.52-12.449c-0.22,3.061-0.54,6.43-2.87,8.699
		C79.1,196.35,76.09,197.08,73.33,197.779z"/>
	<path fill="#659971" d="M223.33,197.779c-0.35-6.25,4.6-11.359,10.52-12.449C234.41,191.641,229.61,197.24,223.33,197.779z"/>
	<path fill="#659971" d="M373.34,197.779c-0.37-6.26,4.59-11.35,10.51-12.449C384.41,191.641,379.61,197.23,373.34,197.779z"/>
	<path fill="#659971" d="M523.33,197.779c-0.36-6.25,4.6-11.359,10.52-12.449C534.4,191.641,529.61,197.24,523.33,197.779z"/>
	<path fill="#659971" d="M673.34,197.79c-0.38-6.261,4.59-11.36,10.51-12.46C684.41,191.641,679.61,197.221,673.34,197.79z"/>
	<path fill="#659971" d="M823.33,197.779c-0.36-6.25,4.6-11.35,10.51-12.449c-0.26,2.811-0.39,5.92-2.39,8.141
		C829.57,196.12,826.34,197.08,823.33,197.779z"/>
	<path fill="#EB1F4A" d="M53.54,207.37c0.92-5.17,5.12-9.81,10.46-10.46c4.52-1.11,8.73,2.9,13.17,1.17
		c2.87-0.811,5.86-1.801,8.86-1.109c4.96,0.84,9,5.069,9.84,10c1.55,8.159-1.08,16.899-6.42,23.199c-1.64,1.48-3.33,3.28-5.62,3.59
		c-3.04-0.13-5.84-1.55-8.87-1.8c-3.08,0.14-5.92,1.61-8.99,1.81c-2.08,0.01-3.68-1.529-5.19-2.75
		C55.36,224.57,52.11,215.83,53.54,207.37z"/>
	<path fill="#EB1F4A" d="M203.53,207.43c0.9-5.17,5.06-9.81,10.37-10.51c3.81-0.85,7.29,1.5,11.01,1.66
		c3.05-0.49,5.94-1.91,9.07-1.84c2.61,0.13,5.01,1.25,7.41,2.18c-1.57,2.67-3.82,5.721-2.39,8.96c0.96,3.341,4.56,4.229,7.47,5.149
		c-0.85,6.181-2.8,12.421-7.04,17.16c-1.62,1.471-3.3,3.221-5.55,3.57c-2.39-0.07-4.62-1-6.93-1.48
		c-3.75-1.049-7.27,1.311-10.98,1.49c-2.08,0.021-3.68-1.529-5.18-2.75C205.37,224.59,202.12,215.87,203.53,207.43z"/>
	<path fill="#EB1F4A" d="M356.37,200.65c2.35-1.53,4.69-3.351,7.56-3.74c4.77-1.09,9.26,3.16,13.94,0.97
		c4.46-1.87,9.32-1.09,13.52,1.04c-1.59,2.68-3.85,5.77-2.36,9.02c0.97,3.311,4.56,4.16,7.44,5.08c-0.84,6.181-2.8,12.41-7.02,17.15
		c-1.63,1.471-3.31,3.25-5.58,3.59c-3.06-0.109-5.87-1.55-8.9-1.8c-3.08,0.14-5.9,1.59-8.96,1.8c-2.07,0.051-3.67-1.48-5.17-2.689
		c-3.41-3.721-5.31-8.49-7.01-13.16c2.5-0.641,5.43-0.76,7.3-2.78c2.95-2.78,3.28-7.81,0.65-10.909
		C360.29,202.609,358.21,201.75,356.37,200.65z"/>
	<path fill="#EB1F4A" d="M506.36,200.65c2.35-1.53,4.689-3.34,7.56-3.74c4.78-1.09,9.29,3.17,13.99,0.96
		c4.439-1.87,9.29-1.06,13.479,1.05c-1.59,2.68-3.84,5.75-2.369,9c0.97,3.32,4.56,4.18,7.449,5.1c-0.84,6.19-2.8,12.42-7.029,17.16
		c-1.62,1.48-3.311,3.221-5.561,3.58c-3.07-0.119-5.89-1.55-8.93-1.8c-3.04,0.14-5.851,1.569-8.87,1.8
		c-2.09,0.1-3.72-1.47-5.22-2.689c-1.271-1.391-2.311-2.961-3.41-4.471c2.05-1.26,4.899-2.029,5.75-4.58
		c1.109-2.41-0.68-4.709-1.53-6.869c1.03-2.57,2.62-5.34,1.56-8.17C512.45,203.62,509.08,202.17,506.36,200.65z"/>
	<path fill="#EB1F4A" d="M656.37,200.65c2.359-1.551,4.729-3.371,7.63-3.75c4.76-1.041,9.25,3.17,13.93,0.97
		c4.44-1.87,9.271-1.06,13.46,1.05c-2.069,2.811-3.1,6.13-2.729,9.63c-3.86,2.091-7.86,5.58-7.2,10.47
		c0.26,5.24,5.19,8.08,9.58,9.65c-0.4,0.37-1.2,1.12-1.59,1.49c-1.67,1.42-3.3,3.25-5.57,3.6c-3.05-0.109-5.87-1.539-8.9-1.8
		c-3.069,0.13-5.89,1.59-8.949,1.8c-2.08,0.07-3.681-1.49-5.19-2.699c-1.27-1.391-2.34-2.99-3.34-4.57
		c2.08-1.18,4.93-1.961,5.729-4.54c1.051-2.39-0.729-4.65-1.56-6.79c1.04-2.58,2.62-5.36,1.56-8.21
		C662.42,203.609,659.07,202.16,656.37,200.65z"/>
	<path fill="#EB1F4A" d="M812.1,196.84c3.53-0.22,7.051,0.24,10.4,1.381c2.88,1.049,5.7-0.711,8.521-1.16
		c3.649-1.051,7.27,0.6,10.59,1.979c-0.41,0.569-1.23,1.71-1.631,2.29c-3.1-0.85-7.05-1.59-9.17,1.52
		c-3.13,3.521-0.88,8.311,2.021,11.141c-1.82,3.529-6.771,7.029-4.16,11.4c2.62,4.42,8.24,3.43,12.51,2.879
		c-0.42,0.451-1.279,1.351-1.71,1.811c-1.64,1.51-3.31,3.4-5.649,3.68c-4.16-0.21-8.2-2.89-12.37-1.189
		c-3.58,1.41-7.891,1.859-10.55-1.5c-0.65-0.631-1.96-1.891-2.61-2.521c4.84,0.21,11.689,1.47,14.57-3.63
		c0.31-2.98-3.04-3.79-5.04-5.01c3.939-3.51,6.319-9.04,4.39-14.24C820.83,200.98,816.229,198.66,812.1,196.84z"/>
	<path fill="#659971" d="M984.31,230.609c3.32-4.209,9.19-4.549,13.87-2.639c-0.67,1.039-1.39,2.049-2.149,3.02
		c-3.76,3.13-8.74,2.789-13.03,1.029C983.33,231.66,983.979,230.96,984.31,230.609z"/>
	<path fill="#659971" d="M1134.31,230.609c3.311-4.209,9.181-4.549,13.86-2.649c-0.649,1.05-1.36,2.05-2.12,3.011
		c-3.76,3.159-8.76,2.809-13.05,1.049C1133.33,231.67,1133.979,230.96,1134.31,230.609z"/>
	<path fill="#659971" d="M1284.271,230.641c3.34-4.221,9.209-4.601,13.909-2.67c-0.67,1.029-1.37,2.029-2.109,2.989
		c-3.771,3.16-8.761,2.851-13.03,1L1284.271,230.641z"/>
	<path fill="#659971" d="M1434.28,230.63c3.33-4.22,9.189-4.58,13.89-2.67c-0.66,1.04-1.36,2.04-2.1,3
		c-3.771,3.16-8.771,2.851-13.03,0.99L1434.28,230.63z"/>
	<path fill="#A77E8B" d="M957.42,229.95c3.73-2.13,8.91-2.75,12.14,0.63c0.54,0.47,1.61,1.4,2.141,1.87
		c-2.23,0.569-4.46,1.319-6.79,1.31c-2.271-0.3-4.12-1.779-6.03-2.89L957.42,229.95z"/>
	<path fill="#A77E8B" d="M1107.42,229.939c3.73-2.109,8.9-2.739,12.14,0.641c0.54,0.47,1.61,1.4,2.141,1.87
		c-2.24,0.579-4.471,1.31-6.79,1.31c-2.29-0.3-4.14-1.789-6.061-2.9L1107.42,229.939z"/>
	<path fill="#A77E8B" d="M1258.63,231.061c-0.67-2.711,2.5-2.721,4.34-2.91c2.42-0.15,4.84,0.72,6.59,2.43
		c0.54,0.47,1.61,1.41,2.141,1.87c-2.24,0.569-4.471,1.34-6.79,1.28C1262.63,233.33,1260.65,232.09,1258.63,231.061z"/>
	<path fill="#A77E8B" d="M1407.42,229.939c3.73-2.109,8.91-2.739,12.14,0.641c0.54,0.47,1.61,1.41,2.141,1.88
		c-2.25,0.569-4.5,1.31-6.83,1.3c-2.26-0.32-4.1-1.789-6-2.9L1407.42,229.939z"/>
	<path fill="#FFFEFE" d="M83.83,233.76c2.29-0.31,3.98-2.109,5.62-3.59c8.54,0.38,17.11,0.35,25.6,1.43
		c-0.07,0.68-0.2,2.051-0.27,2.74c-24.84,1.689-49.83,1.801-74.65-0.18c-0.01-0.641-0.03-1.92-0.04-2.57
		c6.62-0.6,13.27-1,19.92-1.22l0.77,0.649c1.51,1.221,3.11,2.76,5.19,2.75c3.07-0.199,5.91-1.67,8.99-1.81
		C77.99,232.21,80.79,233.63,83.83,233.76z"/>
	<path fill="#FFFEFE" d="M233.88,233.76c2.25-0.35,3.93-2.1,5.55-3.57c8.45,0.291,16.9,0.471,25.32,1.24
		c0.03,0.961,0.07,1.94,0.11,2.91c-24.87,1.66-49.9,1.84-74.75-0.21c0-0.63,0-1.909,0-2.54c6.63-0.6,13.27-1.01,19.91-1.21
		l0.77,0.64c1.5,1.221,3.1,2.771,5.18,2.75c3.71-0.18,7.23-2.539,10.98-1.49C229.26,232.76,231.49,233.689,233.88,233.76z"/>
	<path fill="#FFFEFE" d="M383.87,233.76c2.27-0.34,3.95-2.119,5.58-3.59c8.45,0.33,16.9,0.48,25.32,1.27
		c0.03,0.961,0.07,1.92,0.11,2.891c-24.87,1.699-49.9,1.811-74.76-0.17c0-0.65,0-1.93,0-2.58c6.63-0.59,13.26-1.01,19.91-1.189
		l0.81,0.68c1.5,1.209,3.1,2.74,5.17,2.689c3.06-0.21,5.88-1.66,8.96-1.8C378,232.21,380.81,233.65,383.87,233.76z"/>
	<path fill="#FFFEFE" d="M533.88,233.76c2.25-0.359,3.94-2.1,5.561-3.58c8.43,0.311,16.869,0.49,25.279,1.23
		c0.04,0.97,0.09,1.949,0.15,2.93c-24.87,1.68-49.891,1.811-74.75-0.18c0-0.65-0.01-1.93-0.01-2.57
		c6.63-0.6,13.279-1.01,19.939-1.199l0.811,0.68c1.5,1.22,3.13,2.789,5.22,2.689c3.02-0.23,5.83-1.66,8.87-1.8
		C527.99,232.21,530.81,233.641,533.88,233.76z"/>
	<path fill="#FFFEFE" d="M683.88,233.76c2.271-0.35,3.9-2.18,5.57-3.6c8.46,0.35,16.939,0.47,25.38,1.3c-0.01,0.96-0.01,1.92,0,2.88
		c-24.86,1.66-49.88,1.84-74.72-0.21c-0.011-0.64-0.021-1.899-0.021-2.53c6.64-0.619,13.3-1.01,19.96-1.22l0.79,0.681
		c1.51,1.209,3.11,2.77,5.19,2.699c3.06-0.21,5.88-1.67,8.949-1.8C678.01,232.221,680.83,233.65,683.88,233.76z"/>
	<path fill="#FFFEFE" d="M833.82,233.76c2.34-0.279,4.01-2.17,5.649-3.68c7.82,0.62,15.71,0.29,23.51,1.279
		c1.57,0.021,2.421,1.57,2.181,3.021c-24.99,1.53-50.14,1.88-75.101-0.28c0.021-0.629,0.061-1.89,0.091-2.52
		c6.63-0.6,13.279-0.99,19.949-1.2l0.801,0.69c2.659,3.359,6.97,2.91,10.55,1.5C825.62,230.87,829.66,233.55,833.82,233.76z"/>
	<path fill="#FFFEFE" d="M969.56,230.58c4.91-0.28,9.83-0.24,14.75,0.029c-0.33,0.351-0.979,1.051-1.31,1.41
		c4.29,1.76,9.271,2.101,13.03-1.029l0.91-0.551c5.949,0.131,11.899,0.511,17.85,1c0,0.961,0.02,1.931,0.04,2.91
		c-24.86,1.641-49.88,1.83-74.73-0.22c0.011-0.63,0.011-1.909,0.021-2.54c6.229-0.27,12.54-1.63,18.76-0.72
		c1.91,1.11,3.76,2.59,6.03,2.89c2.33,0.01,4.56-0.74,6.79-1.31C971.17,231.98,970.1,231.05,969.56,230.58z"/>
	<path fill="#FFFEFE" d="M1119.56,230.58c4.91-0.28,9.83-0.24,14.75,0.029c-0.33,0.351-0.979,1.061-1.31,1.41
		c4.29,1.76,9.29,2.11,13.05-1.049l0.891-0.531c5.939,0.131,11.88,0.511,17.81,0.98c0.03,0.971,0.07,1.939,0.12,2.92
		c-24.87,1.67-49.9,1.83-74.76-0.199c0-0.641,0-1.91,0-2.551c6.229-0.279,12.52-1.609,18.739-0.73
		c1.921,1.111,3.771,2.601,6.061,2.9c2.319,0,4.55-0.73,6.79-1.31C1121.17,231.98,1120.1,231.05,1119.56,230.58z"/>
	<path fill="#FFFEFE" d="M1269.56,230.58c4.9-0.28,9.811-0.26,14.711,0.061l-1.23,1.319c4.27,1.851,9.26,2.16,13.03-1l0.87-0.53
		c5.93,0.15,11.859,0.521,17.789,0.98c0.021,0.98,0.061,1.949,0.12,2.939c-24.87,1.66-49.88,1.801-74.729-0.189
		c0.01-0.65,0.01-1.93,0.01-2.58c6.13-0.13,12.46-1.859,18.5-0.52c2.021,1.029,4,2.27,6.28,2.67c2.319,0.06,4.55-0.711,6.79-1.28
		C1271.17,231.99,1270.1,231.05,1269.56,230.58z"/>
	<path fill="#FFFEFE" d="M1419.56,230.58c4.9-0.27,9.811-0.26,14.721,0.05l-1.24,1.32c4.26,1.86,9.26,2.17,13.03-0.99l0.87-0.521
		c6.029,0.121,12.069,0.461,18.08,1.141c-0.061,0.689-0.171,2.07-0.23,2.76c-24.85,1.68-49.85,1.82-74.67-0.189
		c0-0.641-0.01-1.92-0.01-2.561c6.229-0.279,12.529-1.619,18.76-0.73c1.9,1.111,3.74,2.58,6,2.9c2.33,0.01,4.58-0.73,6.83-1.3
		C1421.17,231.99,1420.1,231.05,1419.56,230.58z"/>
	<path fill="#A77E8B" d="M49.61,275.8c16.36-0.54,32.73-0.38,49.09,0.14c0,3.211-0.56,6.451,0,9.641
		c0.78,2.609,4.05,2.75,6.31,2.891c2.65-0.08,5.68,0.069,7.92-1.541c2-2.84,1.52-6.59,1.33-9.869
		c6.95,0.529,13.91,1.229,20.76,2.619c3.21,0.551,6.14,2.051,8.82,3.84c-3.78,1.92-7.83,3.311-12.03,3.92
		c-15.15,2.371-30.51,3.061-45.82,3.391c-22.07,0.279-44.2,0.21-66.17-2.17c-6.72-0.85-13.66-1.49-19.82-4.52v-2.131
		c9.52-3.41,19.67-4.369,29.7-4.949c0.12,2.149-0.15,4.979,2.23,6.02c4.75,2.51,10.52,3.72,15.82,2.57
		C51.4,283.83,49.96,278.99,49.61,275.8z"/>
	<path fill="#A77E8B" d="M199.61,275.8c16.36-0.54,32.73-0.38,49.09,0.14c0.16,3.541-1.09,7.451,0.55,10.74
		c3.62,2.801,9.06,2.021,13.14,0.67c2.78-2.529,1.98-6.91,1.85-10.289c7.64,0.6,15.32,1.319,22.8,3.1c2.36,0.5,4.65,1.561,6.26,3.42
		c-5.06,3.32-11.25,3.8-17.08,4.67c-14.67,1.85-29.46,2.439-44.24,2.641c-21.67,0.18-43.42,0.039-64.96-2.57
		c-5.94-0.86-12.19-1.4-17.45-4.541c1.53-2.659,4.72-3.279,7.45-3.949c7.46-1.57,15.07-2.38,22.67-2.76
		c0.12,2.16-0.13,4.99,2.26,6.029c4.75,2.49,10.51,3.7,15.8,2.551C201.39,283.83,199.96,278.99,199.61,275.8z"/>
	<path fill="#A77E8B" d="M349.61,275.8c16.36-0.54,32.73-0.38,49.09,0.14c0.16,3.541-1.09,7.44,0.54,10.721
		c3.63,2.84,9.1,2.01,13.21,0.67c2.67-2.609,1.94-6.88,1.81-10.27c9.94,1.25,20.9,0.719,29.59,6.43
		c-3.79,1.949-7.85,3.35-12.06,3.96c-15.47,2.399-31.15,3.079-46.79,3.399c-21.25,0.25-42.56,0.15-63.72-2.029
		c-7.59-0.881-15.43-1.61-22.32-5.2c2.42-1.74,5.07-3.261,8.05-3.8c7.47-1.551,15.07-2.37,22.68-2.75
		c0.12,2.16-0.13,5.01,2.28,6.039c4.74,2.49,10.49,3.681,15.77,2.551C351.4,283.85,349.96,278.99,349.61,275.8z"/>
	<path fill="#A77E8B" d="M499.61,275.8c16.359-0.54,32.729-0.38,49.09,0.14c0.16,3.541-1.09,7.44,0.55,10.73
		c3.62,2.82,9.08,2.02,13.18,0.67c2.71-2.58,1.95-6.9,1.83-10.279c7.28,0.569,14.59,1.27,21.73,2.84
		c2.88,0.56,5.43,2.07,7.819,3.709c-4.029,1.98-8.35,3.341-12.8,3.961c-16.22,2.439-32.64,3.07-49.02,3.32
		c-21.65,0.17-43.38,0.049-64.91-2.57c-5.97-0.86-12.26-1.391-17.55-4.57c1.63-2.58,4.75-3.279,7.529-3.93
		c7.44-1.561,15.04-2.36,22.631-2.76c0.109,2.17-0.12,5.01,2.279,6.049c4.74,2.48,10.49,3.69,15.771,2.541
		C501.4,283.84,499.95,278.99,499.61,275.8z"/>
	<path fill="#A77E8B" d="M649.61,275.8c16.359-0.54,32.729-0.38,49.09,0.14c-0.01,3.19-0.561,6.42-0.01,9.59
		c0.739,2.611,3.979,2.811,6.239,2.941c2.67-0.07,5.7,0.069,7.99-1.521c2-2.851,1.53-6.61,1.34-9.89
		c9.99,1.049,20.58,1.14,29.63,6.039c-5.85,3.99-13.06,4.541-19.869,5.42c-13.62,1.59-27.33,2.16-41.03,2.36
		c-20.61,0.2-41.261,0.06-61.771-2.069c-7.569-0.871-15.38-1.621-22.26-5.17c2.42-1.74,5.05-3.281,8.03-3.811
		c7.47-1.561,15.08-2.38,22.7-2.76c0.109,2.15-0.131,4.979,2.25,6.02c4.75,2.49,10.52,3.71,15.81,2.561
		C651.39,283.83,649.96,278.99,649.61,275.8z"/>
	<path fill="#A77E8B" d="M799.61,275.8c16.359-0.54,32.729-0.37,49.09,0.14c-0.01,3.211-0.57,6.451,0,9.641
		c0.779,2.59,4.02,2.75,6.27,2.891c2.65-0.061,5.641,0.049,7.94-1.5c2.02-2.851,1.53-6.621,1.35-9.91
		c9.931,1.26,20.9,0.709,29.59,6.43c-6.979,3.85-15.05,4.449-22.8,5.369c-12.649,1.301-25.37,1.851-38.08,2.021
		c-20.58,0.2-41.21,0.07-61.699-2.06c-7.58-0.881-15.421-1.61-22.311-5.19c2.41-1.72,5.02-3.26,7.98-3.79
		c7.489-1.57,15.119-2.38,22.75-2.77c0.109,2.17-0.131,5,2.279,6.029c4.721,2.49,10.46,3.68,15.73,2.57
		C801.4,283.88,799.97,279,799.61,275.8z"/>
	<path fill="#A77E8B" d="M949.61,275.8c16.35-0.54,32.729-0.38,49.09,0.14c-0.01,3.19-0.57,6.41-0.01,9.58
		c0.55,2.271,3.27,2.721,5.27,2.891c2.97,0.09,6.3,0.22,8.93-1.41c2.03-2.85,1.561-6.641,1.37-9.93
		c9.99,1.029,20.58,1.13,29.63,6.02c-3.449,2.17-7.279,3.68-11.319,4.23c-16.71,2.66-33.67,3.31-50.561,3.57
		c-21.68,0.18-43.43,0.039-64.979-2.57c-5.95-0.86-12.221-1.41-17.49-4.561c1.81-2.88,5.38-3.43,8.43-4.13
		c7.16-1.42,14.44-2.21,21.73-2.56c0.109,2.13-0.16,4.949,2.189,5.99c4.75,2.52,10.521,3.729,15.82,2.609
		C951.4,283.87,949.96,279,949.61,275.8z"/>
	<path fill="#A77E8B" d="M1099.61,275.8c16.359-0.54,32.729-0.38,49.09,0.14c-0.01,3.201-0.57,6.431-0.01,9.61
		c0.76,2.62,4.02,2.79,6.289,2.921c2.65-0.08,5.711,0.09,7.961-1.551c1.989-2.84,1.489-6.59,1.319-9.859
		c9.99,1.039,20.57,1.14,29.63,6.029c-3.26,2.02-6.83,3.551-10.63,4.11c-15.62,2.579-31.479,3.28-47.28,3.63
		c-21.829,0.279-43.709,0.21-65.439-2.09c-7.35-0.85-14.92-1.65-21.58-5.12c2.43-1.729,5.07-3.261,8.05-3.8
		c7.47-1.551,15.07-2.37,22.69-2.75c0.109,2.13-0.17,4.939,2.189,5.99c4.761,2.529,10.54,3.739,15.851,2.59
		C1101.39,283.85,1099.96,278.99,1099.61,275.8z"/>
	<path fill="#A77E8B" d="M1249.61,275.8c16.35-0.54,32.729-0.38,49.09,0.14c0.16,3.541-1.101,7.451,0.54,10.73
		c3.62,2.82,9.069,2.02,13.17,0.67c2.729-2.561,1.96-6.9,1.85-10.279c9.99,1.039,20.57,1.14,29.63,6.029
		c-3.26,2.03-6.85,3.551-10.66,4.11c-14.289,2.38-28.8,3.12-43.26,3.54c-23.14,0.41-46.359,0.42-69.399-2
		c-7.08-1.01-14.63-1.27-20.96-4.94c1.449-2.729,4.72-3.28,7.449-3.97c7.45-1.58,15.04-2.37,22.641-2.76
		c0.1,2.15-0.16,4.979,2.24,6.02c4.739,2.5,10.52,3.71,15.81,2.561C1251.39,283.83,1249.95,278.99,1249.61,275.8z"/>
	<path fill="#A77E8B" d="M1399.61,275.8c16.35-0.54,32.729-0.38,49.09,0.14c0.16,3.541-1.11,7.44,0.55,10.73
		c3.62,2.83,9.08,2.01,13.19,0.66c2.689-2.59,1.93-6.891,1.819-10.27c7.29,0.569,14.61,1.27,21.771,2.85
		c2.85,0.58,5.39,2.05,7.8,3.64c-3.8,1.9-7.851,3.28-12.05,3.89c-13.5,2.131-27.17,2.86-40.811,3.271
		c-23.49,0.46-47.06,0.479-70.46-1.97c-7.08-1.01-14.63-1.28-20.96-4.98c1.57-2.619,4.73-3.27,7.48-3.93
		c7.46-1.57,15.06-2.37,22.67-2.77c0.1,2.16-0.17,5,2.25,6.029c4.72,2.51,10.47,3.689,15.75,2.58
		C1401.4,283.88,1399.95,279,1399.61,275.8z"/>
</g>
<g id="Layer_3" display="none">
	<path display="inline" fill="#FFFEFE" d="M19.86,185.9c4.77-5.801,11.73-9.09,18.35-12.28c-1.14,5.46-2.69,10.819-4.49,16.101
		c-3.19,9.619-5.25,19.559-7.55,29.42c-4.12-4.141-8.16-8.711-9.82-14.451C14.31,198.35,15.58,191.029,19.86,185.9z"/>
	<path display="inline" fill="#FFFEFE" d="M118.24,219.971c-3.05-15.761-8.76-30.801-14.17-45.861
		c9.47,4.761,19.27,12.051,21.5,23.051C127.25,205.609,121.64,212.779,118.24,219.971z"/>
</g>
</svg>
