<?xml version="1.0" encoding="UTF-8" ?>
<!DOCTYPE svg PUBLIC "-//W3C//DTD SVG 1.1//EN" "http://www.w3.org/Graphics/SVG/1.1/DTD/svg11.dtd">
<svg width="2100pt" height="363pt" viewBox="0 0 2100 363" version="1.1" xmlns="http://www.w3.org/2000/svg">
<path fill="#ffffff" d=" M 0.00 0.00 L 2100.00 0.00 L 2100.00 363.00 L 0.00 363.00 L 0.00 0.00 Z" />
<path fill="#eb1d48" d=" M 435.35 14.35 C 442.60 7.17 452.72 2.75 463.00 3.09 C 474.16 3.08 484.80 8.69 492.16 16.90 C 511.55 37.98 510.30 75.32 487.74 93.66 C 482.13 98.17 475.31 101.27 468.13 102.06 C 466.43 102.23 464.73 102.34 463.03 102.37 C 450.57 102.19 438.83 95.37 431.41 85.55 C 415.48 65.09 416.50 32.66 435.35 14.35 Z" />
<path fill="#eb1d48" d=" M 25.21 8.21 C 35.37 2.87 48.02 2.69 58.36 7.61 C 69.14 12.63 77.34 22.29 81.70 33.24 C 88.19 49.38 86.97 68.68 77.62 83.48 C 71.25 93.74 60.49 101.64 48.33 103.03 C 46.57 103.23 44.81 103.34 43.05 103.38 C 31.08 103.19 19.73 96.91 12.30 87.68 C 6.15 80.08 1.98 70.69 0.98 60.94 C 1.41 52.98 -0.11 44.76 2.50 37.06 C 5.95 25.02 13.95 13.99 25.21 8.21 Z" />
<path fill="#eb1d48" d=" M 1293.67 8.66 C 1300.96 4.98 1309.48 4.45 1317.43 5.81 C 1332.87 9.13 1344.79 22.23 1349.26 37.02 C 1354.78 54.65 1351.35 75.10 1339.30 89.30 C 1331.88 98.26 1320.74 104.15 1309.03 104.43 C 1307.32 104.43 1305.63 104.33 1303.96 104.16 C 1293.20 102.86 1283.36 96.61 1276.91 88.00 C 1266.01 73.81 1263.58 54.04 1269.22 37.25 C 1273.39 25.14 1281.90 14.13 1293.67 8.66 Z" />
<path fill="#eb1d48" d=" M 222.96 20.84 C 230.19 12.53 240.88 6.97 252.02 7.08 C 263.51 6.77 274.58 12.43 282.15 20.89 C 301.23 41.65 300.36 78.09 278.78 96.80 C 272.97 101.77 265.76 105.25 258.11 106.04 C 256.43 106.20 254.74 106.31 253.05 106.35 C 241.07 106.21 229.70 99.88 222.28 90.65 C 206.21 71.11 206.09 39.93 222.96 20.84 Z" />
<path fill="#eb1d48" d=" M 1069.22 17.22 C 1078.69 8.49 1092.56 4.89 1105.03 8.30 C 1114.86 11.08 1123.38 17.72 1128.96 26.22 C 1144.28 48.67 1140.01 83.30 1117.36 99.32 C 1111.66 103.43 1104.82 105.83 1097.83 106.38 C 1096.25 106.41 1094.69 106.39 1093.14 106.33 C 1080.63 105.59 1069.11 98.16 1062.15 87.93 C 1047.22 66.83 1049.82 34.70 1069.22 17.22 Z" />
<path fill="#eb1d48" d=" M 1498.15 9.85 C 1509.37 5.12 1522.83 6.51 1533.01 13.14 C 1547.33 22.27 1555.45 39.26 1555.73 56.00 C 1556.25 71.84 1549.79 88.32 1537.09 98.17 C 1531.51 102.55 1524.74 105.29 1517.73 106.22 C 1516.15 106.34 1514.58 106.39 1513.04 106.37 C 1496.96 106.16 1482.72 95.00 1475.97 80.84 C 1467.55 63.68 1468.36 42.04 1478.98 26.00 C 1483.68 18.98 1490.26 13.05 1498.15 9.85 Z" />
<path fill="#eb1d48" d=" M 853.83 20.78 C 861.01 13.01 871.32 7.89 882.01 8.05 C 894.26 7.71 905.93 14.17 913.57 23.49 C 924.93 37.13 928.42 56.49 923.76 73.47 C 919.45 89.99 905.87 105.00 888.33 106.98 C 886.58 107.18 884.82 107.28 883.08 107.32 C 871.59 107.12 860.64 101.31 853.23 92.66 C 835.95 72.92 835.74 40.08 853.83 20.78 Z" />
<path fill="#eb1d48" d=" M 657.91 13.66 C 665.51 9.31 674.61 8.28 683.17 9.64 C 693.32 11.76 702.42 17.99 708.45 26.38 C 719.75 41.67 721.79 62.96 714.47 80.39 C 708.58 95.00 694.95 107.25 678.78 108.25 C 677.21 108.35 675.64 108.40 674.09 108.45 C 664.95 107.79 656.09 103.87 649.44 97.57 C 638.93 87.79 633.24 73.36 633.32 59.09 C 632.94 41.17 641.84 22.42 657.91 13.66 Z" />
<path fill="#eb1d48" d=" M 1708.23 13.25 C 1719.38 8.19 1732.95 9.25 1743.31 15.71 C 1757.74 24.52 1766.12 41.29 1766.69 57.94 C 1767.45 72.97 1761.99 88.56 1750.84 98.87 C 1744.84 104.34 1737.22 108.19 1729.10 109.06 C 1727.39 109.23 1725.70 109.33 1724.03 109.37 C 1710.05 109.18 1697.18 100.64 1689.89 88.98 C 1679.11 72.20 1678.33 49.45 1688.12 32.04 C 1692.70 23.95 1699.65 17.00 1708.23 13.25 Z" />
<path fill="#eb1d48" d=" M 1917.22 18.25 C 1928.61 13.07 1942.53 14.31 1952.99 21.13 C 1967.03 30.07 1975.14 46.60 1975.70 63.02 C 1976.44 78.00 1970.98 93.54 1959.88 103.84 C 1953.93 109.25 1946.39 113.14 1938.34 114.01 C 1936.56 114.20 1934.79 114.31 1933.04 114.36 C 1918.58 114.20 1905.38 105.06 1898.17 92.85 C 1888.24 76.42 1887.56 54.74 1896.69 37.82 C 1901.26 29.39 1908.37 22.14 1917.22 18.25 Z" />
<path fill="#f7aabe" d=" M 85.08 90.04 C 86.57 85.88 90.73 82.06 95.37 82.57 C 100.74 84.00 102.73 90.02 104.39 94.71 C 110.58 115.71 108.98 137.87 109.50 159.48 C 118.56 157.76 127.91 157.11 137.09 158.23 C 141.05 158.62 144.71 160.30 148.20 162.12 C 150.56 142.21 152.39 121.97 158.96 102.89 C 160.80 98.14 162.73 93.03 166.79 89.71 C 170.74 86.23 178.17 88.67 178.82 94.05 C 180.09 101.16 179.41 108.47 178.43 115.57 C 175.79 131.97 171.49 148.05 166.67 163.92 C 166.09 165.88 165.62 167.96 166.29 169.97 C 170.21 184.60 174.93 199.55 173.48 214.89 C 172.80 219.68 171.48 224.64 168.29 228.42 C 166.26 230.73 163.92 232.75 161.61 234.78 C 164.48 238.35 166.91 242.30 168.40 246.65 C 173.03 259.41 174.55 273.07 175.13 286.55 C 175.35 291.87 175.34 297.20 175.53 302.52 C 176.45 302.45 178.30 302.30 179.22 302.23 C 177.95 302.57 176.69 302.89 175.43 303.24 C 175.76 309.27 174.14 315.60 176.54 321.36 C 179.45 329.59 181.72 338.20 181.81 346.98 C 181.87 350.10 181.06 353.12 180.17 356.09 C 172.31 357.17 164.40 358.37 156.44 357.78 C 158.79 353.28 164.46 350.84 164.37 345.14 C 165.21 337.01 165.94 328.50 163.42 320.58 C 162.44 317.21 158.72 316.12 155.69 315.39 C 146.91 313.60 137.90 313.27 128.96 313.26 C 121.99 313.33 114.99 312.99 108.07 313.98 C 108.12 324.37 111.35 334.36 112.34 344.65 C 112.41 347.92 113.54 353.33 109.14 354.19 C 102.05 356.07 94.61 354.97 87.51 353.72 C 87.92 351.17 88.79 348.71 90.86 347.04 C 92.74 345.20 95.68 344.06 96.26 341.24 C 97.73 334.92 97.35 328.38 97.36 321.95 C 97.11 302.27 97.33 282.54 99.23 262.95 C 99.05 262.50 98.69 261.62 98.51 261.18 C 101.41 255.86 100.84 249.45 103.17 243.89 C 103.99 241.82 105.11 239.91 106.15 237.95 C 100.35 236.38 94.20 234.70 89.79 230.35 C 84.41 225.08 82.47 217.26 82.51 209.94 C 82.15 197.24 85.68 184.86 90.19 173.11 C 91.55 169.72 92.72 166.00 91.57 162.36 C 87.76 147.84 84.96 133.05 83.37 118.12 C 82.66 108.78 81.95 99.05 85.08 90.04 Z" />
<path fill="#f7aabe" d=" M 296.82 86.81 C 299.29 83.51 304.40 80.75 308.12 83.82 C 313.32 88.30 314.65 95.48 316.26 101.82 C 319.88 120.71 319.47 140.07 319.25 159.21 C 329.45 158.12 339.90 156.58 350.08 158.77 C 353.08 159.35 355.73 160.92 358.35 162.40 C 360.00 145.25 361.91 128.02 366.35 111.32 C 367.96 105.34 369.85 99.35 373.07 94.02 C 374.55 91.61 376.54 89.28 379.30 88.34 C 383.31 87.16 388.25 89.71 388.83 94.07 C 390.60 104.37 388.70 114.87 386.76 125.01 C 384.05 138.13 380.63 151.10 376.67 163.89 C 375.93 166.05 375.65 168.39 376.44 170.59 C 379.36 180.72 382.05 190.95 383.37 201.43 C 384.10 209.87 384.21 219.07 379.66 226.56 C 377.76 229.94 374.19 231.86 371.88 234.85 C 378.95 244.03 381.52 255.62 383.35 266.83 C 384.45 273.36 384.78 279.98 385.17 286.59 C 385.37 291.91 385.35 297.25 385.56 302.58 C 386.46 302.48 388.25 302.30 389.15 302.21 C 387.89 302.58 386.62 302.93 385.37 303.30 C 385.78 309.31 384.14 315.62 386.54 321.36 C 389.37 329.61 391.85 338.19 391.80 346.99 C 391.58 349.99 391.66 353.34 389.75 355.87 C 382.19 357.65 374.31 358.09 366.55 357.77 C 368.76 353.19 374.51 350.81 374.37 345.12 C 375.17 336.99 375.96 328.47 373.39 320.58 C 372.40 317.19 368.69 316.13 365.66 315.42 C 356.90 313.60 347.90 313.26 338.98 313.27 C 332.01 313.33 325.00 312.91 318.09 314.05 C 318.14 324.41 321.38 334.39 322.35 344.65 C 322.38 347.92 323.56 353.42 319.11 354.21 C 311.86 355.86 304.13 355.42 297.05 353.21 C 298.13 351.03 298.98 348.64 300.91 347.04 C 302.84 345.21 305.75 343.96 306.21 341.05 C 307.38 336.46 307.39 331.68 307.38 326.99 C 307.15 307.82 307.18 288.62 308.63 269.49 C 308.77 266.77 309.88 263.82 308.54 261.27 C 311.38 255.88 310.79 249.47 313.18 243.90 C 314.03 241.84 315.11 239.89 316.16 237.93 C 311.22 236.58 306.07 235.33 301.95 232.12 C 296.74 228.39 293.88 222.16 292.93 215.97 C 291.28 202.42 294.43 188.80 299.07 176.13 C 300.23 172.83 301.85 169.59 302.09 166.05 C 301.92 162.25 300.53 158.66 299.72 154.97 C 296.04 139.22 293.33 123.17 292.75 106.98 C 292.87 100.14 292.98 92.77 296.82 86.81 Z" />
<path fill="#f7aabe" d=" M 926.41 87.43 C 928.77 83.76 934.24 80.58 938.20 83.86 C 943.29 88.38 944.69 95.50 946.28 101.83 C 949.85 120.72 949.51 140.07 949.21 159.22 C 962.16 157.99 976.66 155.08 988.40 162.39 C 990.08 143.38 992.36 124.27 997.90 105.94 C 999.87 100.16 1001.97 93.95 1006.71 89.80 C 1010.62 86.17 1018.18 88.59 1018.84 94.04 C 1020.75 106.07 1018.12 118.21 1015.74 129.98 C 1013.24 140.75 1010.51 151.47 1007.22 162.03 C 1006.50 164.59 1005.36 167.30 1006.28 169.97 C 1010.24 184.60 1014.92 199.58 1013.47 214.93 C 1012.78 219.67 1011.55 224.61 1008.37 228.34 C 1006.31 230.67 1003.96 232.71 1001.67 234.80 C 1009.06 243.88 1011.56 255.71 1013.32 267.00 C 1014.35 273.48 1014.85 280.03 1015.14 286.58 C 1015.70 291.73 1014.60 297.13 1015.90 302.14 C 1016.70 302.21 1018.31 302.34 1019.11 302.41 C 1017.83 302.71 1016.56 302.99 1015.32 303.31 C 1015.82 309.32 1014.13 315.62 1016.52 321.36 C 1019.42 329.60 1021.81 338.19 1021.83 346.99 C 1021.83 350.09 1021.02 353.10 1020.15 356.06 C 1012.34 357.21 1004.46 358.35 996.54 357.76 C 998.79 353.21 1004.48 350.82 1004.36 345.12 C 1005.24 336.99 1005.85 328.48 1003.40 320.56 C 1002.39 317.20 998.65 316.15 995.65 315.40 C 986.89 313.57 977.89 313.25 968.97 313.28 C 962.02 313.33 955.03 312.93 948.13 314.00 C 948.09 324.38 951.36 334.36 952.33 344.64 C 952.22 347.69 953.70 352.68 949.88 353.93 C 942.63 356.17 934.89 354.99 927.58 353.74 C 927.72 351.10 928.82 348.70 930.91 347.04 C 932.58 345.36 935.12 344.32 935.92 341.94 C 937.38 337.47 937.35 332.68 937.39 328.03 C 937.18 306.30 937.02 284.52 939.22 262.89 C 939.04 262.46 938.68 261.61 938.50 261.18 C 941.44 255.88 940.81 249.42 943.20 243.87 C 944.00 241.80 945.11 239.86 946.16 237.90 C 937.99 236.16 929.22 232.50 925.53 224.44 C 920.70 213.98 922.36 201.91 924.61 191.00 C 926.08 183.81 928.79 176.97 931.27 170.09 C 933.12 165.42 931.03 160.58 929.98 156.00 C 926.03 139.63 923.31 122.90 922.73 106.05 C 922.91 99.74 923.11 93.01 926.41 87.43 Z" />
<path fill="#f7aabe" d=" M 1142.09 82.89 C 1145.08 81.64 1148.43 83.42 1150.19 85.90 C 1153.60 90.55 1154.97 96.28 1156.25 101.81 C 1160.08 120.77 1159.12 140.21 1159.51 159.42 C 1172.35 157.83 1186.76 155.18 1198.43 162.39 C 1199.66 147.73 1201.37 133.08 1204.59 118.72 C 1206.37 110.96 1208.18 103.08 1211.96 96.01 C 1213.33 93.48 1214.94 90.94 1217.37 89.30 C 1221.41 86.37 1228.23 88.93 1228.83 94.07 C 1230.22 101.63 1229.27 109.41 1228.18 116.96 C 1225.54 133.95 1220.50 150.44 1215.98 166.98 C 1216.35 172.47 1218.75 177.64 1219.80 183.04 C 1222.77 195.64 1225.93 209.20 1221.85 221.92 C 1220.31 227.42 1215.77 231.22 1211.57 234.75 C 1216.91 240.97 1219.58 248.89 1221.41 256.75 C 1223.63 266.54 1224.83 276.54 1225.15 286.58 C 1225.33 291.89 1225.36 297.20 1225.57 302.52 C 1226.46 302.44 1228.24 302.30 1229.13 302.22 C 1227.86 302.59 1226.58 302.91 1225.35 303.29 C 1225.66 308.30 1224.76 313.38 1225.55 318.36 C 1228.68 327.60 1231.82 337.11 1231.80 346.98 C 1231.63 349.79 1231.61 352.78 1230.26 355.33 C 1229.26 356.34 1227.66 356.26 1226.39 356.62 C 1219.81 357.63 1213.13 358.13 1206.48 357.75 C 1208.82 353.24 1214.50 350.80 1214.33 345.09 C 1215.18 336.97 1215.94 328.46 1213.38 320.57 C 1212.31 316.90 1208.16 315.99 1204.92 315.24 C 1196.71 313.68 1188.32 313.26 1179.99 313.27 C 1172.70 313.33 1165.37 312.92 1158.14 313.98 C 1158.10 324.36 1161.34 334.36 1162.34 344.65 C 1162.34 347.91 1163.56 353.38 1159.12 354.20 C 1151.87 355.92 1144.11 355.39 1137.02 353.16 C 1138.09 351.00 1138.97 348.63 1140.88 347.04 C 1142.80 345.21 1145.71 343.97 1146.22 341.08 C 1148.02 333.53 1147.18 325.70 1147.31 318.02 C 1147.20 300.67 1147.20 283.28 1149.09 266.00 C 1149.46 264.25 1149.07 262.75 1148.54 261.17 C 1151.43 255.85 1150.82 249.43 1153.19 243.88 C 1154.00 241.82 1155.14 239.91 1156.18 237.96 C 1147.53 236.07 1138.13 231.95 1134.90 222.99 C 1130.12 210.03 1133.07 195.74 1136.78 182.88 C 1138.22 176.54 1142.62 170.68 1141.85 163.99 C 1138.91 151.68 1136.02 139.33 1134.42 126.76 C 1133.29 115.59 1131.46 104.13 1134.12 93.03 C 1135.10 88.71 1137.66 84.35 1142.09 82.89 Z" />
<path fill="#f7aabe" d=" M 1354.22 82.43 C 1358.24 82.62 1360.85 86.28 1362.42 89.60 C 1365.71 96.96 1367.06 105.01 1367.98 112.96 C 1369.84 128.39 1369.14 143.94 1369.52 159.42 C 1382.26 157.60 1396.49 155.44 1408.22 162.14 C 1410.70 141.23 1412.52 119.87 1420.05 100.01 C 1421.68 96.28 1423.53 92.42 1426.72 89.76 C 1430.46 86.39 1437.49 88.30 1438.65 93.32 C 1440.04 99.12 1439.49 105.18 1439.01 111.07 C 1436.90 127.66 1432.55 143.88 1427.89 159.91 C 1427.01 163.16 1425.25 166.49 1426.30 169.92 C 1429.21 180.81 1432.46 191.69 1433.53 202.96 C 1433.94 209.57 1434.01 216.40 1431.59 222.67 C 1429.92 227.84 1425.55 231.35 1421.61 234.77 C 1428.72 243.26 1431.22 254.40 1433.05 265.05 C 1434.36 272.15 1434.73 279.36 1435.14 286.55 C 1435.34 291.91 1435.33 297.27 1435.57 302.63 C 1436.45 302.51 1438.21 302.27 1439.09 302.16 C 1437.87 302.58 1436.61 302.87 1435.47 303.38 C 1435.43 308.34 1434.86 313.37 1435.57 318.30 C 1438.65 327.58 1441.87 337.08 1441.80 346.98 C 1441.63 349.80 1441.63 352.80 1440.29 355.37 C 1439.26 356.32 1437.73 356.29 1436.47 356.62 C 1429.84 357.60 1423.13 358.23 1416.44 357.77 C 1418.84 353.27 1424.49 350.75 1424.36 345.03 C 1425.20 337.16 1425.80 329.00 1423.63 321.29 C 1422.33 315.97 1415.95 315.50 1411.52 314.63 C 1397.14 312.88 1382.51 312.69 1368.10 314.01 C 1368.03 324.40 1371.41 334.35 1372.35 344.63 C 1372.24 347.68 1373.71 352.74 1369.85 353.94 C 1362.60 356.17 1354.87 354.99 1347.55 353.76 C 1347.78 351.15 1348.86 348.74 1350.87 347.01 C 1352.77 345.16 1355.75 343.97 1356.22 341.05 C 1358.12 332.85 1357.12 324.37 1357.29 316.04 C 1357.19 300.50 1357.47 284.96 1358.62 269.46 C 1358.74 266.73 1359.95 263.80 1358.49 261.24 C 1361.34 255.86 1360.85 249.47 1363.17 243.88 C 1363.98 241.81 1365.11 239.88 1366.16 237.92 C 1359.20 236.20 1351.66 233.78 1347.41 227.57 C 1341.45 219.00 1342.00 207.89 1343.28 198.02 C 1344.58 188.36 1347.91 179.17 1351.30 170.09 C 1353.26 165.09 1350.73 159.97 1349.75 155.05 C 1346.80 142.34 1344.29 129.48 1343.36 116.44 C 1342.48 107.95 1342.22 99.14 1344.79 90.91 C 1346.03 86.64 1349.66 82.88 1354.22 82.43 Z" />
<path fill="#f7aabe" d=" M 1564.25 82.46 C 1568.00 82.50 1570.54 85.87 1572.08 88.94 C 1576.00 97.04 1577.22 106.10 1578.22 114.95 C 1579.57 129.67 1579.52 144.47 1579.26 159.24 C 1592.19 157.95 1606.67 155.12 1618.41 162.38 C 1620.50 141.84 1622.50 120.97 1629.49 101.41 C 1631.32 96.98 1633.30 92.18 1637.35 89.32 C 1641.12 86.56 1647.55 88.59 1648.61 93.29 C 1650.06 99.45 1649.46 105.87 1648.91 112.11 C 1647.12 125.37 1643.91 138.40 1640.37 151.29 C 1639.07 156.91 1636.69 162.30 1635.92 168.01 C 1638.80 179.89 1642.58 191.67 1643.60 203.93 C 1643.97 210.70 1643.86 217.72 1641.03 224.01 C 1639.12 228.53 1635.14 231.60 1631.61 234.78 C 1637.19 241.37 1639.86 249.75 1641.73 258.04 C 1643.75 267.42 1644.79 276.98 1645.13 286.57 C 1645.49 291.35 1645.09 296.15 1645.51 300.93 C 1645.36 302.94 1647.73 302.12 1649.00 302.44 C 1647.80 302.67 1646.59 302.91 1645.44 303.16 C 1645.66 308.21 1644.74 313.31 1645.56 318.32 C 1648.65 327.59 1651.89 337.08 1651.80 346.98 C 1651.57 349.96 1651.76 353.39 1649.76 355.84 C 1642.21 357.75 1634.30 358.05 1626.55 357.84 C 1627.85 355.16 1630.02 353.17 1632.14 351.15 C 1633.83 349.59 1633.88 347.12 1634.34 345.03 C 1635.22 336.92 1635.93 328.44 1633.41 320.55 C 1631.67 315.83 1625.80 315.52 1621.59 314.65 C 1607.20 312.86 1592.54 312.70 1578.12 313.99 C 1578.03 324.38 1581.41 334.35 1582.33 344.64 C 1582.43 347.33 1582.76 350.16 1581.80 352.75 C 1576.60 356.17 1569.84 355.13 1563.96 354.80 C 1561.77 354.22 1558.23 354.76 1557.50 352.06 C 1558.02 350.06 1559.43 348.48 1560.85 347.05 C 1562.40 345.57 1564.46 344.56 1565.62 342.71 C 1567.23 338.70 1567.24 334.26 1567.38 330.00 C 1567.34 311.33 1566.90 292.63 1568.31 273.99 C 1568.19 269.73 1569.86 265.44 1568.65 261.24 C 1571.18 255.76 1570.94 249.50 1573.15 243.90 C 1573.99 241.84 1575.12 239.90 1576.20 237.94 C 1569.70 236.17 1562.66 234.19 1558.28 228.69 C 1552.42 221.58 1552.04 211.84 1552.68 203.07 C 1553.56 192.51 1556.61 182.26 1560.48 172.44 C 1561.76 169.25 1562.59 165.73 1561.58 162.35 C 1558.23 149.40 1555.48 136.27 1553.95 122.97 C 1552.96 112.57 1551.61 101.84 1554.54 91.63 C 1555.71 87.10 1559.35 82.84 1564.25 82.46 Z" />
<path fill="#f7aabe" d=" M 1766.42 87.42 C 1768.69 83.70 1774.21 80.61 1778.12 83.84 C 1783.13 88.07 1784.53 94.88 1786.06 100.94 C 1790.11 120.15 1789.18 139.90 1789.46 159.40 C 1802.25 157.83 1816.48 155.27 1828.23 162.15 C 1830.48 142.50 1832.43 122.59 1838.65 103.71 C 1840.53 98.68 1842.54 93.29 1846.75 89.72 C 1850.51 86.49 1857.43 88.28 1858.61 93.27 C 1860.05 99.07 1859.47 105.14 1859.01 111.03 C 1856.91 127.33 1852.71 143.27 1848.15 159.02 C 1847.19 162.80 1845.06 166.69 1846.45 170.64 C 1849.45 181.23 1852.33 191.92 1853.54 202.90 C 1853.90 209.54 1854.08 216.43 1851.57 222.72 C 1849.87 227.85 1845.51 231.30 1841.66 234.79 C 1848.12 242.54 1850.68 252.56 1852.53 262.26 C 1854.10 270.27 1854.78 278.42 1855.14 286.57 C 1855.44 291.73 1855.42 296.90 1855.31 302.07 C 1856.53 302.17 1857.77 302.25 1859.04 302.33 C 1857.82 302.61 1856.61 302.91 1855.45 303.19 C 1855.66 308.24 1854.77 313.35 1855.57 318.36 C 1858.62 327.63 1861.87 337.10 1861.80 346.98 C 1861.54 349.96 1861.72 353.34 1859.81 355.82 C 1852.19 357.63 1844.25 358.11 1836.45 357.79 C 1838.81 353.29 1844.44 350.79 1844.36 345.09 C 1845.22 336.99 1845.89 328.50 1843.39 320.61 C 1841.70 315.85 1835.82 315.50 1831.61 314.65 C 1817.20 312.88 1802.54 312.68 1788.10 314.01 C 1788.08 324.40 1791.38 334.38 1792.36 344.66 C 1792.36 347.96 1793.63 353.40 1789.15 354.22 C 1781.89 355.93 1774.15 355.33 1767.05 353.20 C 1768.12 351.04 1768.98 348.67 1770.85 347.03 C 1772.55 345.37 1775.19 344.35 1775.92 341.90 C 1777.61 336.43 1777.40 330.62 1777.37 324.96 C 1777.19 306.46 1777.17 287.93 1778.65 269.48 C 1778.85 266.76 1779.67 263.91 1778.59 261.29 C 1781.22 255.82 1780.90 249.50 1783.15 243.89 C 1783.98 241.81 1785.17 239.89 1786.29 237.95 C 1779.10 236.17 1771.23 233.66 1767.06 227.05 C 1760.59 216.96 1762.15 204.17 1764.22 192.99 C 1765.66 185.09 1768.54 177.59 1771.29 170.09 C 1773.39 164.01 1769.92 157.98 1769.03 152.00 C 1765.66 137.21 1763.36 122.15 1762.74 106.99 C 1762.89 100.38 1763.01 93.30 1766.42 87.42 Z" />
<path fill="#f7aabe" d=" M 509.34 84.37 C 511.79 82.45 515.58 81.75 518.16 83.83 C 522.08 87.16 523.72 92.30 525.09 97.08 C 530.43 117.42 528.98 138.65 529.53 159.45 C 542.30 157.65 556.51 155.41 568.27 162.15 C 570.18 144.28 572.12 126.30 577.00 108.95 C 578.88 102.72 580.93 96.25 585.20 91.19 C 587.47 88.35 591.64 87.08 594.94 88.93 C 598.51 90.38 599.24 94.64 599.41 98.05 C 599.99 110.48 597.38 122.77 594.60 134.81 C 592.23 144.58 589.67 154.31 586.68 163.92 C 586.11 165.86 585.56 167.93 586.28 169.92 C 589.31 180.77 592.36 191.67 593.55 202.90 C 594.06 211.10 593.99 220.04 589.27 227.14 C 587.37 230.24 584.00 232.01 581.86 234.86 C 589.38 244.60 591.85 257.00 593.64 268.90 C 594.63 274.73 594.75 280.65 595.12 286.55 C 595.50 291.33 595.12 296.14 595.50 300.92 C 595.38 302.86 597.83 302.11 599.01 302.47 C 597.77 302.70 596.55 303.00 595.33 303.25 C 595.66 308.28 594.73 313.38 595.60 318.36 C 598.68 327.62 601.85 337.09 601.82 346.98 C 601.68 349.83 601.60 352.83 600.26 355.43 C 599.16 356.22 597.76 356.36 596.49 356.63 C 589.88 357.57 583.20 358.19 576.53 357.83 C 578.70 353.19 584.54 350.82 584.35 345.07 C 585.15 336.95 585.92 328.44 583.39 320.55 C 582.41 317.15 578.68 316.10 575.64 315.39 C 567.23 313.66 558.60 313.25 550.03 313.28 C 542.71 313.35 535.36 312.91 528.10 314.00 C 528.11 324.38 531.36 334.36 532.30 344.65 C 532.35 347.93 533.61 353.39 529.11 354.21 C 521.87 355.89 514.13 355.39 507.05 353.18 C 508.13 351.02 509.00 348.67 510.88 347.04 C 512.58 345.37 515.20 344.33 515.96 341.89 C 517.33 337.42 517.36 332.67 517.41 328.04 C 517.13 306.35 517.14 284.60 519.23 262.99 C 519.06 262.54 518.71 261.63 518.53 261.18 C 521.44 255.86 520.81 249.46 523.15 243.91 C 523.99 241.85 525.10 239.91 526.14 237.95 C 520.29 236.36 514.13 234.63 509.69 230.27 C 505.15 225.73 502.94 219.26 502.64 212.93 C 501.74 199.26 505.28 185.72 510.24 173.09 C 511.42 169.90 512.72 166.47 511.71 163.05 C 507.99 148.60 505.08 133.93 503.47 119.09 C 502.78 111.07 502.26 102.92 503.71 94.94 C 504.48 91.00 505.87 86.75 509.34 84.37 Z" />
<path fill="#f7aabe" d=" M 714.53 91.64 C 715.71 87.19 719.27 82.93 724.09 82.53 C 727.98 82.40 730.53 85.88 732.12 88.98 C 736.00 97.09 737.21 106.13 738.22 114.97 C 739.60 129.66 739.52 144.44 739.25 159.18 C 752.21 157.99 766.60 155.15 778.40 162.31 C 780.18 142.53 782.51 122.60 788.66 103.65 C 790.81 98.05 793.11 91.60 798.68 88.56 C 803.69 86.46 809.38 90.73 809.20 96.07 C 810.60 114.39 805.16 132.30 800.77 149.89 C 799.39 155.99 796.74 161.80 795.94 168.01 C 799.24 181.84 804.02 195.65 803.72 210.06 C 803.79 215.31 802.75 220.62 800.41 225.34 C 798.34 229.20 794.75 231.87 791.61 234.80 C 794.11 237.93 796.38 241.28 797.78 245.06 C 802.89 258.27 804.52 272.52 805.15 286.58 C 805.53 291.62 805.10 296.69 805.53 301.73 C 806.62 302.15 807.77 302.38 808.98 302.39 C 807.83 302.68 806.67 302.94 805.57 303.31 C 805.30 308.29 804.93 313.36 805.57 318.31 C 808.67 327.59 811.87 337.08 811.82 346.98 C 811.82 350.09 811.03 353.11 810.16 356.07 C 802.23 357.04 794.17 358.85 786.19 357.35 C 789.32 353.54 794.31 350.57 794.35 345.06 C 795.24 336.96 795.91 328.46 793.39 320.59 C 792.42 317.18 788.68 316.19 785.66 315.43 C 773.30 312.76 760.57 313.36 748.01 313.27 C 744.67 313.23 741.36 313.63 738.07 314.07 C 738.15 324.43 741.36 334.40 742.34 344.66 C 742.45 347.33 742.79 350.15 741.80 352.71 C 739.41 354.79 736.01 354.86 733.03 355.11 C 727.62 355.38 722.16 354.91 717.02 353.15 C 718.16 351.03 719.06 348.71 720.88 347.05 C 722.43 345.58 724.46 344.55 725.65 342.73 C 727.29 338.36 727.27 333.59 727.38 328.99 C 727.27 308.68 726.92 288.33 728.80 268.09 C 729.00 265.82 729.70 263.39 728.48 261.29 C 731.40 255.92 730.84 249.48 733.13 243.86 C 733.98 241.79 735.14 239.88 736.22 237.93 C 728.30 236.11 719.62 232.85 715.85 225.04 C 710.44 214.17 712.42 201.39 714.86 189.98 C 716.28 183.13 718.98 176.67 721.26 170.09 C 723.08 165.40 720.98 160.58 720.00 155.97 C 717.01 144.34 715.20 132.45 713.60 120.56 C 712.76 110.97 711.83 101.03 714.53 91.64 Z" />
<path fill="#f7aabe" d=" M 1981.19 83.26 C 1984.07 81.79 1987.75 82.77 1989.71 85.30 C 1993.50 89.99 1994.84 96.06 1996.26 101.78 C 2000.07 120.76 1999.13 140.21 1999.51 159.44 C 2008.93 157.75 2018.64 157.01 2028.16 158.35 C 2031.84 158.79 2035.16 160.57 2038.37 162.35 C 2040.26 142.83 2042.44 123.14 2048.40 104.36 C 2050.29 99.30 2052.24 93.94 2056.24 90.13 C 2059.88 86.39 2067.47 88.03 2068.68 93.31 C 2070.07 99.81 2069.46 106.57 2068.77 113.13 C 2066.22 130.84 2061.40 148.13 2056.32 165.26 C 2055.23 168.35 2056.76 171.45 2057.51 174.43 C 2061.16 187.80 2064.90 201.58 2063.42 215.57 C 2062.66 220.35 2061.17 225.24 2057.87 228.91 C 2055.92 231.02 2053.78 232.92 2051.62 234.78 C 2055.94 239.97 2058.64 246.26 2060.38 252.73 C 2063.36 263.77 2064.75 275.19 2065.13 286.61 C 2065.29 291.92 2065.31 297.25 2065.55 302.56 C 2066.45 302.48 2068.23 302.32 2069.13 302.24 C 2067.86 302.61 2066.57 302.93 2065.37 303.31 C 2065.57 308.33 2064.76 313.40 2065.58 318.38 C 2068.63 327.64 2071.94 337.09 2071.80 346.98 C 2071.51 349.91 2071.85 353.48 2069.74 355.81 C 2062.18 357.70 2054.26 358.09 2046.51 357.75 C 2048.82 353.25 2054.48 350.81 2054.38 345.14 C 2055.21 337.03 2055.92 328.54 2053.39 320.65 C 2051.93 316.00 2046.31 315.61 2042.29 314.76 C 2027.68 312.82 2012.80 312.75 1998.14 313.94 C 1998.02 324.35 2001.36 334.36 2002.33 344.66 C 2002.32 347.95 2003.59 353.40 1999.11 354.22 C 1991.86 355.92 1984.12 355.41 1977.06 353.15 C 1978.11 351.01 1978.98 348.67 1980.81 347.04 C 1982.37 345.58 1984.48 344.60 1985.65 342.76 C 1987.30 338.38 1987.27 333.59 1987.39 328.97 C 1987.29 307.62 1986.80 286.21 1989.14 264.95 C 1989.24 263.68 1989.05 262.45 1988.59 261.26 C 1991.20 255.80 1990.97 249.51 1993.15 243.89 C 1993.97 241.81 1995.15 239.89 1996.25 237.95 C 1989.27 236.21 1981.68 233.81 1977.40 227.58 C 1972.01 219.90 1971.99 210.00 1972.89 201.02 C 1973.85 191.96 1976.39 183.17 1979.63 174.68 C 1980.91 170.97 1982.85 167.07 1981.72 163.05 C 1978.45 150.19 1975.63 137.18 1974.10 123.98 C 1973.01 114.04 1971.85 103.89 1973.88 93.99 C 1974.83 89.71 1976.93 85.12 1981.19 83.26 Z" />
<path fill="#bd1f46" d=" M 463.03 102.37 C 464.73 102.34 466.43 102.23 468.13 102.06 C 469.56 103.68 470.67 105.55 472.08 107.19 C 470.88 107.26 468.47 107.39 467.27 107.46 C 466.59 107.49 465.92 107.52 465.26 107.55 C 463.39 107.65 461.54 107.74 459.68 107.83 C 460.79 106.01 461.89 104.18 463.03 102.37 Z" />
<path fill="#bd1f46" d=" M 43.05 103.38 C 44.81 103.34 46.57 103.23 48.33 103.03 C 49.52 104.71 50.65 106.45 51.95 108.06 C 50.80 108.15 48.51 108.33 47.36 108.42 C 46.94 108.45 46.10 108.51 45.68 108.54 C 43.66 108.66 41.64 108.73 39.62 108.83 C 40.75 107.00 41.90 105.19 43.05 103.38 Z" />
<path fill="#bd1f46" d=" M 1303.96 104.16 C 1305.63 104.33 1307.32 104.43 1309.03 104.43 C 1310.28 106.08 1311.19 107.95 1312.34 109.69 C 1310.75 109.66 1309.18 109.63 1307.63 109.59 C 1306.91 109.56 1306.21 109.55 1305.53 109.53 C 1303.70 109.46 1301.84 109.44 1300.04 109.36 C 1301.38 107.66 1302.60 105.86 1303.96 104.16 Z" />
<path fill="#bd1f46" d=" M 253.05 106.35 C 254.74 106.31 256.43 106.20 258.11 106.04 C 259.54 107.69 260.73 109.51 262.03 111.25 C 260.59 111.35 259.15 111.43 257.72 111.51 C 257.31 111.52 256.50 111.56 256.10 111.58 L 256.24 112.65 C 254.21 111.46 251.93 111.67 249.67 111.75 C 250.81 109.96 251.94 108.16 253.05 106.35 Z" />
<path fill="#bd1f46" d=" M 1093.14 106.33 C 1094.69 106.39 1096.25 106.41 1097.83 106.38 L 1098.48 106.37 C 1099.65 108.08 1100.84 109.79 1102.04 111.50 C 1100.59 111.51 1099.16 111.54 1097.74 111.57 C 1096.81 111.57 1095.89 111.59 1094.99 111.61 C 1093.19 111.62 1091.40 111.66 1089.63 111.70 C 1090.77 109.90 1091.95 108.11 1093.14 106.33 Z" />
<path fill="#bd1f46" d=" M 1513.04 106.37 C 1514.58 106.39 1516.15 106.34 1517.73 106.22 L 1518.44 106.17 C 1519.64 107.84 1520.69 109.61 1522.01 111.21 C 1520.93 111.27 1518.78 111.38 1517.70 111.44 C 1516.83 111.48 1515.99 111.52 1515.16 111.56 C 1513.31 111.65 1511.48 111.74 1509.68 111.83 C 1510.79 110.02 1511.87 108.17 1513.04 106.37 Z" />
<path fill="#09090a" d=" M 465.26 107.55 C 465.92 107.52 466.59 107.49 467.27 107.46 C 471.53 146.86 476.02 186.37 476.24 226.04 C 475.91 225.87 475.25 225.52 474.92 225.34 C 474.24 188.75 470.64 152.29 466.70 115.93 C 466.42 113.11 465.97 110.30 465.26 107.55 Z" />
<path fill="#bd1f46" d=" M 883.08 107.32 C 884.82 107.28 886.58 107.18 888.33 106.98 C 889.63 108.68 890.76 110.50 892.02 112.24 C 890.62 112.31 889.22 112.38 887.84 112.45 C 887.34 112.48 886.35 112.53 885.85 112.56 C 883.80 112.63 881.75 112.70 879.72 112.76 C 880.86 110.96 881.90 109.10 883.08 107.32 Z" />
<path fill="#09090a" d=" M 45.68 108.54 C 46.10 108.51 46.94 108.45 47.36 108.42 C 51.61 147.46 56.00 186.60 56.25 225.91 C 55.89 225.83 55.16 225.68 54.79 225.60 C 54.55 195.00 51.65 164.50 48.63 134.07 C 47.68 125.56 46.98 117.01 45.68 108.54 Z" />
<path fill="#bd1f46" d=" M 674.09 108.45 C 675.64 108.40 677.21 108.35 678.78 108.25 C 680.01 109.95 681.04 111.79 682.24 113.53 C 680.82 113.55 679.41 113.57 678.01 113.60 C 677.36 113.61 676.71 113.62 676.07 113.63 C 674.02 113.65 671.96 113.65 669.92 113.66 C 671.24 111.91 672.08 109.51 674.09 108.45 Z" />
<path fill="#f0648b" d=" M 91.18 116.95 C 91.25 113.95 91.77 110.02 94.99 108.82 C 97.80 109.02 99.09 111.90 99.65 114.28 C 101.58 122.69 101.58 131.39 101.05 139.95 C 100.63 145.40 100.93 150.94 99.61 156.29 C 98.57 153.91 97.61 151.48 96.96 148.96 C 94.09 138.51 91.05 127.88 91.18 116.95 Z" />
<path fill="#f0648b" d=" M 304.15 109.15 C 307.41 108.17 309.04 111.69 309.64 114.24 C 312.50 125.65 311.03 137.50 310.65 149.09 C 310.67 151.56 310.07 153.96 309.48 156.34 C 305.45 144.94 302.26 133.08 301.24 121.00 C 301.18 117.01 300.53 111.88 304.15 109.15 Z" />
<path fill="#f0648b" d=" M 511.16 116.91 C 511.25 113.92 511.76 109.99 515.05 108.87 C 518.21 109.04 519.16 112.51 519.84 115.02 C 522.32 125.84 521.13 137.05 520.67 148.02 C 520.60 150.80 520.22 153.57 519.64 156.29 C 518.57 153.93 517.62 151.51 516.98 149.00 C 514.09 138.52 511.06 127.87 511.16 116.91 Z" />
<path fill="#f0648b" d=" M 721.33 115.02 C 721.45 112.29 723.15 107.71 726.67 109.25 C 730.56 112.55 730.28 118.33 731.03 122.99 C 731.67 134.09 731.28 145.34 729.63 156.33 C 728.32 153.41 727.31 150.37 726.54 147.28 C 723.67 136.79 720.57 126.00 721.33 115.02 Z" />
<path fill="#f0648b" d=" M 933.11 110.07 C 934.17 108.40 936.63 108.80 937.73 110.21 C 939.36 112.37 939.92 115.10 940.44 117.70 C 942.13 128.41 941.09 139.28 940.56 150.04 C 940.44 152.17 940.04 154.27 939.64 156.36 C 938.84 154.49 937.96 152.64 937.45 150.67 C 934.67 140.62 931.72 130.48 931.18 120.00 C 931.16 116.66 930.98 112.88 933.11 110.07 Z" />
<path fill="#f0648b" d=" M 1141.21 115.94 C 1141.39 113.24 1142.03 109.71 1145.07 108.89 C 1147.62 108.86 1148.80 111.58 1149.45 113.64 C 1152.07 123.87 1151.41 134.54 1150.80 144.97 C 1150.62 148.79 1150.48 152.63 1149.70 156.39 C 1147.45 151.86 1146.44 146.89 1145.07 142.06 C 1142.89 133.53 1140.79 124.80 1141.21 115.94 Z" />
<path fill="#09090a" d=" M 1305.53 109.53 C 1306.21 109.55 1306.91 109.56 1307.63 109.59 C 1311.51 148.26 1316.09 186.98 1316.26 225.90 C 1315.89 225.83 1315.16 225.69 1314.79 225.63 C 1314.43 189.01 1310.57 152.54 1306.73 116.15 C 1306.53 113.91 1306.03 111.71 1305.53 109.53 Z" />
<path fill="#f0648b" d=" M 1353.06 110.09 C 1354.99 107.79 1358.36 109.56 1358.93 112.13 C 1361.92 120.70 1361.39 129.99 1361.13 138.93 C 1360.64 144.73 1360.97 150.62 1359.67 156.33 C 1355.56 146.13 1353.03 135.25 1351.51 124.36 C 1351.19 119.64 1350.27 114.25 1353.06 110.09 Z" />
<path fill="#f0648b" d=" M 1561.41 114.29 C 1561.71 111.81 1562.97 108.72 1565.98 108.91 C 1569.98 111.07 1569.96 116.26 1570.70 120.19 C 1571.89 132.21 1571.35 144.46 1569.66 156.40 C 1566.68 149.57 1565.15 142.21 1563.36 135.01 C 1561.94 128.22 1560.57 121.25 1561.41 114.29 Z" />
<path fill="#bd1f46" d=" M 1724.03 109.37 C 1725.70 109.33 1727.39 109.23 1729.10 109.06 C 1730.57 110.65 1731.65 112.53 1733.03 114.20 C 1731.37 114.31 1729.72 114.39 1728.10 114.46 C 1727.58 114.49 1726.55 114.53 1726.04 114.56 C 1724.23 114.63 1722.43 114.75 1720.67 114.83 C 1721.77 113.01 1722.89 111.18 1724.03 109.37 Z" />
<path fill="#f0648b" d=" M 1773.05 110.03 C 1774.91 107.71 1778.31 109.69 1778.92 112.14 C 1781.68 120.08 1781.45 128.69 1781.25 136.98 C 1780.74 143.44 1780.96 149.98 1779.67 156.35 C 1775.69 146.64 1773.37 136.25 1771.71 125.91 C 1771.27 120.67 1770.05 114.74 1773.05 110.03 Z" />
<path fill="#f0648b" d=" M 1981.52 113.64 C 1981.81 111.37 1983.31 108.64 1986.01 109.00 C 1989.03 110.37 1989.61 114.04 1990.30 116.93 C 1992.38 130.00 1990.98 143.29 1989.70 156.37 C 1986.62 149.82 1985.31 142.62 1983.52 135.65 C 1982.02 128.45 1980.42 121.02 1981.52 113.64 Z" />
<path fill="#09090a" d=" M 1094.99 111.61 C 1095.89 111.59 1096.81 111.57 1097.74 111.57 C 1101.79 149.57 1106.02 187.65 1106.27 225.90 C 1105.90 225.83 1105.16 225.68 1104.80 225.60 C 1104.45 189.93 1100.75 154.41 1097.04 118.96 C 1096.73 116.40 1096.75 113.68 1094.99 111.61 Z" />
<path fill="#09090a" d=" M 1515.16 111.56 C 1515.99 111.52 1516.83 111.48 1517.70 111.44 C 1521.81 149.49 1526.02 187.64 1526.25 225.94 C 1525.89 225.85 1525.16 225.66 1524.80 225.56 C 1524.43 189.37 1520.64 153.33 1516.87 117.37 C 1516.73 115.31 1516.21 113.33 1515.16 111.56 Z" />
<path fill="#09090a" d=" M 256.10 111.58 C 256.50 111.56 257.31 111.52 257.72 111.51 C 261.80 149.52 266.02 187.63 266.25 225.90 C 265.89 225.83 265.16 225.69 264.79 225.62 C 264.34 187.83 260.48 150.17 256.24 112.65 L 256.10 111.58 Z" />
<path fill="#09090a" d=" M 676.07 113.63 C 676.71 113.62 677.36 113.61 678.01 113.60 C 681.85 150.94 686.09 188.36 686.25 225.94 C 685.89 225.85 685.16 225.67 684.80 225.58 C 684.62 199.14 682.34 172.77 679.86 146.46 C 678.60 135.52 678.09 124.46 676.07 113.63 Z" />
<path fill="#09090a" d=" M 885.85 112.56 C 886.35 112.53 887.34 112.48 887.84 112.45 C 891.84 150.16 896.04 187.94 896.26 225.90 C 895.89 225.83 895.16 225.71 894.79 225.64 C 894.49 192.03 891.14 158.54 887.69 125.13 C 887.13 120.93 887.12 116.62 885.85 112.56 Z" />
<path fill="#f0648b" d=" M 162.70 118.66 C 163.91 116.51 165.74 113.55 168.67 114.31 C 171.30 115.41 170.85 118.70 170.81 121.00 C 170.06 129.28 166.67 137.01 163.55 144.62 C 161.21 149.92 159.12 155.37 156.05 160.30 C 155.91 153.84 156.76 147.41 157.33 140.99 C 158.47 133.44 159.28 125.60 162.70 118.66 Z" />
<path fill="#f0648b" d=" M 375.87 114.78 C 378.05 113.20 381.10 115.35 380.81 117.92 C 381.16 125.98 377.89 133.62 375.05 141.01 C 372.27 147.53 369.70 154.19 366.08 160.30 C 366.14 149.12 367.33 137.89 369.79 126.97 C 370.94 122.60 372.18 117.73 375.87 114.78 Z" />
<path fill="#f0648b" d=" M 585.84 114.79 C 587.67 113.41 590.56 114.69 590.68 117.03 C 591.55 123.82 588.92 130.40 586.75 136.71 C 583.49 144.70 580.43 152.84 576.03 160.29 C 576.18 149.38 577.25 138.43 579.60 127.77 C 580.80 123.15 581.92 117.92 585.84 114.79 Z" />
<path fill="#f0648b" d=" M 796.40 114.46 C 798.28 113.52 800.47 115.05 800.69 117.02 C 801.34 121.96 799.96 126.87 798.53 131.56 C 795.54 140.54 791.68 149.20 787.67 157.76 C 787.48 158.34 785.73 161.23 785.94 159.08 C 786.47 147.44 787.41 135.66 790.47 124.36 C 791.60 120.70 792.95 116.57 796.40 114.46 Z" />
<path fill="#f0648b" d=" M 1006.38 114.50 C 1008.72 113.37 1010.97 115.66 1010.80 118.00 C 1011.15 126.31 1007.68 134.15 1004.76 141.75 C 1002.05 148.02 999.53 154.42 996.10 160.34 C 996.25 148.50 997.32 136.54 1000.30 125.05 C 1001.50 121.21 1002.72 116.71 1006.38 114.50 Z" />
<path fill="#f0648b" d=" M 1215.31 115.22 C 1216.78 113.66 1220.05 113.93 1220.52 116.31 C 1221.75 123.03 1219.12 129.65 1217.04 135.93 C 1213.70 144.16 1210.61 152.59 1206.04 160.24 C 1206.15 149.55 1207.25 138.84 1209.47 128.38 C 1210.62 123.74 1211.71 118.64 1215.31 115.22 Z" />
<path fill="#f0648b" d=" M 1425.87 114.83 C 1427.68 113.29 1430.56 114.72 1430.70 117.02 C 1431.44 124.05 1428.78 130.86 1426.48 137.38 C 1423.31 145.14 1420.33 153.06 1416.05 160.29 C 1416.19 149.10 1417.32 137.87 1419.79 126.95 C 1420.98 122.63 1422.10 117.68 1425.87 114.83 Z" />
<path fill="#f0648b" d=" M 1635.25 115.23 C 1636.96 113.37 1640.58 114.32 1640.71 117.02 C 1641.43 124.03 1638.86 130.85 1636.51 137.34 C 1633.27 145.10 1630.34 153.07 1626.05 160.33 C 1626.19 149.84 1627.18 139.32 1629.30 129.03 C 1630.48 124.19 1631.61 118.90 1635.25 115.23 Z" />
<path fill="#3a292e" d=" M 1726.04 114.56 C 1726.55 114.53 1727.58 114.49 1728.10 114.46 C 1728.36 116.55 1728.55 118.62 1728.85 120.71 C 1728.32 120.55 1727.26 120.22 1726.74 120.05 C 1727.02 118.17 1726.39 116.37 1726.04 114.56 Z" />
<path fill="#f0648b" d=" M 1845.31 115.22 C 1847.04 113.35 1850.47 114.42 1850.72 117.00 C 1851.51 125.14 1848.07 132.87 1845.30 140.33 C 1842.37 147.08 1839.83 154.05 1836.05 160.38 C 1836.15 149.65 1837.27 138.90 1839.44 128.39 C 1840.58 123.75 1841.71 118.64 1845.31 115.22 Z" />
<path fill="#bd1f46" d=" M 1933.04 114.36 C 1934.79 114.31 1936.56 114.20 1938.34 114.01 C 1939.56 115.74 1940.65 117.56 1942.01 119.22 C 1941.15 119.26 1939.45 119.35 1938.60 119.39 C 1937.29 119.45 1936.01 119.50 1934.75 119.55 C 1933.03 119.61 1931.31 119.73 1929.64 119.84 C 1930.75 118.00 1931.89 116.18 1933.04 114.36 Z" />
<path fill="#f0648b" d=" M 2055.81 114.77 C 2057.98 113.16 2061.00 115.32 2060.79 117.87 C 2061.14 126.46 2057.56 134.56 2054.46 142.39 C 2051.79 148.44 2049.61 154.77 2045.99 160.34 C 2046.34 148.51 2047.27 136.58 2050.27 125.09 C 2051.34 121.35 2052.68 117.31 2055.81 114.77 Z" />
<path fill="#09090a" d=" M 1934.75 119.55 C 1936.01 119.50 1937.29 119.45 1938.60 119.39 C 1942.29 154.81 1946.10 190.31 1946.25 225.95 C 1945.89 225.86 1945.16 225.67 1944.80 225.57 C 1944.65 201.02 1942.62 176.52 1940.41 152.09 C 1939.31 141.48 1938.50 130.83 1937.04 120.28 C 1936.46 120.10 1935.32 119.73 1934.75 119.55 Z" />
<path fill="#09090a" d=" M 1727.43 123.24 C 1727.92 122.51 1728.44 121.78 1728.98 121.06 C 1732.13 155.95 1736.22 190.85 1736.27 225.94 C 1735.90 225.84 1735.17 225.65 1734.80 225.56 C 1734.42 191.34 1731.10 157.23 1727.43 123.24 Z" />
<path fill="#feddc3" d=" M 120.42 168.46 C 129.90 167.64 139.74 170.00 147.57 175.48 C 156.75 181.82 162.94 192.72 162.24 204.02 C 161.46 218.72 149.02 230.81 135.02 233.74 C 116.51 238.36 94.28 228.00 89.00 208.99 C 84.46 194.31 93.42 178.17 107.01 172.03 C 111.23 170.08 115.80 168.94 120.42 168.46 Z" />
<path fill="#feddc3" d=" M 330.37 168.45 C 338.87 167.74 347.63 169.48 355.02 173.81 C 365.25 179.71 372.52 191.01 372.26 203.00 C 372.04 217.02 360.97 229.17 347.86 232.96 C 330.26 238.71 308.36 230.69 300.64 213.39 C 296.87 205.45 296.87 195.82 300.86 187.96 C 306.09 176.62 318.14 169.45 330.37 168.45 Z" />
<path fill="#feddc3" d=" M 540.33 168.42 C 551.68 167.48 563.62 171.02 571.86 179.06 C 577.43 184.25 581.26 191.39 582.03 199.00 C 583.14 208.13 579.65 217.60 572.96 223.89 C 561.07 236.12 540.90 237.95 526.26 229.79 C 515.99 224.47 508.22 213.71 507.89 201.97 C 507.54 194.20 510.52 186.42 515.67 180.65 C 521.83 173.45 531.01 169.39 540.33 168.42 Z" />
<path fill="#feddc3" d=" M 750.29 168.47 C 759.34 167.73 768.72 169.68 776.38 174.67 C 784.12 179.78 790.26 187.80 791.81 197.07 C 793.47 206.51 790.34 216.68 783.44 223.37 C 776.70 230.59 766.87 234.54 757.07 234.76 C 742.27 235.28 726.76 227.20 720.58 213.40 C 716.54 204.74 717.08 194.21 721.85 185.95 C 727.58 175.81 738.79 169.41 750.29 168.47 Z" />
<path fill="#feddc3" d=" M 960.36 168.45 C 971.93 167.39 984.13 171.23 992.36 179.58 C 998.70 185.57 1002.36 194.25 1002.23 202.98 C 1002.15 210.87 998.59 218.49 992.92 223.93 C 981.23 235.93 961.52 237.87 946.97 230.16 C 937.48 225.54 930.15 216.43 928.27 205.97 C 926.51 196.30 930.15 186.00 937.09 179.14 C 943.17 172.79 951.70 169.31 960.36 168.45 Z" />
<path fill="#feddc3" d=" M 1170.37 168.45 C 1186.03 166.85 1202.83 174.96 1209.46 189.60 C 1213.01 197.41 1213.26 206.79 1209.55 214.60 C 1204.81 224.65 1194.88 231.89 1184.03 233.95 C 1168.17 237.34 1150.14 230.36 1141.95 216.09 C 1137.29 208.05 1136.46 197.82 1140.25 189.28 C 1145.20 177.29 1157.63 169.41 1170.37 168.45 Z" />
<path fill="#feddc3" d=" M 1380.38 168.42 C 1389.65 167.73 1399.25 169.85 1407.00 175.09 C 1413.57 179.63 1418.95 186.23 1421.07 194.02 C 1423.78 203.08 1421.72 213.41 1415.80 220.77 C 1407.64 231.21 1393.73 236.26 1380.72 234.43 C 1371.42 233.27 1362.38 228.91 1356.13 221.86 C 1348.54 213.68 1345.63 201.20 1349.69 190.68 C 1354.26 177.95 1367.15 169.46 1380.38 168.42 Z" />
<path fill="#feddc3" d=" M 1590.36 168.43 C 1597.96 167.87 1605.80 169.13 1612.65 172.58 C 1621.61 176.97 1628.83 185.17 1631.33 194.90 C 1633.75 204.22 1631.32 214.67 1624.87 221.85 C 1613.50 235.52 1592.36 238.43 1576.98 230.16 C 1563.60 223.76 1554.57 207.74 1558.93 193.05 C 1562.69 179.13 1576.27 169.48 1590.36 168.43 Z" />
<path fill="#feddc3" d=" M 1800.32 168.48 C 1815.48 166.83 1831.69 174.45 1838.76 188.23 C 1844.15 198.44 1843.20 211.76 1835.79 220.74 C 1826.63 232.69 1809.97 237.29 1795.65 233.51 C 1788.75 231.53 1782.03 228.21 1777.11 222.88 C 1769.16 215.07 1765.79 202.81 1769.20 192.13 C 1773.23 178.67 1786.59 169.48 1800.32 168.48 Z" />
<path fill="#feddc3" d=" M 2010.29 168.50 C 2025.95 166.77 2042.80 174.95 2049.42 189.57 C 2054.06 199.34 2052.90 211.69 2046.21 220.24 C 2041.69 225.92 2035.66 230.54 2028.68 232.69 C 2012.26 238.43 1992.16 232.16 1982.68 217.38 C 1977.46 209.09 1976.26 198.30 1980.26 189.26 C 1985.18 177.28 1997.59 169.50 2010.29 168.50 Z" />
<path fill="#ffffff" d=" M 102.37 180.50 C 108.42 177.23 116.33 183.22 114.77 189.92 C 114.06 196.29 105.56 199.55 100.75 195.31 C 95.59 191.65 96.65 183.04 102.37 180.50 Z" />
<path fill="#ffffff" d=" M 312.33 180.47 C 318.12 177.54 325.62 182.53 324.86 189.02 C 324.87 195.57 316.55 199.53 311.35 195.70 C 305.56 192.44 306.47 183.13 312.33 180.47 Z" />
<path fill="#ffffff" d=" M 522.35 180.46 C 528.09 177.46 535.67 182.54 534.83 189.02 C 534.91 195.88 525.77 199.81 520.71 195.30 C 515.58 191.62 516.66 183.00 522.35 180.46 Z" />
<path fill="#ffffff" d=" M 732.35 180.48 C 738.50 177.20 746.30 183.25 744.79 190.00 C 743.95 196.98 734.10 199.72 729.68 194.33 C 725.55 190.22 727.25 182.91 732.35 180.48 Z" />
<path fill="#ffffff" d=" M 942.38 180.49 C 947.75 177.64 954.76 181.97 954.88 187.96 C 955.68 194.53 947.57 199.65 941.97 196.11 C 935.67 193.15 936.10 183.22 942.38 180.49 Z" />
<path fill="#ffffff" d=" M 1152.36 180.45 C 1156.15 178.74 1161.28 179.83 1163.44 183.58 C 1166.55 187.81 1164.57 194.67 1159.65 196.53 C 1155.13 198.62 1149.16 195.87 1147.82 191.08 C 1146.35 187.05 1148.64 182.34 1152.36 180.45 Z" />
<path fill="#ffffff" d=" M 1362.38 180.49 C 1368.50 177.21 1376.32 183.29 1374.77 190.01 C 1373.91 196.36 1365.47 199.54 1360.68 195.24 C 1355.55 191.59 1356.68 182.97 1362.38 180.49 Z" />
<path fill="#ffffff" d=" M 1572.38 180.54 C 1578.12 177.48 1585.61 182.53 1584.90 188.99 C 1584.84 195.54 1576.61 199.52 1571.34 195.75 C 1565.64 192.38 1566.32 183.13 1572.38 180.54 Z" />
<path fill="#ffffff" d=" M 1782.34 180.49 C 1788.05 177.38 1795.58 182.54 1794.85 188.98 C 1794.91 195.53 1786.50 199.65 1781.31 195.69 C 1775.52 192.40 1776.48 183.17 1782.34 180.49 Z" />
<path fill="#ffffff" d=" M 1992.36 180.50 C 1998.12 177.37 2005.63 182.57 2004.86 189.03 C 2004.87 195.62 1996.54 199.47 1991.32 195.71 C 1985.60 192.40 1986.40 183.12 1992.36 180.50 Z" />
<path fill="#ffffff" d=" M 141.32 183.43 C 145.91 182.25 151.14 185.19 152.08 189.93 C 153.64 195.33 148.63 201.24 143.08 200.68 C 138.62 200.49 134.53 196.51 134.70 191.95 C 134.58 188.02 137.71 184.56 141.32 183.43 Z" />
<path fill="#ffffff" d=" M 351.28 183.43 C 356.94 181.77 363.24 187.00 362.27 192.92 C 361.77 199.71 352.55 203.39 347.67 198.43 C 342.25 194.23 344.84 184.98 351.28 183.43 Z" />
<path fill="#ffffff" d=" M 561.29 183.41 C 566.26 182.13 571.85 185.77 572.29 190.97 C 572.83 195.06 569.99 198.88 566.31 200.37 C 561.34 201.91 555.26 198.39 554.74 193.06 C 554.13 188.78 557.27 184.61 561.29 183.41 Z" />
<path fill="#ffffff" d=" M 771.33 183.43 C 777.43 181.63 783.84 187.86 782.05 194.01 C 780.78 200.58 771.44 203.08 767.11 197.94 C 762.39 193.46 765.13 184.86 771.33 183.43 Z" />
<path fill="#ffffff" d=" M 981.30 183.46 C 985.88 182.20 991.20 185.19 992.04 189.96 C 993.71 195.59 988.04 201.80 982.30 200.60 C 978.14 200.06 974.56 196.28 974.74 192.00 C 974.60 188.06 977.61 184.50 981.30 183.46 Z" />
<path fill="#ffffff" d=" M 1191.34 183.45 C 1197.51 181.58 1203.81 187.92 1202.06 194.10 C 1200.66 200.64 1191.41 203.03 1187.09 197.87 C 1182.29 193.42 1185.20 184.89 1191.34 183.45 Z" />
<path fill="#ffffff" d=" M 1401.36 183.40 C 1405.61 182.37 1410.49 184.77 1411.82 189.05 C 1414.03 194.54 1409.01 201.26 1403.13 200.66 C 1398.62 200.54 1394.62 196.57 1394.71 192.03 C 1394.53 188.02 1397.66 184.51 1401.36 183.40 Z" />
<path fill="#ffffff" d=" M 1611.34 183.45 C 1615.94 182.18 1621.22 185.27 1622.06 190.04 C 1623.68 195.66 1618.00 201.77 1612.31 200.57 C 1608.12 200.09 1604.59 196.31 1604.73 192.05 C 1604.41 188.04 1607.63 184.47 1611.34 183.45 Z" />
<path fill="#ffffff" d=" M 1821.36 183.48 C 1828.42 181.15 1835.12 189.95 1831.24 196.19 C 1828.35 201.86 1819.53 202.16 1816.19 196.80 C 1812.65 192.07 1815.75 184.75 1821.36 183.48 Z" />
<path fill="#ffffff" d=" M 2031.39 183.45 C 2036.32 182.03 2041.90 185.80 2042.23 190.97 C 2043.08 196.08 2038.21 201.24 2033.08 200.67 C 2028.66 200.44 2024.50 196.58 2024.72 192.02 C 2024.47 188.00 2027.66 184.46 2031.39 183.45 Z" />
<path fill="#000000" d=" M 104.67 186.64 C 107.09 184.50 110.15 188.71 107.54 190.33 C 105.20 192.11 102.60 188.49 104.67 186.64 Z" />
<path fill="#000000" d=" M 314.61 186.67 C 315.92 185.50 318.46 186.33 318.49 188.17 C 318.88 190.18 316.35 191.45 314.79 190.35 C 313.48 189.42 313.64 187.78 314.61 186.67 Z" />
<path fill="#000000" d=" M 524.65 186.68 C 527.05 184.43 530.17 188.76 527.54 190.33 C 525.29 192.07 522.31 188.47 524.65 186.68 Z" />
<path fill="#000000" d=" M 733.40 189.03 C 734.17 188.11 734.32 186.13 735.91 186.16 C 738.24 185.65 739.49 189.11 737.56 190.32 C 736.06 191.54 734.51 189.90 733.40 189.03 Z" />
<path fill="#000000" d=" M 944.05 188.91 C 943.32 186.86 945.95 185.28 947.54 186.57 C 948.95 187.24 948.08 189.13 948.35 190.34 C 946.82 190.50 944.15 191.29 944.05 188.91 Z" />
<path fill="#000000" d=" M 1154.66 186.68 C 1157.02 184.46 1160.15 188.69 1157.56 190.31 C 1155.28 192.05 1152.31 188.52 1154.66 186.68 Z" />
<path fill="#000000" d=" M 1364.59 186.58 C 1366.01 185.65 1368.36 186.27 1368.52 188.16 C 1368.75 189.87 1366.95 191.22 1365.36 190.63 C 1363.66 190.08 1363.68 187.80 1364.59 186.58 Z" />
<path fill="#000000" d=" M 1574.63 186.60 C 1576.86 184.86 1579.73 187.85 1578.02 190.02 C 1575.81 192.28 1572.12 188.85 1574.63 186.60 Z" />
<path fill="#000000" d=" M 1784.61 186.66 C 1786.77 184.83 1789.74 187.79 1788.04 189.99 C 1785.91 192.32 1782.10 188.89 1784.61 186.66 Z" />
<path fill="#000000" d=" M 1994.68 186.67 C 1996.68 184.76 1999.88 187.91 1997.98 189.98 C 1995.93 192.40 1992.00 188.75 1994.68 186.67 Z" />
<path fill="#000000" d=" M 142.59 189.74 C 145.55 188.45 147.22 193.41 144.13 194.23 C 141.41 195.11 140.02 190.74 142.59 189.74 Z" />
<path fill="#000000" d=" M 352.54 189.79 C 355.56 188.35 357.21 193.42 354.09 194.28 C 351.36 195.03 350.09 190.68 352.54 189.79 Z" />
<path fill="#000000" d=" M 562.60 189.77 C 565.62 188.42 567.17 193.48 564.07 194.31 C 561.29 194.98 560.10 190.61 562.60 189.77 Z" />
<path fill="#000000" d=" M 772.54 189.76 C 774.03 189.13 776.12 190.28 775.76 192.05 C 776.01 193.77 773.25 195.21 772.08 193.71 C 770.64 192.78 771.06 190.43 772.54 189.76 Z" />
<path fill="#000000" d=" M 982.55 189.79 C 984.01 189.05 986.14 190.38 985.76 192.08 C 986.00 193.76 983.26 195.21 982.11 193.70 C 980.60 192.94 981.06 190.25 982.55 189.79 Z" />
<path fill="#000000" d=" M 1192.57 189.78 C 1195.49 188.38 1197.22 193.36 1194.17 194.21 C 1191.45 195.22 1189.99 190.68 1192.57 189.78 Z" />
<path fill="#000000" d=" M 1402.55 189.78 C 1404.94 188.50 1407.18 192.39 1404.90 193.72 C 1402.32 196.20 1399.46 190.92 1402.55 189.78 Z" />
<path fill="#000000" d=" M 1611.38 191.00 C 1611.96 189.38 1613.85 189.76 1615.22 189.66 C 1615.38 190.95 1616.39 192.82 1614.95 193.72 C 1613.32 195.56 1610.26 192.99 1611.38 191.00 Z" />
<path fill="#000000" d=" M 1822.63 189.75 C 1825.54 188.45 1827.19 193.42 1824.15 194.22 C 1821.40 195.20 1819.98 190.62 1822.63 189.75 Z" />
<path fill="#000000" d=" M 2031.35 191.05 C 2031.90 189.31 2033.84 189.85 2035.25 189.66 C 2035.37 190.96 2036.39 192.89 2034.91 193.75 C 2033.26 195.48 2030.33 193.04 2031.35 191.05 Z" />
<path fill="#010405" d=" M 118.74 194.78 C 121.28 192.87 125.18 193.98 126.22 197.01 C 124.57 197.89 122.84 198.58 120.99 198.88 C 118.96 207.06 117.99 216.17 121.96 223.95 C 123.61 224.58 125.89 225.98 125.10 228.08 C 124.85 230.09 122.07 230.58 121.10 228.89 C 119.81 227.47 121.02 225.69 121.24 224.14 C 117.53 216.65 117.93 207.90 120.08 200.02 C 121.28 197.94 116.83 196.72 118.74 194.78 Z" />
<path fill="#010405" d=" M 328.29 195.31 C 330.54 192.67 335.15 193.76 336.22 197.00 C 334.59 197.91 332.85 198.58 331.01 198.89 C 328.94 207.06 327.99 216.19 331.97 223.96 C 333.30 224.62 335.00 225.28 335.27 226.96 C 335.00 228.07 334.55 229.13 334.14 230.20 C 330.68 230.23 329.78 226.78 331.24 224.14 C 327.32 216.23 328.00 206.98 330.43 198.74 C 329.66 197.60 327.91 196.92 328.29 195.31 Z" />
<path fill="#010405" d=" M 538.33 195.27 C 540.60 192.68 545.13 193.79 546.22 196.98 C 544.58 197.91 542.81 198.60 540.94 198.88 C 539.01 207.08 537.97 216.17 541.96 223.96 C 543.58 224.58 545.93 225.98 545.07 228.08 C 544.96 230.07 542.07 230.55 541.14 228.93 C 539.93 227.54 540.78 225.68 541.28 224.21 C 537.21 216.20 538.14 206.83 540.40 198.44 C 539.52 197.49 537.74 196.88 538.33 195.27 Z" />
<path fill="#010405" d=" M 748.29 195.31 C 750.07 193.20 753.67 193.43 755.42 195.46 C 756.83 198.15 752.77 198.44 751.05 198.87 C 748.88 207.02 748.03 216.16 751.94 223.93 C 753.45 224.54 754.64 225.64 755.62 226.93 C 754.73 228.38 754.30 230.72 752.07 229.78 C 749.89 228.61 750.55 226.07 751.24 224.20 C 747.38 216.27 747.93 207.01 750.45 198.77 C 749.65 197.64 747.93 196.92 748.29 195.31 Z" />
<path fill="#010405" d=" M 958.36 195.37 C 960.00 192.97 964.71 193.42 965.75 196.21 C 965.66 198.59 962.62 198.30 961.01 198.86 C 958.94 207.04 957.99 216.17 961.96 223.94 C 962.94 224.62 964.43 224.88 964.94 226.11 C 965.73 227.47 964.44 228.87 964.15 230.20 C 960.70 230.22 959.74 226.78 961.24 224.11 C 957.51 216.63 957.94 207.88 960.09 200.01 C 961.16 198.11 957.83 197.28 958.36 195.37 Z" />
<path fill="#010405" d=" M 1168.34 195.28 C 1170.23 192.88 1175.56 193.46 1175.77 196.90 C 1174.72 198.54 1172.59 198.36 1170.96 198.87 C 1168.96 207.07 1168.04 216.13 1171.91 223.95 C 1173.25 224.60 1175.02 225.25 1175.25 226.98 C 1175.00 228.09 1174.54 229.13 1174.17 230.19 C 1172.83 229.64 1171.01 229.74 1170.59 228.03 C 1170.56 226.17 1171.51 224.29 1170.54 222.53 C 1167.31 214.86 1168.30 206.28 1170.41 198.46 C 1169.57 197.43 1167.69 196.92 1168.34 195.28 Z" />
<path fill="#010405" d=" M 1378.34 195.28 C 1380.21 192.89 1385.59 193.44 1385.76 196.90 C 1384.74 198.56 1382.58 198.35 1380.97 198.87 C 1378.99 207.06 1377.97 216.17 1381.96 223.95 C 1383.58 224.61 1385.95 225.99 1385.08 228.10 C 1384.83 230.08 1382.06 230.56 1381.10 228.91 C 1379.85 227.51 1380.90 225.69 1381.26 224.19 C 1377.51 216.68 1377.96 207.91 1380.06 199.99 C 1381.10 198.03 1377.79 197.23 1378.34 195.28 Z" />
<path fill="#010405" d=" M 1588.34 195.26 C 1590.61 192.67 1595.17 193.79 1596.21 197.03 C 1594.55 197.92 1592.78 198.60 1590.93 198.88 C 1589.03 207.09 1587.92 216.22 1592.00 223.98 C 1593.66 224.59 1595.96 226.08 1595.06 228.17 C 1594.72 230.17 1592.20 230.45 1591.10 228.96 C 1589.81 227.47 1590.98 225.73 1591.25 224.13 C 1587.20 216.14 1588.16 206.81 1590.39 198.45 C 1589.51 197.47 1587.72 196.87 1588.34 195.26 Z" />
<path fill="#010405" d=" M 1798.77 194.72 C 1801.34 192.91 1805.18 193.98 1806.21 197.03 C 1804.54 197.89 1802.79 198.60 1800.95 198.88 C 1799.01 207.08 1797.94 216.19 1801.97 223.95 C 1803.64 224.61 1805.94 226.03 1805.07 228.18 C 1804.74 230.15 1802.09 230.46 1801.07 228.92 C 1799.82 227.43 1800.99 225.73 1801.24 224.13 C 1797.48 216.63 1797.98 207.86 1800.07 199.95 C 1801.15 197.86 1796.82 196.68 1798.77 194.72 Z" />
<path fill="#010405" d=" M 2008.14 196.02 C 2009.11 192.85 2014.62 193.24 2015.76 196.18 C 2015.68 198.56 2012.68 198.29 2011.08 198.86 C 2008.85 207.01 2008.04 216.16 2011.95 223.94 C 2013.37 224.62 2015.42 225.53 2015.23 227.46 C 2015.28 229.29 2013.08 230.75 2011.61 229.43 C 2009.69 228.15 2010.84 225.90 2011.23 224.18 C 2007.39 216.27 2007.91 207.01 2010.47 198.79 C 2009.65 197.87 2008.68 197.10 2008.14 196.02 Z" />
<path fill="#f39db7" d=" M 94.30 201.30 C 98.59 198.88 103.84 203.59 102.29 208.09 C 101.44 212.10 96.05 213.61 93.11 210.87 C 89.83 208.46 90.58 202.88 94.30 201.30 Z" />
<path fill="#f39db7" d=" M 304.24 201.32 C 308.46 198.79 313.86 203.60 312.27 208.07 C 311.42 212.10 306.02 213.58 303.07 210.86 C 299.93 208.39 300.56 202.94 304.24 201.32 Z" />
<path fill="#f39db7" d=" M 514.29 201.25 C 518.05 199.27 522.83 202.57 522.51 206.75 C 522.48 211.02 517.18 213.82 513.68 211.30 C 509.87 209.16 510.28 202.95 514.29 201.25 Z" />
<path fill="#f39db7" d=" M 724.25 201.29 C 728.50 198.84 733.84 203.63 732.33 208.11 C 731.36 212.03 726.03 213.59 723.07 210.89 C 719.84 208.46 720.68 202.98 724.25 201.29 Z" />
<path fill="#f39db7" d=" M 934.26 201.30 C 937.29 199.64 941.62 201.47 942.29 204.95 C 943.94 209.40 938.46 214.10 934.29 211.64 C 929.94 209.85 930.07 203.20 934.26 201.30 Z" />
<path fill="#f39db7" d=" M 1144.22 201.30 C 1148.44 198.80 1153.83 203.54 1152.28 208.02 C 1151.48 212.29 1145.38 213.63 1142.66 210.44 C 1139.85 207.89 1140.92 202.90 1144.22 201.30 Z" />
<path fill="#f39db7" d=" M 1354.28 201.34 C 1357.31 199.70 1361.57 201.48 1362.28 204.93 C 1363.90 209.41 1358.45 214.03 1354.27 211.68 C 1350.01 209.89 1349.94 203.08 1354.28 201.34 Z" />
<path fill="#f39db7" d=" M 1564.23 201.39 C 1568.44 198.76 1573.90 203.64 1572.27 208.10 C 1571.39 212.03 1566.03 213.66 1563.15 210.86 C 1559.98 208.50 1560.46 202.89 1564.23 201.39 Z" />
<path fill="#f39db7" d=" M 1774.26 201.32 C 1778.46 198.86 1783.84 203.63 1782.31 208.09 C 1781.39 212.37 1775.32 213.60 1772.59 210.37 C 1769.87 207.76 1770.81 202.82 1774.26 201.32 Z" />
<path fill="#f39db7" d=" M 1984.24 201.33 C 1988.40 198.76 1993.91 203.65 1992.29 208.09 C 1991.39 212.00 1986.02 213.62 1983.11 210.91 C 1979.86 208.54 1980.54 202.89 1984.24 201.33 Z" />
<path fill="#f39db7" d=" M 145.34 204.47 C 148.93 203.02 153.41 206.05 153.05 210.00 C 153.19 214.30 147.78 217.39 144.26 214.76 C 140.23 212.50 141.02 205.92 145.34 204.47 Z" />
<path fill="#f39db7" d=" M 355.37 204.45 C 358.91 203.22 363.48 205.98 363.03 209.96 C 363.17 214.20 357.90 217.33 354.36 214.80 C 350.22 212.57 350.99 205.90 355.37 204.45 Z" />
<path fill="#f39db7" d=" M 565.39 204.45 C 569.27 203.00 574.20 206.77 572.89 211.00 C 572.30 214.82 567.55 217.07 564.33 214.78 C 560.26 212.59 560.96 205.78 565.39 204.45 Z" />
<path fill="#f39db7" d=" M 775.36 204.43 C 778.86 203.20 783.51 206.04 783.02 210.01 C 783.25 214.34 777.75 217.34 774.26 214.72 C 770.21 212.48 771.07 205.88 775.36 204.43 Z" />
<path fill="#f39db7" d=" M 985.43 204.43 C 988.95 203.22 993.47 205.95 993.00 209.94 C 993.20 214.26 987.77 217.39 984.24 214.71 C 980.17 212.47 981.13 205.84 985.43 204.43 Z" />
<path fill="#f39db7" d=" M 1195.38 204.47 C 1199.31 202.99 1204.17 206.72 1202.91 210.99 C 1202.35 215.20 1196.78 217.21 1193.64 214.39 C 1190.28 211.72 1191.39 205.89 1195.38 204.47 Z" />
<path fill="#f39db7" d=" M 1405.38 204.49 C 1408.89 203.10 1413.62 206.06 1413.00 210.06 C 1413.21 214.69 1407.04 217.51 1403.69 214.32 C 1400.26 211.71 1401.36 205.86 1405.38 204.49 Z" />
<path fill="#f39db7" d=" M 1615.32 204.45 C 1619.27 203.00 1624.19 206.61 1622.90 210.94 C 1622.42 214.86 1617.51 217.06 1614.31 214.76 C 1610.20 212.57 1610.97 205.88 1615.32 204.45 Z" />
<path fill="#f39db7" d=" M 1825.35 204.46 C 1828.85 203.14 1833.55 206.02 1832.99 210.01 C 1833.11 214.23 1827.79 217.43 1824.31 214.77 C 1820.28 212.50 1821.05 205.94 1825.35 204.46 Z" />
<path fill="#f39db7" d=" M 2035.40 204.42 C 2039.34 202.95 2044.16 206.75 2042.95 211.00 C 2042.39 215.18 2036.73 217.20 2033.66 214.31 C 2030.16 211.71 2031.41 205.80 2035.40 204.42 Z" />
<path fill="#d694a7" d=" M 48.55 233.61 C 46.56 229.60 50.65 225.09 54.79 225.60 C 55.16 225.68 55.89 225.83 56.25 225.91 C 59.29 227.17 60.66 230.34 61.72 233.22 C 64.13 239.81 68.47 245.83 74.44 249.63 C 77.83 251.65 81.93 253.16 85.92 252.22 C 92.26 250.72 96.74 245.17 103.17 243.89 C 100.84 249.45 101.41 255.86 98.51 261.18 C 90.81 266.25 79.83 266.13 72.55 260.32 C 68.90 257.35 64.89 254.80 61.54 251.48 C 58.98 248.95 57.78 245.50 56.39 242.28 C 55.71 241.04 54.99 239.82 54.20 238.64 C 52.41 236.86 50.04 235.67 48.55 233.61 Z" />
<path fill="#d694a7" d=" M 258.56 233.57 C 256.58 229.59 260.70 225.13 264.79 225.62 C 265.16 225.69 265.89 225.83 266.25 225.90 C 271.04 228.12 271.46 233.96 273.88 238.05 C 277.83 245.17 284.51 251.82 293.01 252.54 C 300.77 252.50 305.86 245.35 313.18 243.90 C 310.79 249.47 311.38 255.88 308.54 261.27 C 301.00 266.00 290.52 266.18 283.25 260.84 C 276.87 255.82 269.02 251.42 266.66 243.05 C 266.29 243.20 265.57 243.48 265.21 243.63 C 265.25 241.92 265.14 240.17 264.31 238.65 C 262.41 236.95 260.05 235.69 258.56 233.57 Z" />
<path fill="#d694a7" d=" M 468.10 230.93 C 468.24 227.53 471.86 225.54 474.92 225.34 C 475.25 225.52 475.91 225.87 476.24 226.04 C 479.35 227.21 480.69 230.42 481.76 233.30 C 484.73 241.41 490.76 248.97 499.16 251.80 C 502.63 253.14 506.48 252.44 509.71 250.75 C 514.30 248.67 518.04 244.80 523.15 243.91 C 520.81 249.46 521.44 255.86 518.53 261.18 C 513.37 264.66 506.76 265.50 500.74 264.28 C 494.17 262.77 489.44 257.63 484.15 253.84 C 480.47 251.22 478.21 247.22 476.67 243.07 C 476.31 243.20 475.59 243.46 475.23 243.58 C 475.25 241.89 475.22 240.13 474.34 238.62 C 471.98 236.37 467.68 234.87 468.10 230.93 Z" />
<path fill="#d694a7" d=" M 678.15 232.11 C 677.42 228.39 681.29 225.29 684.80 225.58 C 685.16 225.67 685.89 225.85 686.25 225.94 C 689.59 227.29 690.83 230.92 692.05 234.01 C 694.51 240.51 699.00 246.34 704.99 249.95 C 708.24 251.87 712.18 253.18 715.96 252.17 C 722.29 250.69 726.77 245.23 733.13 243.86 C 730.84 249.48 731.40 255.92 728.48 261.29 C 723.04 264.72 716.21 265.65 710.00 264.08 C 703.97 262.50 699.64 257.72 694.67 254.26 C 690.47 251.38 687.96 246.85 686.31 242.15 C 685.64 240.95 684.97 239.76 684.21 238.63 C 682.22 236.47 678.58 235.36 678.15 232.11 Z" />
<path fill="#d694a7" d=" M 888.52 233.55 C 886.61 229.56 890.66 225.07 894.79 225.64 C 895.16 225.71 895.89 225.83 896.26 225.90 C 899.28 227.20 900.70 230.36 901.75 233.27 C 904.09 239.87 908.50 245.79 914.40 249.61 C 917.80 251.75 921.98 253.19 926.01 252.18 C 932.30 250.62 936.82 245.25 943.20 243.87 C 940.81 249.42 941.44 255.88 938.50 261.18 C 933.36 264.70 926.77 265.48 920.76 264.29 C 914.38 262.91 909.86 257.89 904.71 254.29 C 900.81 251.58 898.27 247.47 896.67 243.08 C 896.29 243.22 895.53 243.50 895.15 243.64 C 895.22 242.45 895.27 241.26 895.30 240.07 C 895.02 239.75 894.46 239.10 894.18 238.78 C 892.43 236.89 890.00 235.67 888.52 233.55 Z" />
<path fill="#d694a7" d=" M 1098.34 233.05 C 1096.86 229.08 1100.91 225.20 1104.80 225.60 C 1105.16 225.68 1105.90 225.83 1106.27 225.90 C 1111.03 228.15 1111.45 233.96 1113.88 238.04 C 1117.82 245.14 1124.50 251.88 1133.01 252.51 C 1140.76 252.49 1145.89 245.40 1153.19 243.88 C 1150.82 249.43 1151.43 255.85 1148.54 261.17 C 1140.87 266.25 1129.93 266.12 1122.64 260.38 C 1118.93 257.42 1114.91 254.82 1111.54 251.48 C 1109.08 249.08 1107.90 245.79 1106.56 242.71 C 1105.85 241.32 1105.07 239.96 1104.21 238.67 C 1102.35 236.72 1099.50 235.58 1098.34 233.05 Z" />
<path fill="#d694a7" d=" M 1308.16 231.98 C 1307.49 228.30 1311.31 225.24 1314.79 225.63 C 1315.16 225.69 1315.89 225.83 1316.26 225.90 C 1321.02 228.13 1321.46 233.95 1323.86 238.04 C 1327.68 244.94 1334.02 251.33 1342.15 252.46 C 1350.32 253.14 1355.60 245.42 1363.17 243.88 C 1360.85 249.47 1361.34 255.86 1358.49 261.24 C 1350.98 266.03 1340.45 266.21 1333.21 260.80 C 1326.86 255.78 1319.03 251.42 1316.65 243.08 C 1316.27 243.22 1315.51 243.49 1315.13 243.63 C 1315.18 242.44 1315.23 241.25 1315.26 240.07 C 1315.00 239.74 1314.46 239.09 1314.20 238.76 C 1312.26 236.46 1308.59 235.29 1308.16 231.98 Z" />
<path fill="#d694a7" d=" M 1518.17 231.99 C 1517.46 228.31 1521.36 225.29 1524.80 225.56 C 1525.16 225.66 1525.89 225.85 1526.25 225.94 C 1531.06 228.11 1531.45 234.00 1533.90 238.07 C 1537.83 245.16 1544.48 251.87 1552.98 252.51 C 1560.79 252.64 1565.80 245.31 1573.15 243.90 C 1570.94 249.50 1571.18 255.76 1568.65 261.24 C 1561.07 265.99 1550.54 266.21 1543.23 260.82 C 1536.85 255.83 1529.06 251.42 1526.67 243.10 C 1526.31 243.23 1525.59 243.49 1525.22 243.62 C 1525.25 241.91 1525.19 240.14 1524.32 238.63 C 1522.13 236.60 1518.65 235.28 1518.17 231.99 Z" />
<path fill="#d694a7" d=" M 1728.33 233.06 C 1726.86 229.06 1730.90 225.23 1734.80 225.56 C 1735.17 225.65 1735.90 225.84 1736.27 225.94 C 1740.84 227.99 1741.37 233.49 1743.55 237.43 C 1747.31 244.53 1753.70 251.23 1761.99 252.44 C 1770.22 253.25 1775.55 245.47 1783.15 243.89 C 1780.90 249.50 1781.22 255.82 1778.59 261.29 C 1770.99 265.94 1760.48 266.24 1753.21 260.80 C 1746.84 255.81 1739.05 251.43 1736.68 243.10 C 1736.30 243.21 1735.53 243.43 1735.14 243.54 C 1735.18 242.40 1735.23 241.25 1735.26 240.11 C 1734.99 239.78 1734.45 239.11 1734.18 238.78 C 1732.40 236.70 1729.55 235.55 1728.33 233.06 Z" />
<path fill="#d694a7" d=" M 1938.10 230.97 C 1938.26 227.73 1941.68 225.35 1944.80 225.57 C 1945.16 225.67 1945.89 225.86 1946.25 225.95 C 1950.85 227.95 1951.34 233.51 1953.54 237.42 C 1957.33 244.58 1963.79 251.30 1972.15 252.47 C 1980.32 253.17 1985.58 245.43 1993.15 243.89 C 1990.97 249.51 1991.20 255.80 1988.59 261.26 C 1980.98 265.99 1970.44 266.22 1963.14 260.76 C 1956.77 255.78 1949.02 251.36 1946.65 243.04 C 1946.27 243.20 1945.51 243.52 1945.13 243.68 C 1945.20 242.48 1945.24 241.28 1945.27 240.08 C 1945.00 239.75 1944.46 239.08 1944.19 238.74 C 1942.11 236.20 1937.60 234.91 1938.10 230.97 Z" />
<path fill="#706c6e" d=" M 54.20 238.64 C 54.99 239.82 55.71 241.04 56.39 242.28 C 53.67 244.16 55.83 251.02 51.26 250.91 C 52.72 246.95 53.64 242.82 54.20 238.64 Z" />
<path fill="#595859" d=" M 264.31 238.65 C 265.14 240.17 265.25 241.92 265.21 243.63 C 264.75 246.09 264.69 250.89 261.31 250.90 C 262.81 246.95 263.63 242.80 264.31 238.65 Z" />
<path fill="#5e5e5f" d=" M 474.34 238.62 C 475.22 240.13 475.25 241.89 475.23 243.58 C 475.19 246.42 473.95 249.04 472.69 251.51 C 472.41 251.17 471.85 250.49 471.57 250.15 C 472.82 246.39 473.67 242.52 474.34 238.62 Z" />
<path fill="#706c6e" d=" M 684.21 238.63 C 684.97 239.76 685.64 240.95 686.31 242.15 C 684.36 244.90 684.80 248.77 682.69 251.57 C 682.41 251.24 681.85 250.58 681.57 250.25 C 682.66 246.44 683.73 242.59 684.21 238.63 Z" />
<path fill="#5e5e5f" d=" M 894.18 238.78 C 894.46 239.10 895.02 239.75 895.30 240.07 C 895.27 241.26 895.22 242.45 895.15 243.64 C 895.18 246.35 894.02 248.84 892.90 251.24 C 892.51 250.98 891.75 250.47 891.37 250.21 C 893.01 246.61 893.66 242.68 894.18 238.78 Z" />
<path fill="#706c6e" d=" M 1104.21 238.67 C 1105.07 239.96 1105.85 241.32 1106.56 242.71 L 1105.46 242.15 C 1105.11 244.68 1104.90 247.33 1103.68 249.63 C 1103.25 250.71 1102.44 251.14 1101.25 250.91 C 1102.72 246.96 1103.62 242.84 1104.21 238.67 Z" />
<path fill="#555455" d=" M 1314.20 238.76 C 1314.46 239.09 1315.00 239.74 1315.26 240.07 C 1315.23 241.25 1315.18 242.44 1315.13 243.63 C 1314.95 246.51 1314.37 249.96 1311.58 251.48 C 1312.37 247.22 1313.77 243.09 1314.20 238.76 Z" />
<path fill="#5e5e5f" d=" M 1524.32 238.63 C 1525.19 240.14 1525.25 241.91 1525.22 243.62 C 1525.17 246.46 1523.94 249.06 1522.67 251.53 C 1522.41 251.20 1521.88 250.54 1521.62 250.21 C 1522.76 246.41 1523.69 242.55 1524.32 238.63 Z" />
<path fill="#555455" d=" M 1734.18 238.78 C 1734.45 239.11 1734.99 239.78 1735.26 240.11 C 1735.23 241.25 1735.18 242.40 1735.14 243.54 C 1735.03 246.52 1734.27 249.78 1731.68 251.57 C 1732.21 247.25 1733.85 243.14 1734.18 238.78 Z" />
<path fill="#5e5e5f" d=" M 1944.19 238.74 C 1944.46 239.08 1945.00 239.75 1945.27 240.08 C 1945.24 241.28 1945.20 242.48 1945.13 243.68 C 1944.77 246.11 1944.66 251.09 1941.29 250.82 C 1942.77 246.94 1943.69 242.87 1944.19 238.74 Z" />
<path fill="#d694a7" d=" M 153.34 241.35 C 156.59 241.10 158.93 243.98 160.61 246.39 C 166.06 254.52 165.88 264.67 167.22 274.01 C 168.03 282.41 168.82 292.06 163.06 299.02 C 161.63 301.11 158.25 303.22 156.10 300.92 C 153.57 297.63 154.31 293.15 154.51 289.30 C 155.92 277.35 157.64 265.05 154.62 253.20 C 153.92 250.11 151.88 247.61 150.53 244.81 C 150.05 243.08 151.99 241.89 153.34 241.35 Z" />
<path fill="#d694a7" d=" M 363.36 241.39 C 365.80 241.00 367.81 242.97 369.31 244.63 C 374.00 250.34 375.40 257.86 376.15 265.02 C 376.92 273.00 378.58 281.04 377.38 289.07 C 376.82 293.21 374.82 297.07 372.06 300.17 C 370.50 301.96 367.01 302.86 365.67 300.35 C 363.74 296.78 364.32 292.55 364.58 288.67 C 365.88 276.95 367.62 264.88 364.65 253.27 C 363.94 250.13 361.86 247.59 360.47 244.75 C 360.20 243.11 361.91 241.74 363.36 241.39 Z" />
<path fill="#d694a7" d=" M 573.34 241.39 C 575.53 240.98 577.45 242.62 578.88 244.09 C 583.20 249.03 585.03 255.60 585.77 262.00 C 586.69 270.26 588.25 278.54 587.63 286.88 C 587.27 291.96 585.22 296.99 581.57 300.59 C 580.14 301.92 577.49 302.60 576.13 300.84 C 573.63 297.56 574.26 293.16 574.51 289.32 C 575.79 277.67 577.52 265.71 574.85 254.12 C 574.22 250.88 572.36 248.13 570.76 245.31 C 569.52 243.55 571.78 241.79 573.34 241.39 Z" />
<path fill="#d694a7" d=" M 783.34 241.36 C 785.54 240.98 787.45 242.61 788.89 244.09 C 793.40 249.31 795.17 256.26 795.95 262.97 C 796.84 270.94 798.22 278.93 797.61 286.98 C 797.27 292.05 795.16 297.03 791.57 300.67 C 790.00 302.12 786.81 302.59 785.68 300.37 C 783.82 297.05 784.31 293.07 784.49 289.43 C 785.77 277.47 787.75 265.14 784.63 253.29 C 783.80 249.98 781.54 247.33 780.33 244.19 C 780.80 242.86 781.94 241.69 783.34 241.36 Z" />
<path fill="#d694a7" d=" M 993.36 241.41 C 995.54 240.97 997.44 242.73 998.89 244.15 C 1003.47 249.34 1005.13 256.33 1005.91 263.04 C 1006.84 271.21 1008.38 279.43 1007.57 287.68 C 1007.11 292.48 1005.10 297.21 1001.61 300.58 C 1000.02 302.07 996.95 302.61 995.69 300.44 C 993.68 296.90 994.28 292.63 994.55 288.75 C 995.89 277.01 997.60 264.92 994.65 253.28 C 993.89 250.15 991.84 247.58 990.50 244.71 C 990.20 243.07 991.91 241.76 993.36 241.41 Z" />
<path fill="#d694a7" d=" M 1203.28 241.40 C 1206.28 240.97 1208.59 243.65 1210.25 245.81 C 1216.11 254.01 1215.87 264.50 1217.22 274.07 C 1218.04 282.25 1218.77 291.53 1213.45 298.46 C 1212.01 300.47 1209.22 303.20 1206.67 301.31 C 1204.05 299.01 1204.26 295.11 1204.33 291.94 C 1204.80 284.28 1206.29 276.69 1206.25 268.99 C 1206.29 261.11 1205.87 252.62 1201.10 245.98 C 1199.43 244.22 1201.34 241.79 1203.28 241.40 Z" />
<path fill="#d694a7" d=" M 1413.40 241.37 C 1416.59 241.12 1418.90 243.98 1420.57 246.34 C 1426.14 254.45 1425.84 264.66 1427.21 274.01 C 1428.08 282.42 1428.78 292.02 1423.02 298.98 C 1421.66 301.24 1418.31 303.12 1416.09 300.91 C 1413.69 297.61 1414.32 293.24 1414.51 289.43 C 1415.79 277.46 1417.68 265.14 1414.66 253.28 C 1413.94 250.14 1411.89 247.59 1410.47 244.77 C 1410.26 243.17 1411.85 241.57 1413.40 241.37 Z" />
<path fill="#d694a7" d=" M 1623.38 241.43 C 1626.10 240.88 1628.23 243.37 1629.82 245.23 C 1635.80 253.19 1635.79 263.56 1637.10 272.99 C 1637.96 281.29 1638.99 290.61 1633.88 297.83 C 1632.45 300.16 1629.49 303.31 1626.61 301.32 C 1623.64 298.44 1624.27 293.79 1624.42 290.04 C 1625.56 279.71 1627.05 269.28 1625.78 258.88 C 1625.35 254.25 1623.70 249.83 1621.11 245.98 C 1619.44 244.18 1621.42 241.82 1623.38 241.43 Z" />
<path fill="#d694a7" d=" M 1833.39 241.46 C 1836.90 240.92 1839.30 244.48 1841.00 247.05 C 1846.20 255.09 1845.82 264.98 1847.22 274.09 C 1848.09 282.28 1848.77 291.52 1843.47 298.46 C 1842.04 300.81 1838.55 303.44 1836.11 300.88 C 1833.81 297.85 1834.29 293.72 1834.42 290.16 C 1835.70 278.21 1837.64 265.94 1834.86 254.05 C 1834.15 250.41 1831.71 247.50 1830.32 244.15 C 1830.78 242.79 1831.92 241.69 1833.39 241.46 Z" />
<path fill="#d694a7" d=" M 2043.36 241.37 C 2046.34 241.01 2048.62 243.68 2050.26 245.85 C 2056.05 254.06 2055.92 264.49 2057.19 274.06 C 2057.87 281.80 2058.84 290.44 2054.27 297.26 C 2052.74 299.65 2050.42 302.54 2047.21 301.77 C 2043.72 299.41 2044.24 294.56 2044.36 290.91 C 2045.50 280.04 2047.16 269.05 2045.68 258.13 C 2045.13 253.74 2043.57 249.55 2041.09 245.90 C 2039.42 244.15 2041.46 241.75 2043.36 241.37 Z" />
<path fill="#f0648b" d=" M 175.13 286.55 C 177.62 286.71 180.41 286.80 182.18 288.83 C 186.38 292.66 184.76 300.65 179.22 302.23 C 178.30 302.30 176.45 302.45 175.53 302.52 C 175.34 297.20 175.35 291.87 175.13 286.55 Z" />
<path fill="#f0648b" d=" M 385.17 286.59 C 387.68 286.66 390.46 286.84 392.24 288.89 C 396.39 292.71 394.74 300.78 389.15 302.21 C 388.25 302.30 386.46 302.48 385.56 302.58 C 385.35 297.25 385.37 291.91 385.17 286.59 Z" />
<path fill="#f0648b" d=" M 595.12 286.55 C 597.87 286.63 600.93 286.95 602.68 289.39 C 606.43 293.55 604.28 300.77 599.01 302.47 C 597.83 302.11 595.38 302.86 595.50 300.92 C 595.12 296.14 595.50 291.33 595.12 286.55 Z" />
<path fill="#f0648b" d=" M 805.15 286.58 C 807.91 286.60 810.97 286.99 812.72 289.42 C 816.40 293.55 814.30 300.85 808.98 302.39 C 807.77 302.38 806.62 302.15 805.53 301.73 C 805.10 296.69 805.53 291.62 805.15 286.58 Z" />
<path fill="#f0648b" d=" M 1015.14 286.58 C 1017.89 286.59 1020.94 287.00 1022.71 289.40 C 1026.37 293.53 1024.33 300.70 1019.11 302.41 C 1018.31 302.34 1016.70 302.21 1015.90 302.14 C 1014.60 297.13 1015.70 291.73 1015.14 286.58 Z" />
<path fill="#f0648b" d=" M 1225.15 286.58 C 1227.61 286.67 1230.37 286.81 1232.15 288.81 C 1236.40 292.62 1234.77 300.77 1229.13 302.22 C 1228.24 302.30 1226.46 302.44 1225.57 302.52 C 1225.36 297.20 1225.33 291.89 1225.15 286.58 Z" />
<path fill="#f0648b" d=" M 1435.14 286.55 C 1437.61 286.71 1440.41 286.79 1442.19 288.83 C 1446.38 292.62 1444.76 300.88 1439.09 302.16 C 1438.21 302.27 1436.45 302.51 1435.57 302.63 C 1435.33 297.27 1435.34 291.91 1435.14 286.55 Z" />
<path fill="#f0648b" d=" M 1645.13 286.57 C 1648.11 286.55 1651.45 287.19 1653.14 289.96 C 1656.27 294.23 1654.01 300.84 1649.00 302.44 C 1647.73 302.12 1645.36 302.94 1645.51 300.93 C 1645.09 296.15 1645.49 291.35 1645.13 286.57 Z" />
<path fill="#f0648b" d=" M 1855.14 286.57 C 1857.87 286.62 1860.94 286.97 1862.70 289.38 C 1866.35 293.48 1864.38 300.84 1859.04 302.33 C 1857.77 302.25 1856.53 302.17 1855.31 302.07 C 1855.42 296.90 1855.44 291.73 1855.14 286.57 Z" />
<path fill="#f0648b" d=" M 2065.13 286.61 C 2067.86 286.57 2070.90 286.98 2072.67 289.35 C 2076.31 293.37 2074.46 300.79 2069.13 302.24 C 2068.23 302.32 2066.45 302.48 2065.55 302.56 C 2065.31 297.25 2065.29 291.92 2065.13 286.61 Z" />
<path fill="#ffffff" d=" M 108.07 313.98 C 114.99 312.99 121.99 313.33 128.96 313.26 C 137.90 313.27 146.91 313.60 155.69 315.39 C 158.72 316.12 162.44 317.21 163.42 320.58 C 165.94 328.50 165.21 337.01 164.37 345.14 C 147.06 343.76 129.68 344.19 112.34 344.65 C 111.35 334.36 108.12 324.37 108.07 313.98 Z" />
<path fill="#ffffff" d=" M 318.09 314.05 C 325.00 312.91 332.01 313.33 338.98 313.27 C 347.90 313.26 356.90 313.60 365.66 315.42 C 368.69 316.13 372.40 317.19 373.39 320.58 C 375.96 328.47 375.17 336.99 374.37 345.12 C 357.06 343.78 339.68 344.18 322.35 344.65 C 321.38 334.39 318.14 324.41 318.09 314.05 Z" />
<path fill="#ffffff" d=" M 528.10 314.00 C 535.36 312.91 542.71 313.35 550.03 313.28 C 558.60 313.25 567.23 313.66 575.64 315.39 C 578.68 316.10 582.41 317.15 583.39 320.55 C 585.92 328.44 585.15 336.95 584.35 345.07 C 567.02 343.83 549.65 344.16 532.30 344.65 C 531.36 334.36 528.11 324.38 528.10 314.00 Z" />
<path fill="#ffffff" d=" M 738.07 314.07 C 741.36 313.63 744.67 313.23 748.01 313.27 C 760.57 313.36 773.30 312.76 785.66 315.43 C 788.68 316.19 792.42 317.18 793.39 320.59 C 795.91 328.46 795.24 336.96 794.35 345.06 C 777.04 343.87 759.67 344.13 742.34 344.66 C 741.36 334.40 738.15 324.43 738.07 314.07 Z" />
<path fill="#ffffff" d=" M 948.13 314.00 C 955.03 312.93 962.02 313.33 968.97 313.28 C 977.89 313.25 986.89 313.57 995.65 315.40 C 998.65 316.15 1002.39 317.20 1003.40 320.56 C 1005.85 328.48 1005.24 336.99 1004.36 345.12 C 987.05 343.77 969.67 344.20 952.33 344.64 C 951.36 334.36 948.09 324.38 948.13 314.00 Z" />
<path fill="#ffffff" d=" M 1158.14 313.98 C 1165.37 312.92 1172.70 313.33 1179.99 313.27 C 1188.32 313.26 1196.71 313.68 1204.92 315.24 C 1208.16 315.99 1212.31 316.90 1213.38 320.57 C 1215.94 328.46 1215.18 336.97 1214.33 345.09 C 1197.02 343.81 1179.66 344.18 1162.34 344.65 C 1161.34 334.36 1158.10 324.36 1158.14 313.98 Z" />
<path fill="#ffffff" d=" M 1368.10 314.01 C 1382.51 312.69 1397.14 312.88 1411.52 314.63 C 1415.95 315.50 1422.33 315.97 1423.63 321.29 C 1425.80 329.00 1425.20 337.16 1424.36 345.03 C 1407.04 343.88 1389.68 344.15 1372.35 344.63 C 1371.41 334.35 1368.03 324.40 1368.10 314.01 Z" />
<path fill="#ffffff" d=" M 1578.12 313.99 C 1592.54 312.70 1607.20 312.86 1621.59 314.65 C 1625.80 315.52 1631.67 315.83 1633.41 320.55 C 1635.93 328.44 1635.22 336.92 1634.34 345.03 C 1617.02 343.89 1599.66 344.14 1582.33 344.64 C 1581.41 334.35 1578.03 324.38 1578.12 313.99 Z" />
<path fill="#ffffff" d=" M 1788.10 314.01 C 1802.54 312.68 1817.20 312.88 1831.61 314.65 C 1835.82 315.50 1841.70 315.85 1843.39 320.61 C 1845.89 328.50 1845.22 336.99 1844.36 345.09 C 1827.05 343.82 1809.69 344.15 1792.36 344.66 C 1791.38 334.38 1788.08 324.40 1788.10 314.01 Z" />
<path fill="#ffffff" d=" M 1998.14 313.94 C 2012.80 312.75 2027.68 312.82 2042.29 314.76 C 2046.31 315.61 2051.93 316.00 2053.39 320.65 C 2055.92 328.54 2055.21 337.03 2054.38 345.14 C 2037.06 343.76 2019.67 344.19 2002.33 344.66 C 2001.36 334.36 1998.02 324.35 1998.14 313.94 Z" />
<path fill="#a67a8a" d=" M 112.34 344.65 C 129.68 344.19 147.06 343.76 164.37 345.14 C 164.46 350.84 158.79 353.28 156.44 357.78 C 164.40 358.37 172.31 357.17 180.17 356.09 C 181.06 353.12 181.87 350.10 181.81 346.98 C 187.68 348.08 194.07 348.55 199.11 352.04 C 201.17 354.35 197.69 356.03 195.84 356.74 C 184.31 360.65 172.00 361.19 159.96 362.19 C 147.34 361.78 134.70 362.12 122.07 361.94 C 117.97 361.73 113.95 363.97 109.95 362.09 C 99.73 360.90 89.30 360.42 79.37 357.47 C 77.23 356.70 74.81 356.00 73.44 354.05 C 73.00 352.38 74.76 351.49 75.94 350.84 C 80.62 348.64 85.81 347.89 90.86 347.04 C 88.79 348.71 87.92 351.17 87.51 353.72 C 94.61 354.97 102.05 356.07 109.14 354.19 C 113.54 353.33 112.41 347.92 112.34 344.65 Z" />
<path fill="#a67a8a" d=" M 322.35 344.65 C 339.68 344.18 357.06 343.78 374.37 345.12 C 374.51 350.81 368.76 353.19 366.55 357.77 C 374.31 358.09 382.19 357.65 389.75 355.87 C 391.66 353.34 391.58 349.99 391.80 346.99 C 397.03 347.83 402.38 348.59 407.24 350.82 C 408.54 351.42 410.48 352.78 409.51 354.44 C 408.56 355.61 407.09 356.17 405.76 356.75 C 393.98 361.04 381.24 360.62 369.06 362.84 C 362.80 361.45 356.39 362.13 350.04 361.99 C 341.71 362.29 333.30 361.27 325.05 362.73 C 312.20 360.64 298.75 361.13 286.44 356.37 C 284.86 355.74 282.09 353.88 284.08 352.13 C 288.90 348.58 295.20 348.16 300.91 347.04 C 298.98 348.64 298.13 351.03 297.05 353.21 C 304.13 355.42 311.86 355.86 319.11 354.21 C 323.56 353.42 322.38 347.92 322.35 344.65 Z" />
<path fill="#a67a8a" d=" M 532.30 344.65 C 549.65 344.16 567.02 343.83 584.35 345.07 C 584.54 350.82 578.70 353.19 576.53 357.83 C 583.20 358.19 589.88 357.57 596.49 356.63 C 597.76 356.36 599.16 356.22 600.26 355.43 C 601.60 352.83 601.68 349.83 601.82 346.98 C 607.64 348.09 614.04 348.51 619.02 352.02 C 621.12 353.93 618.16 355.96 616.40 356.50 C 604.43 361.00 591.42 360.74 578.95 362.68 C 576.25 362.65 573.63 361.79 570.93 361.95 C 560.62 362.11 550.31 361.86 540.01 362.05 C 533.96 363.08 527.95 361.46 521.89 361.30 C 513.82 360.36 505.64 359.56 497.91 356.97 C 496.06 356.20 493.39 355.38 493.37 352.95 C 497.89 348.44 504.94 348.31 510.88 347.04 C 509.00 348.67 508.13 351.02 507.05 353.18 C 514.13 355.39 521.87 355.89 529.11 354.21 C 533.61 353.39 532.35 347.93 532.30 344.65 Z" />
<path fill="#a67a8a" d=" M 742.34 344.66 C 759.67 344.13 777.04 343.87 794.35 345.06 C 794.31 350.57 789.32 353.54 786.19 357.35 C 794.17 358.85 802.23 357.04 810.16 356.07 C 811.03 353.11 811.82 350.09 811.82 346.98 C 817.65 348.08 824.04 348.52 829.04 352.01 C 831.23 354.21 827.65 356.15 825.80 356.76 C 813.31 361.02 799.95 361.20 786.96 362.49 C 776.04 361.41 765.04 362.28 754.09 361.95 C 749.31 361.47 744.60 363.67 739.92 362.05 C 728.70 360.69 717.08 360.48 706.40 356.36 C 704.88 355.70 702.14 353.98 704.00 352.18 C 708.83 348.60 715.15 348.16 720.88 347.05 C 719.06 348.71 718.16 351.03 717.02 353.15 C 722.16 354.91 727.62 355.38 733.03 355.11 C 736.01 354.86 739.41 354.79 741.80 352.71 C 742.79 350.15 742.45 347.33 742.34 344.66 Z" />
<path fill="#a67a8a" d=" M 952.33 344.64 C 969.67 344.20 987.05 343.77 1004.36 345.12 C 1004.48 350.82 998.79 353.21 996.54 357.76 C 1004.46 358.35 1012.34 357.21 1020.15 356.06 C 1021.02 353.10 1021.83 350.09 1021.83 346.99 C 1026.83 347.78 1031.93 348.54 1036.64 350.53 C 1037.86 351.10 1039.28 351.79 1039.76 353.19 C 1039.83 355.34 1037.32 355.96 1035.78 356.77 C 1028.09 359.44 1019.93 360.36 1011.88 361.24 C 1005.88 361.54 999.91 362.76 993.91 362.03 C 983.63 361.89 973.35 362.08 963.08 361.94 C 959.30 361.59 955.67 363.91 951.96 362.33 C 940.89 360.88 929.52 360.63 918.77 357.28 C 916.76 356.61 914.64 355.80 913.36 354.02 C 913.23 352.12 915.10 351.20 916.55 350.54 C 921.12 348.64 926.05 347.82 930.91 347.04 C 928.82 348.70 927.72 351.10 927.58 353.74 C 934.89 354.99 942.63 356.17 949.88 353.93 C 953.70 352.68 952.22 347.69 952.33 344.64 Z" />
<path fill="#a67a8a" d=" M 1162.34 344.65 C 1179.66 344.18 1197.02 343.81 1214.33 345.09 C 1214.50 350.80 1208.82 353.24 1206.48 357.75 C 1213.13 358.13 1219.81 357.63 1226.39 356.62 C 1227.66 356.26 1229.26 356.34 1230.26 355.33 C 1231.61 352.78 1231.63 349.79 1231.80 346.98 C 1237.61 348.11 1244.06 348.46 1249.00 352.05 C 1251.20 353.76 1248.18 355.93 1246.48 356.47 C 1238.04 359.63 1228.93 360.49 1220.02 361.40 C 1214.67 361.45 1209.37 363.09 1204.04 362.13 C 1196.03 361.77 1187.99 362.10 1179.98 362.00 C 1175.31 362.13 1170.55 361.43 1166.01 362.73 C 1163.62 363.28 1161.28 362.14 1158.94 361.90 C 1148.25 360.87 1137.30 360.27 1127.09 356.66 C 1125.35 355.89 1122.13 354.40 1123.97 352.13 C 1128.85 348.64 1135.14 348.15 1140.88 347.04 C 1138.97 348.63 1138.09 351.00 1137.02 353.16 C 1144.11 355.39 1151.87 355.92 1159.12 354.20 C 1163.56 353.38 1162.34 347.91 1162.34 344.65 Z" />
<path fill="#a67a8a" d=" M 1372.35 344.63 C 1389.68 344.15 1407.04 343.88 1424.36 345.03 C 1424.49 350.75 1418.84 353.27 1416.44 357.77 C 1423.13 358.23 1429.84 357.60 1436.47 356.62 C 1437.73 356.29 1439.26 356.32 1440.29 355.37 C 1441.63 352.80 1441.63 349.80 1441.80 346.98 C 1447.64 348.09 1454.06 348.50 1459.05 352.04 C 1460.98 353.61 1458.63 355.67 1457.03 356.21 C 1445.63 360.84 1433.06 360.54 1421.11 362.50 C 1417.71 363.84 1414.45 361.58 1411.02 361.94 C 1398.36 362.27 1385.62 361.42 1373.02 362.54 C 1361.58 360.87 1349.81 360.76 1338.70 357.24 C 1336.75 356.54 1334.55 355.83 1333.40 353.99 C 1333.21 352.11 1335.14 351.20 1336.56 350.53 C 1341.12 348.64 1346.03 347.86 1350.87 347.01 C 1348.86 348.74 1347.78 351.15 1347.55 353.76 C 1354.87 354.99 1362.60 356.17 1369.85 353.94 C 1373.71 352.74 1372.24 347.68 1372.35 344.63 Z" />
<path fill="#a67a8a" d=" M 1582.33 344.64 C 1599.66 344.14 1617.02 343.89 1634.34 345.03 C 1633.88 347.12 1633.83 349.59 1632.14 351.15 C 1630.02 353.17 1627.85 355.16 1626.55 357.84 C 1634.30 358.05 1642.21 357.75 1649.76 355.84 C 1651.76 353.39 1651.57 349.96 1651.80 346.98 C 1657.47 347.99 1663.52 348.56 1668.54 351.62 C 1670.21 352.43 1670.01 354.58 1668.46 355.41 C 1662.92 358.59 1656.38 359.20 1650.20 360.24 C 1627.95 363.72 1605.37 360.84 1583.02 362.48 C 1574.99 361.33 1566.85 361.07 1558.86 359.60 C 1553.32 358.52 1547.33 357.78 1542.88 353.98 C 1543.78 352.87 1544.46 351.40 1545.91 350.86 C 1550.59 348.67 1555.78 347.89 1560.85 347.05 C 1559.43 348.48 1558.02 350.06 1557.50 352.06 C 1558.23 354.76 1561.77 354.22 1563.96 354.80 C 1569.84 355.13 1576.60 356.17 1581.80 352.75 C 1582.76 350.16 1582.43 347.33 1582.33 344.64 Z" />
<path fill="#a67a8a" d=" M 1792.36 344.66 C 1809.69 344.15 1827.05 343.82 1844.36 345.09 C 1844.44 350.79 1838.81 353.29 1836.45 357.79 C 1844.25 358.11 1852.19 357.63 1859.81 355.82 C 1861.72 353.34 1861.54 349.96 1861.80 346.98 C 1867.62 348.08 1874.03 348.49 1879.00 352.01 C 1881.22 353.84 1878.12 355.95 1876.41 356.50 C 1864.15 361.10 1850.81 360.76 1838.04 362.79 C 1831.79 361.36 1825.37 362.20 1819.03 361.99 C 1799.11 362.04 1778.82 362.81 1759.41 357.48 C 1756.73 356.88 1754.40 355.41 1752.83 353.18 C 1757.71 348.71 1764.65 348.25 1770.85 347.03 C 1768.98 348.67 1768.12 351.04 1767.05 353.20 C 1774.15 355.33 1781.89 355.93 1789.15 354.22 C 1793.63 353.40 1792.36 347.96 1792.36 344.66 Z" />
<path fill="#a67a8a" d=" M 2002.33 344.66 C 2019.67 344.19 2037.06 343.76 2054.38 345.14 C 2054.48 350.81 2048.82 353.25 2046.51 357.75 C 2054.26 358.09 2062.18 357.70 2069.74 355.81 C 2071.85 353.48 2071.51 349.91 2071.80 346.98 C 2077.04 347.83 2082.40 348.59 2087.27 350.84 C 2088.66 351.40 2089.34 352.85 2090.35 353.91 C 2088.44 355.28 2086.51 356.71 2084.23 357.33 C 2073.12 360.64 2061.48 361.21 2050.02 362.27 C 2036.69 361.80 2023.32 361.95 2009.99 362.08 C 2004.65 363.47 1999.40 361.46 1994.05 361.43 C 1984.98 360.51 1975.73 359.78 1967.10 356.66 C 1965.36 355.92 1962.05 354.38 1963.99 352.13 C 1968.85 348.64 1975.10 348.18 1980.81 347.04 C 1978.98 348.67 1978.11 351.01 1977.06 353.15 C 1984.12 355.41 1991.86 355.92 1999.11 354.22 C 2003.59 353.40 2002.32 347.95 2002.33 344.66 Z" />
</svg>
