<?xml version="1.0" encoding="utf-8"?>
<!-- Generator: Adobe Illustrator 19.2.0, SVG Export Plug-In . SVG Version: 6.00 Build 0)  -->
<svg version="1.1" id="Layer_1" xmlns="http://www.w3.org/2000/svg" xmlns:xlink="http://www.w3.org/1999/xlink" x="0px" y="0px"
	 viewBox="0 0 319.7 233.5" style="enable-background:new 0 0 319.7 233.5;" xml:space="preserve">
<style type="text/css">
	.st0{fill:#FFDA03;}
	.st1{fill:#FF5D2E;}
	.st2{fill:#663327;}
</style>
<g>
	<path id="XMLID_6_" class="st0" d="M46.9,157.7c0-61.8,50.3-112,112-112s112,50.3,112,112c0,0.6,0,1.2,0,1.8h41.9
		c0.1-0.6,0.2-1.2,0.2-1.8c0-5.5-4.3-11.4-8.9-17.6c-4.2-5.8-8.5-11.7-10.4-18.5c-1.9-7.1-1.1-14.6-0.4-21.9
		c0.8-7.5,1.5-14.6-1-19.1c-2.6-4.5-9.2-7.5-16.2-10.6c-6.6-2.9-13.4-6-18.6-11.1c-5.1-5.1-8.1-11.9-11.1-18.6
		c-3.1-7-6-13.6-10.6-16.2c-2.1-1.2-4.9-1.8-8.8-1.8c-3.2,0-6.6,0.4-10.2,0.7c-3.9,0.4-7.8,0.8-11.8,0.8c-3.8,0-7.1-0.4-10.1-1.2
		c-6.8-1.8-12.8-6.2-18.5-10.3c-6.3-4.6-12.2-8.9-17.6-8.9h0c-5.5,0-11.4,4.3-17.6,8.9c-5.8,4.2-11.7,8.5-18.5,10.3
		c-3,0.8-6.3,1.2-10.1,1.2c-4,0-7.9-0.4-11.8-0.8c-3.6-0.4-7-0.7-10.2-0.7c-4,0-6.8,0.6-8.9,1.8c-4.5,2.6-7.5,9.2-10.6,16.2
		c-2.9,6.6-6,13.4-11.1,18.6c-5.1,5.1-11.9,8.1-18.6,11.1c-7,3.1-13.6,6-16.2,10.6c-2.6,4.4-1.8,11.5-1,19
		c0.8,7.3,1.5,14.8-0.4,21.9c-1.8,6.8-6.2,12.8-10.4,18.5c-4.6,6.3-8.9,12.2-8.9,17.6c0,0.6,0.1,1.2,0.2,1.8h41.9
		C46.9,158.9,46.9,158.3,46.9,157.7z"/>
	<path id="XMLID_5_" class="st1" d="M158.9,60.1c-53.8,0-97.6,43.8-97.6,97.6c0,0.6,0,1.2,0,1.8h55c0-0.6,0-1.2,0-1.8
		c0-23.5,19.1-42.6,42.6-42.6c23.5,0,42.6,19.1,42.6,42.6c0,0.6,0,1.2,0,1.8h55c0-0.6,0-1.2,0-1.8
		C256.5,103.9,212.7,60.1,158.9,60.1z"/>
	<path id="XMLID_4_" class="st0" d="M158.9,115.1c-23.5,0-42.6,19.1-42.6,42.6c0,0.6,0,1.2,0,1.8h85c0-0.6,0-1.2,0-1.8
		C201.5,134.2,182.4,115.1,158.9,115.1z"/>
</g>
<path class="st2" d="M208,217.9c-0.8,0-1.6,0.2-2.3,0.5c-0.8,0.3-1.4,1.2-2.7,1.2c-2.2,0-2.8-0.9-2.8-4v-14.7h5.9c3.3,0,5-3,5-5.5
	c0-2.6-1.6-5.5-4.9-5.5h-6v-3.1c0-3.4-3.5-5.9-7-5.9h-0.1c-3.4,0-5.9,2.5-5.9,5.9v2.1l0,0v0.9h-2.6c-3.2,0-4.9,3-4.9,5.5
	c0,2.5,1.5,5.5,4.8,5.5h2.7v15c0,10.6,4.1,14.5,13.8,14.5c3.8,0,7-1.3,9-2.6c1.5-1,2.4-2.6,2.4-4.5
	C212.3,220.5,210.6,217.9,208,217.9z"/>
<path class="st2" d="M252.1,203.4c0-9.5-7.5-13.6-16.5-13.6c-5.9,0-10.5,1.3-14,3.2c-2,1-2.8,2.6-2.8,4.9c0,2.6,1.9,5.4,4.9,5.4
	c0.9,0,2.4-0.3,4.1-1c1.6-0.7,2.5-1.5,5.9-1.7c4.3-0.3,6.6,1.3,6.6,4.2v0.5c-1-0.1-3.6-0.3-5.4-0.3c-8.2,0-17.3,3.1-17.3,13.3
	c0,8.2,5,12,11.4,12c3.4,0,8.5-0.7,11.2-3.5c0.7,2.6,3,4.1,5.9,4.1c3.2,0,6.2-2.7,6.2-5.5l0.1-13.8c0,0,0-0.1,0-0.1V203.4z
	 M233.2,220.5c-1.6,0-3.6-0.7-3.6-3.1c0-2.9,2.8-4.1,6.7-4.1c1.4,0,2.9,0,3.7,0l0,1.9C239.9,218.2,237,220.5,233.2,220.5z"/>
<path class="st2" d="M280.4,178.9l0.8,4.6v41.1c0,3.4,2.1,5.3,5.5,5.3h0.1c3.4,0,6.4-1.9,6.4-5.3v-5.5l2.5-2.3l9.9,11.9
	c5.4,6.6,14.6-2.4,9.2-8.3l-10.5-11.2l10-8.3c5.4-4.9-2.1-14.1-8.7-8.1l-12.4,11.3v-24"/>
<path class="st2" d="M90.1,189.7c-10.6,0-20.1,7.4-20.1,20.5s9.2,20.6,20.1,20.6s20.1-7.5,20.1-20.6S100.8,189.7,90.1,189.7z
	 M90,219.1c-4.2,0-7.7-4-7.7-8.9c0-4.9,3.4-8.9,7.7-8.9c4.2,0,7.7,4,7.7,8.9C97.7,215.1,94.3,219.1,90,219.1z"/>
<path class="st2" d="M49.7,190.1c-4.6,0-8.6,1.6-11.7,5.3c-2.6-3.6-6.6-5.3-11-5.3c-3.5,0-7.3,1.7-9.5,4.9l0,0
	c-0.6-2.8-3.1-4.9-6.1-4.9c-3.4,0-6.2,2.8-6.2,6.3v12.8c0,0.2,0,0.3,0,0.5v1.3c0,0.2,0,0.3,0,0.5v13c0,3.4,2.8,5.4,6.2,5.4h0.1
	c3.4,0,6.7-1.9,6.7-5.4v-13c0-0.2,0-0.4,0-0.6v-4.3c0-3.8,2.8-5.3,5-5.3c3.5,0,5,1.9,5,6.1v13.8l0,0v3.1c0,3.4,2.7,5.5,6.2,5.5h0
	c3.4,0,6.8-2,6.8-5.5v-3.1l0,0v-14.9c0-3.2,1.8-5.1,4.5-5.1c3.1,0,4.5,1.7,4.5,6.2v3.7c0,0.1,0,0.2,0,0.3v13c0,3.4,3.6,5.4,7,5.4h0
	c3.4,0,5.9-1.9,5.9-5.4v-3.8l0,0V205C63.1,194.7,57.2,190.1,49.7,190.1z"/>
<path class="st2" d="M161.5,189.7c-4.6,0-8.7,1.6-11.8,5.3c-2.6-3.6-6.7-5.3-11.1-5.3c-3.5,0-7.3,1.7-9.5,4.9l0,0
	c-0.6-2.8-3.4-4.9-6.4-4.9c-3.4,0-6.5,2.8-6.5,6.3v12.8c0,0.2,0,0.3,0,0.5v1.3c0,0.2,0,0.3,0,0.5v13c0,3.4,3.4,5.9,6.8,5.9h0.1
	c3.4,0,6.1-2.4,6.1-5.9v-13c0-0.2,0-0.4,0-0.6v-4.3c0-3.8,2.8-5.3,5-5.3c3.5,0,5,1.9,5,6.1v13.8l0,0v3.2c0,3.4,3.3,6,6.7,6h0
	c3.4,0,6.2-2.5,6.2-6v-3.2l0,0v-14.8c0-3.2,2.8-5.1,5.5-5.1c3.1,0,5.5,1.7,5.5,6.2v3.7c0,0.1,0,0.2,0,0.3v13c0,3.4,2.2,5.9,5.6,5.9
	h0c3.4,0,6.3-2.4,6.3-5.9v-3.8l0,0v-15.7C175.1,194.2,169,189.7,161.5,189.7z"/>
<path class="st2" d="M272.1,180.2c0-3.5-2.8-6.3-6.3-6.3h-0.5c-3.5,0-6.3,2.8-6.3,6.3v44.5c0,3.5,2.8,6.3,6.3,6.3h0.5
	c3.5,0,6.3-2.8,6.3-6.3V180.2z"/>
<path class="st2" d="M293.1,180.2c0-3.5-2.8-6.3-6.3-6.3h-0.5c-3.5,0-6.3,2.8-6.3,6.3v44.5c0,3.5,2.8,6.3,6.3,6.3h0.5
	c3.5,0,6.3-2.8,6.3-6.3V180.2z"/>
</svg>
